# Blender v2.79 (sub 0) OBJ File: 'EnemyV4.blend'
# www.blender.org
mtllib Enemie_normal_sliced_01.mtl
o Enemie_normal_sliced_01_Cube.032
v 0.184590 0.268849 -0.272032
v 0.215459 0.249511 -0.272032
v 0.184590 0.268849 0.272733
v 0.210773 0.248612 0.317896
v 0.215459 0.249511 0.265481
v 0.313216 0.084683 0.480791
v 0.280743 0.109713 0.502643
v 0.306743 0.075312 -0.268808
v 0.155715 0.218281 -0.513132
v 0.242535 -0.174090 -0.290503
v 0.190048 0.203485 -0.513308
v 0.161016 0.197939 -0.537454
v 0.214582 0.075155 -0.528212
v 0.247526 0.075292 -0.503968
v 0.144707 -0.174090 -0.290503
v -0.144707 -0.174090 -0.290503
v -0.096069 0.197939 -0.537454
v 0.096069 0.197939 -0.537454
v -0.128029 0.075155 -0.528212
v 0.128029 0.075155 -0.528212
v 0.080832 0.268849 -0.272032
v 0.139437 0.268849 -0.272032
v -0.080832 0.268849 -0.272032
v -0.080832 0.268849 0.272733
v 0.080832 0.268849 0.272733
v 0.139437 0.268849 0.272733
v -0.063604 0.218281 -0.513132
v 0.063604 0.218281 -0.513132
v 0.122209 0.218281 -0.513132
v -0.096454 0.248612 0.317896
v 0.096454 0.248612 0.317896
v 0.155058 0.248612 0.317896
v -0.138201 0.109713 0.502643
v 0.196805 0.109713 0.502643
v 0.138201 0.109713 0.502643
vt 0.480641 0.193088
vt 0.386826 0.208848
vt 0.383211 0.134259
vt 0.475036 0.139138
vt 0.190740 0.490016
vt 0.196099 0.502615
vt 0.179058 0.494357
vt 0.172834 0.208848
vt 0.096109 0.133082
vt 0.103398 0.454513
vt 0.103124 0.471392
vt 0.178303 0.546517
vt 0.177784 0.582349
vt 0.101288 0.589352
vt 0.102080 0.538464
vt 0.385420 0.490042
vt 0.384556 0.503067
vt 0.474456 0.500453
vt 0.483733 0.511517
vt 0.472284 0.513962
vt 0.496678 0.420012
vt 0.452070 0.429721
vt 0.455533 0.417452
vt 0.496463 0.406790
vt 0.456188 0.375113
vt 0.496159 0.371752
vt 0.456844 0.332773
vt 0.495855 0.336715
vt 0.384059 0.529525
vt 0.195767 0.527704
vt 0.471470 0.556833
vt 0.470989 0.582184
vt 0.383024 0.584518
vt 0.383627 0.552498
vt 0.481480 0.588988
vt 0.483077 0.550296
vt 0.482140 0.550353
vt 0.471909 0.533717
vt 0.195478 0.549488
vt 0.195076 0.579851
vt 0.178614 0.524973
vt 0.102412 0.517110
vt 0.350856 0.425716
vt 0.351201 0.377884
vt 0.351545 0.330052
vt 0.471691 0.545174
vn 0.6561 0.5805 -0.4821
vn 0.7138 0.6914 -0.1115
vn 0.8833 0.4581 -0.0991
vn 0.8115 0.3563 -0.4631
vn 0.7136 0.6998 0.0316
vn 0.2318 0.9599 0.1573
vn 0.3995 0.8397 0.3677
vn 0.8011 0.5885 0.1083
vn 0.4798 0.7849 0.3919
vn 0.0000 0.8613 0.5081
vn 0.0000 0.8520 0.5235
vn 0.0000 0.7993 0.6009
vn 0.2602 0.9593 -0.1095
vn 0.2261 0.3989 -0.8887
vn 0.1835 0.8886 -0.4202
vn 0.2781 -0.2022 -0.9390
vn 0.0000 -0.4063 -0.9137
vn 0.0000 0.3890 -0.9212
vn 0.0000 -0.4396 -0.8982
vn 0.0000 0.1934 -0.9811
vn 0.0000 0.9947 -0.1032
vn 0.0000 0.9779 0.2091
vn 0.0000 0.8997 -0.4364
vn 0.0000 0.8790 -0.4767
vn 0.0000 0.9787 -0.2053
vn 0.0000 0.9905 -0.1375
vn 0.0000 0.9605 0.2781
vn 0.0000 0.9126 0.4089
vn 0.0000 -0.6901 -0.7237
usemtl UV_256
s 1
f 11/1/1 2/2/2 8/3/3 14/4/4
f 5/5/5 3/6/6 4/7/7
f 8/3/3 2/2/2 5/8/5 6/9/8
f 6/10/8 5/5/5 4/7/7 7/11/9
f 31/12/10 30/13/11 33/14/12 35/15/12
f 3/6/6 5/5/5 2/16/2 1/17/13
f 11/18/1 12/19/14 9/20/15
f 11/21/1 14/22/4 13/23/16 12/24/14
f 9/20/15 1/17/13 2/16/2 11/18/1
f 13/23/16 20/25/17 18/26/18 12/24/14
f 20/25/17 19/27/19 17/28/20 18/26/18
f 22/29/21 26/30/22 3/6/6 1/17/13
f 28/31/23 27/32/24 23/33/25 21/34/26
f 17/35/20 27/32/24 28/31/23 18/36/18
f 18/37/18 29/38/23 9/20/15 12/19/14
f 30/13/11 31/12/10 25/39/27 24/40/28
f 32/41/10 4/7/7 3/6/6 26/30/22
f 4/7/7 32/41/10 34/42/12 7/11/9
f 10/43/29 15/44/29 20/25/17 13/23/16
f 15/44/29 16/45/29 19/27/19 20/25/17
f 28/31/23 29/46/23 18/37/18
f 9/20/15 29/38/23 22/29/21 1/17/13
usemtl Emissive_Attack
f 28/31/23 21/34/26 22/29/21 29/38/23
f 26/30/22 22/29/21 21/34/26 25/39/27
f 32/41/10 26/30/22 25/39/27 31/12/10
f 31/12/10 35/15/12 34/42/12 32/41/10
