# Blender v2.79 (sub 0) OBJ File: 'EnemyV4.blend'
# www.blender.org
mtllib Enemie_normal_sliced_03.mtl
o Enemie_normal_sliced_03_Cube.030
v 0.313216 0.084683 0.480791
v 0.306743 0.075312 -0.268808
v 0.278329 -0.186467 0.255979
v 0.273555 -0.186467 -0.247208
v 0.242535 -0.174090 -0.290503
v 0.214582 0.075155 -0.528212
v 0.247526 0.075292 -0.503968
v 0.166063 -0.186467 0.255979
v 0.144707 -0.174090 -0.290503
v 0.163214 -0.186467 -0.247208
vt 0.096109 0.133082
vt 0.186424 0.027659
vt 0.381192 0.033979
vt 0.383211 0.134259
vt 0.337340 0.381866
vt 0.336811 0.437628
vt 0.182938 0.437628
vt 0.183477 0.380892
vt 0.475036 0.139138
vt 0.350856 0.425716
vt 0.455533 0.417452
vt 0.452070 0.429721
vt 0.351201 0.377884
vn 0.9923 -0.1237 -0.0080
vn 0.7729 -0.6344 -0.0062
vn 0.6333 -0.7450 -0.2092
vn 0.9824 -0.1339 -0.1301
vn 0.0000 -0.9880 -0.1543
vn 0.0000 -1.0000 0.0000
vn 0.7040 -0.4555 -0.5448
vn 0.3182 -0.8060 -0.4990
vn 0.5562 -0.5468 -0.6258
vn 0.0000 -0.9615 -0.2748
usemtl UV_256
s 1
f 1/1/1 3/2/2 4/3/3 2/4/4
f 10/5/5 4/6/3 3/7/2 8/8/6
f 2/4/4 4/3/3 7/9/7
f 4/6/3 5/10/8 6/11/9 7/12/7
f 10/5/5 9/13/10 5/10/8 4/6/3
