# Blender v2.79 (sub 0) OBJ File: 'Enemy_Attack_part_01.blend'
# www.blender.org
mtllib Enemy_Attack_part_01.mtl
o Cylinder
v 0.000000 0.000000 3.148882
v 0.000000 0.000000 -3.148881
v 0.547911 0.547911 0.837597
v 0.547911 0.547911 -0.837597
v 0.661103 0.661103 0.000000
v -0.774863 0.000000 -0.837597
v -0.774863 0.000000 0.837597
v -0.934940 0.000000 0.000000
v -0.547911 -0.547910 0.837597
v -0.547911 -0.547910 -0.837597
v -0.661103 -0.661102 0.000000
v -0.000000 -0.774863 -0.837597
v -0.000000 -0.774863 0.837597
v -0.000000 -0.934940 0.000000
v 0.774863 0.000000 -0.837597
v 0.774863 0.000000 0.837597
v 0.934941 0.000000 0.000000
v -0.547910 0.547911 0.837597
v -0.547910 0.547911 -0.837597
v -0.661102 0.661103 0.000000
v 0.000000 0.774863 -0.837597
v 0.000000 0.774863 0.837597
v 0.000000 0.934941 0.000000
v 0.547911 -0.547911 0.837597
v 0.547911 -0.547911 -0.837597
v 0.661103 -0.661103 0.000000
vn 0.6847 -0.6847 0.2494
vn 0.0000 0.0000 1.0000
vn 0.0000 -0.9684 0.2494
vn 0.0000 0.9684 0.2494
vn -0.6847 0.6847 0.2494
vn 0.0000 0.9684 -0.2494
vn 0.0000 0.0000 -1.0000
vn -0.6847 0.6847 -0.2494
vn -0.9684 0.0000 0.2494
vn -0.6847 -0.6847 0.2494
vn 0.6847 -0.6847 -0.2494
vn 0.9684 0.0000 -0.2494
vn 0.6847 0.6847 0.2494
vn 0.9684 0.0000 0.2494
vn 0.0000 -0.9684 -0.2494
vn -0.6847 -0.6847 -0.2494
vn 0.6847 0.6847 -0.2494
vn -0.7071 0.7071 0.0000
vn 0.0000 1.0000 0.0000
vn -0.9684 0.0000 -0.2494
vn 1.0000 0.0000 0.0000
vn 0.7071 -0.7071 0.0000
vn -0.7071 -0.7071 0.0000
vn -1.0000 0.0000 0.0000
vn 0.0000 -1.0000 0.0000
vn 0.7071 0.7071 0.0000
usemtl None
s 1
f 24//1 1//2 13//3
f 1//2 22//4 18//5
f 21//6 2//7 19//8
f 1//2 7//9 9//10
f 1//2 18//5 7//9
f 25//11 2//7 15//12
f 3//13 1//2 16//14
f 22//4 1//2 3//13
f 16//14 1//2 24//1
f 12//15 10//16 2//7
f 13//3 1//2 9//10
f 25//11 12//15 2//7
f 2//7 21//6 4//17
f 4//17 15//12 2//7
f 21//6 19//8 20//18 23//19
f 10//16 6//20 2//7
f 17//21 16//14 24//1 26//22
f 6//20 10//16 11//23 8//24
f 23//19 20//18 18//5 22//4
f 12//15 14//25 11//23 10//16
f 14//25 13//3 9//10 11//23
f 6//20 8//24 20//18 19//8
f 8//24 7//9 18//5 20//18
f 15//12 4//17 5//26 17//21
f 23//19 22//4 3//13 5//26
f 15//12 17//21 26//22 25//11
f 17//21 5//26 3//13 16//14
f 21//6 23//19 5//26 4//17
f 8//24 11//23 9//10 7//9
f 12//15 25//11 26//22 14//25
f 14//25 26//22 24//1 13//3
f 6//20 19//8 2//7
