# Blender v2.79 (sub 0) OBJ File: 'EnemyV4.blend'
# www.blender.org
mtllib Enemie_normal_sliced_02.mtl
o Enemie_normal_sliced_02_Cube.031
v -0.184590 0.268849 -0.272032
v -0.215459 0.249511 -0.272032
v -0.184590 0.268849 0.272733
v -0.210773 0.248612 0.317896
v -0.215459 0.249511 0.283079
v -0.313216 0.084683 0.480791
v -0.280743 0.109713 0.502643
v -0.306743 0.075312 -0.268808
v -0.278329 -0.186467 0.255979
v -0.155715 0.218281 -0.513132
v -0.273555 -0.186467 -0.247208
v -0.190048 0.203485 -0.513308
v -0.161016 0.197939 -0.537454
v -0.214582 0.075155 -0.528212
v -0.247526 0.075292 -0.503968
v -0.096069 0.197939 -0.537454
v -0.128029 0.075155 -0.528212
v 0.080832 0.268849 -0.272032
v -0.139437 0.268849 -0.272032
v -0.080832 0.268849 -0.272032
v -0.139437 0.268849 0.272733
v -0.080832 0.268849 0.272733
v 0.080832 0.268849 0.272733
v -0.122209 0.218281 -0.513132
v -0.063604 0.218281 -0.513132
v -0.155058 0.248612 0.317896
v -0.096454 0.248612 0.317896
v -0.138201 0.109713 0.502643
v -0.196805 0.109713 0.502643
vt 0.470174 0.625054
vt 0.470549 0.605300
vt 0.482421 0.589074
vt 0.481765 0.627852
vt 0.177029 0.634510
vt 0.177472 0.603894
vt 0.194788 0.601635
vt 0.194455 0.626724
vt 0.100244 0.656425
vt 0.100956 0.610707
vt 0.382095 0.633950
vt 0.382593 0.607492
vt 0.456844 0.332773
vt 0.457499 0.290433
vt 0.495552 0.301677
vt 0.495855 0.336715
vt 0.480641 0.193088
vt 0.475036 0.139138
vt 0.383211 0.134259
vt 0.386826 0.208848
vt 0.096109 0.133082
vt 0.381192 0.033979
vt 0.186424 0.027659
vt 0.188662 0.639146
vt 0.172834 0.208848
vt 0.100118 0.673293
vt 0.382542 0.646984
vt 0.472031 0.638756
vt 0.496257 0.289255
vt 0.454317 0.278376
vt 0.383024 0.584518
vt 0.195076 0.579851
vt 0.195478 0.549488
vt 0.383627 0.552498
vt 0.471204 0.570782
vt 0.481480 0.588988
vt 0.470989 0.582184
vt 0.177784 0.582349
vt 0.101288 0.589352
vn -0.1835 0.8886 -0.4202
vn 0.0000 0.8997 -0.4364
vn 0.0000 0.5185 -0.8550
vn -0.2261 0.3989 -0.8887
vn -0.3816 0.8425 0.3802
vn 0.0000 0.8613 0.5081
vn 0.0000 0.9779 0.2091
vn -0.2269 0.9615 0.1552
vn -0.4612 0.7880 0.4077
vn 0.0000 0.7993 0.6009
vn -0.2602 0.9593 -0.1095
vn 0.0000 0.9947 -0.1032
vn 0.0000 -0.0750 -0.9972
vn -0.3919 0.1053 -0.9139
vn -0.6561 0.5805 -0.4821
vn -0.8115 0.3563 -0.4631
vn -0.9586 0.2756 -0.0716
vn -0.7137 0.6915 -0.1115
vn -0.9068 0.4115 0.0914
vn -0.9923 -0.1237 -0.0080
vn -0.7037 0.7087 0.0503
vn 0.0000 0.9975 -0.0707
vn 0.0000 0.9928 0.1195
vn 0.0000 1.0000 0.0000
vn 0.0000 0.9316 -0.3634
vn 0.0000 0.8696 0.4937
usemtl UV_256
s 1
f 10/1/1 24/2/2 16/3/3 13/4/4
f 4/5/5 26/6/6 21/7/7 3/8/8
f 26/6/6 4/5/5 7/9/9 29/10/10
f 1/11/11 3/8/8 21/7/7 19/12/12
f 17/13/13 14/14/14 13/15/4 16/16/3
f 12/17/15 15/18/16 8/19/17 2/20/18
f 6/21/19 8/19/17 11/22/20 9/23/20
f 5/24/21 4/5/5 3/8/8
f 8/19/17 6/21/19 5/25/21 2/20/18
f 6/26/19 7/9/9 4/5/5 5/24/21
f 3/8/8 1/11/11 2/27/18 5/24/21
f 12/28/15 10/1/1 13/4/4
f 12/29/15 13/15/4 14/14/14 15/30/16
f 10/1/1 12/28/15 2/27/18 1/11/11
f 20/31/22 22/32/23 23/33/24 18/34/24
f 24/2/2 10/1/1 1/11/11 19/12/12
f 24/2/2 25/35/25 16/36/3
usemtl Emissive_Attack
f 24/2/2 19/12/12 20/31/22 25/37/25
f 22/32/23 20/31/22 19/12/12 21/7/7
f 27/38/26 22/32/23 21/7/7 26/6/6
f 26/6/6 29/10/10 28/39/10 27/38/26
