# Blender v2.79 (sub 0) OBJ File: 'EnemyV4.blend'
# www.blender.org
mtllib Enemie_normal_sliced_14.mtl
o Enemie_normal_sliced_14_Cube.019
v 0.724222 -0.036487 0.289904
v 0.814564 -0.066573 0.226279
v 0.874929 -0.086675 0.131059
v 0.896126 -0.093734 0.018739
v 0.881612 0.086204 -0.204143
v 0.946440 0.064615 -0.101884
v 0.784592 0.118514 0.309949
v 0.881613 0.086204 0.241622
v 0.946440 0.064615 0.139362
v 0.969204 0.057034 0.018739
v 0.839522 0.024492 0.102595
v 0.727007 0.061961 0.221186
v 0.794455 0.039500 0.173685
v 0.855348 0.019222 0.018739
v 0.794455 0.039500 -0.136207
v 0.839522 0.024492 -0.065117
v 0.709279 0.008728 0.221186
v 0.776727 -0.013734 0.173685
v 0.821794 -0.028742 0.102595
v 0.837620 -0.034012 0.018739
v 0.821794 -0.028742 -0.065117
v 0.776726 -0.013734 -0.136207
v 0.741241 0.057221 0.257407
v 0.820757 0.030741 0.201408
v 0.873887 0.013047 0.117599
v 0.892544 0.006834 0.018739
v 0.820756 0.030741 -0.163929
v 0.873887 0.013047 -0.080120
v 0.769917 -0.011466 0.375484
v 0.888772 -0.051047 0.291780
v 0.814564 -0.066572 -0.188801
v 0.874929 -0.086675 -0.093581
v 0.968188 -0.077494 0.166508
v 0.996075 -0.086781 0.018739
v 0.888772 -0.051047 -0.254302
v 0.968188 -0.077494 -0.129030
v 0.838485 0.083975 -0.163929
v 0.891615 0.066282 -0.080120
v 0.910272 0.060068 0.018739
v 0.891615 0.066281 0.117599
v 0.838485 0.083975 0.201408
v 0.758969 0.110455 0.257407
v 0.909840 0.012218 -0.254302
v 0.989256 -0.014230 -0.129030
v 1.017144 -0.023517 0.018739
v 0.989257 -0.014230 0.166508
v 0.909840 0.012217 0.291780
v 0.790986 0.051798 0.375484
v 0.909840 0.012218 -0.254302
v 0.989256 -0.014230 -0.129030
v 0.794455 0.039500 -0.136207
v 0.839522 0.024492 -0.065117
v 0.855348 0.019222 0.018739
v 0.839522 0.024492 0.102595
v 0.794455 0.039500 0.173685
v 0.727007 0.061961 0.221186
v 0.821794 -0.028742 0.102595
v 0.776727 -0.013734 0.173685
v 0.968188 -0.077494 0.166508
v 0.888772 -0.051047 0.291780
v 0.821794 -0.028742 -0.065117
v 0.837620 -0.034012 0.018739
v 0.776726 -0.013734 -0.136207
v 0.709279 0.008728 0.221186
v 0.820756 0.030741 -0.163929
v 0.873887 0.013047 -0.080120
v 0.892544 0.006834 0.018739
v 0.888772 -0.051047 -0.254302
v 0.968188 -0.077494 -0.129030
v 0.873887 0.013047 0.117599
v 0.820757 0.030741 0.201408
v 0.741241 0.057221 0.257407
v 0.814564 -0.066573 0.226279
v 0.874929 -0.086675 0.131059
v 0.896126 -0.093734 0.018739
v 0.874929 -0.086675 -0.093581
v 0.724222 -0.036487 0.289904
v 0.814564 -0.066572 -0.188801
v 0.769917 -0.011466 0.375484
v 0.946440 0.064615 0.139362
v 0.881613 0.086204 0.241622
v 0.969204 0.057034 0.018739
v 0.946440 0.064615 -0.101884
v 0.784592 0.118514 0.309949
v 0.881612 0.086204 -0.204143
v 0.996075 -0.086781 0.018739
v 1.017144 -0.023517 0.018739
v 0.909840 0.012217 0.291780
v 0.790986 0.051798 0.375484
v 0.838485 0.083975 -0.163929
v 0.891615 0.066282 -0.080120
v 0.910272 0.060068 0.018739
v 0.891615 0.066281 0.117599
v 0.838485 0.083975 0.201408
v 0.989257 -0.014230 0.166508
v 0.758969 0.110455 0.257407
vt 0.373386 0.930225
vt 0.373386 0.950151
vt 0.331051 0.950151
vt 0.331051 0.930225
vt 0.414554 0.950151
vt 0.414554 0.970631
vt 0.373386 0.970631
vt 0.373386 0.950151
vt 0.331051 0.970631
vt 0.331051 0.950151
vt 0.243045 0.899385
vt 0.243045 0.876043
vt 0.287564 0.876043
vt 0.287564 0.899385
vt 0.455408 0.970631
vt 0.455408 0.950151
vt 0.455408 0.876043
vt 0.455408 0.899385
vt 0.414554 0.899385
vt 0.414554 0.876043
vt 0.287564 0.876043
vt 0.287564 0.837282
vt 0.331051 0.837282
vt 0.331051 0.876043
vt 0.373386 0.899385
vt 0.414554 0.899385
vt 0.414554 0.930225
vt 0.373386 0.930225
vt 0.373386 0.876043
vt 0.373386 0.837282
vt 0.414554 0.837282
vt 0.414554 0.876043
vt 0.287564 0.950151
vt 0.287564 0.930225
vt 0.331051 0.876043
vt 0.331051 0.899385
vt 0.414554 0.930225
vt 0.455408 0.930225
vt 0.455408 0.950151
vt 0.414554 0.950151
vt 0.373386 0.876043
vt 0.373386 0.899385
vt 0.287564 0.970631
vt 0.243045 0.970631
vt 0.243045 0.950151
vt 0.287564 0.950151
vt 0.243045 0.876043
vt 0.243045 0.837282
vt 0.455408 0.899385
vt 0.455408 0.930225
vt 0.287564 0.899385
vt 0.331051 0.899385
vt 0.331051 0.930225
vt 0.287564 0.930225
vt 0.243045 0.899385
vt 0.243045 0.930225
vt 0.455408 0.837282
vt 0.455408 0.876043
vt 0.243045 0.950151
vt 0.243045 0.930225
vt 0.943960 0.810576
vt 0.956313 0.810861
vt 0.956313 0.833082
vt 0.943960 0.832349
vt 0.956313 0.745144
vt 0.956313 0.766972
vt 0.943960 0.766987
vt 0.943960 0.745673
vt 0.956313 0.788923
vt 0.943960 0.788750
vt 0.972193 0.743983
vt 0.972193 0.767188
vt 0.956313 0.766972
vt 0.956313 0.745144
vt 0.956313 0.833082
vt 0.956313 0.810861
vt 0.972193 0.812549
vt 0.972193 0.834340
vt 0.934965 0.831597
vt 0.934965 0.809898
vt 0.943960 0.810576
vt 0.943960 0.832349
vt 0.972193 0.790001
vt 0.956313 0.788923
vt 0.956313 0.723803
vt 0.972193 0.721575
vt 0.934965 0.788351
vt 0.943960 0.788750
vt 0.934965 0.766889
vt 0.934965 0.745676
vt 0.943960 0.745673
vt 0.943960 0.766987
vt 0.943960 0.724691
vt 0.956313 0.723803
vt 0.934965 0.725128
vt 0.943960 0.724691
vn 0.0514 0.9987 0.0000
vn 0.0707 0.9922 -0.1021
vn -0.8765 0.2919 0.3827
vn -0.9488 0.3160 0.0000
vn -0.8765 0.2919 -0.3827
vn 0.5271 -0.1755 0.8314
vn 0.6709 -0.2234 0.7071
vn -0.7889 0.2627 0.5556
vn 0.7889 -0.2627 -0.5556
vn 0.8765 -0.2919 -0.3827
vn -0.0365 -0.9623 0.2694
vn 0.0419 -0.9884 0.1458
vn 0.8593 0.5114 0.0000
vn 0.8121 0.5271 -0.2502
vn 0.0694 -0.9976 0.0000
vn 0.0419 -0.9884 -0.1458
vn 0.1255 0.9740 -0.1886
vn 0.8765 -0.2919 0.3827
vn 0.0707 0.9922 0.1021
vn 0.0898 0.9844 0.1509
vn 0.9488 -0.3160 0.0000
vn -0.6709 0.2234 -0.7071
vn -0.5271 0.1755 -0.8314
vn -0.0871 -0.9427 0.3221
vn 0.7585 0.5383 -0.3672
vn 0.6777 0.5719 0.4622
vn 0.8121 0.5271 0.2502
vn 0.5855 0.5959 0.5495
vn 0.0143 -0.9764 -0.2152
vn 0.1609 0.9608 -0.2258
vn -0.6814 -0.7108 0.1747
vn -0.7143 -0.6998 0.0000
vn -0.5243 -0.7592 -0.3855
vn -0.5874 -0.7421 -0.3229
vn 0.3159 0.9488 0.0000
vn -0.6814 -0.7108 -0.1747
vn -0.6457 -0.7188 0.2576
vn 0.3160 0.9488 0.0000
usemtl UV_256
s 1
f 82/1/1 39/2/1 93/3/2 80/4/2
f 91/5/3 28/6/3 67/7/4 92/8/4
f 92/8/4 67/7/4 70/9/5 40/10/5
f 48/11/6 29/12/6 30/13/7 47/14/7
f 65/15/8 28/6/3 91/5/3 90/16/8
f 35/17/9 49/18/9 50/19/10 69/20/10
f 60/21/11 73/22/11 74/23/12 59/24/12
f 87/25/13 44/26/14 6/27/14 10/28/13
f 86/29/15 4/30/15 32/31/16 36/32/16
f 80/4/2 93/3/2 41/33/17 81/34/17
f 47/14/7 30/13/7 33/35/18 95/36/18
f 83/37/19 5/38/20 37/39/20 38/40/19
f 95/36/18 33/35/18 34/41/21 45/42/21
f 69/20/10 50/19/10 45/42/21 34/41/21
f 24/43/22 23/44/23 96/45/23 94/46/22
f 40/10/5 70/9/5 24/43/22 94/46/22
f 79/47/24 77/48/24 73/22/11 60/21/11
f 43/49/25 85/50/25 6/27/14 44/26/14
f 88/51/26 46/52/27 9/53/27 8/54/26
f 46/52/27 87/25/13 10/28/13 9/53/27
f 89/55/28 88/51/26 8/54/26 84/56/28
f 83/37/19 38/40/19 39/2/1 82/1/1
f 59/24/12 74/23/12 4/30/15 86/29/15
f 32/31/16 78/57/29 68/58/29 36/32/16
f 81/34/17 41/33/17 42/59/30 7/60/30
usemtl Emissive_Attack
f 13/61/22 58/62/22 64/63/23 12/64/23
f 61/65/3 62/66/4 53/67/4 16/68/3
f 62/66/4 57/69/5 54/70/5 53/67/4
f 58/62/22 13/61/22 54/70/5 57/69/5
f 76/71/31 75/72/32 20/73/32 21/74/31
f 17/75/33 18/76/34 2/77/34 1/78/33
f 72/79/35 71/80/35 55/81/35 56/82/35
f 75/72/32 3/83/36 19/84/36 20/73/32
f 76/71/31 21/74/31 22/85/37 31/86/37
f 71/80/35 25/87/38 11/88/38 55/81/35
f 26/89/38 66/90/38 52/91/38 14/92/38
f 51/93/8 63/94/8 61/65/3 16/68/3
f 25/87/38 26/89/38 14/92/38 11/88/38
f 66/90/38 27/95/38 15/96/38 52/91/38
f 18/76/34 19/84/36 3/83/36 2/77/34
