# Blender v2.79 (sub 0) OBJ File: ''
# www.blender.org
mtllib LightningModel02.mtl
o Cube_Cube.001
v -0.150000 -0.150000 0.150000
v -0.150000 1.282104 0.150000
v -0.150000 -0.150000 -0.150000
v -0.150000 1.282104 -0.150000
v 0.150000 -0.150000 0.150000
v 0.150000 1.282104 0.150000
v 0.150000 -0.150000 -0.150000
v 0.150000 1.282104 -0.150000
v -0.150000 2.166984 -0.814656
v -0.150000 2.166984 -1.114656
v 0.150000 2.166984 -1.114656
v 0.150000 2.166984 -0.814656
v -0.150000 3.581469 -0.814656
v -0.150000 3.581469 -1.114656
v 0.150000 3.581469 -1.114656
v 0.150000 3.581469 -0.814656
v -0.150000 3.581469 -0.962054
v 0.150000 3.581469 -0.955554
v -0.150000 4.865141 -2.362021
v -0.150000 4.865141 -2.514623
v 0.150000 4.865141 -2.514623
v 0.150000 4.865141 -2.355521
v 0.150000 4.483381 0.126283
v 0.150000 4.483381 0.267182
v -0.150000 4.483381 0.267182
v -0.150000 4.483381 0.119784
v -0.150000 6.029428 -2.362021
v -0.150000 6.029428 -2.514623
v 0.150000 6.029428 -2.514623
v 0.150000 6.029428 -2.355521
vt 0.086829 0.324345
vt 0.362885 0.324345
vt 0.362885 0.461640
vt 0.086829 0.461640
vt 0.001437 0.660195
vt 0.277494 0.660195
vt 0.277494 0.797490
vt 0.001437 0.797490
vt 0.176772 0.324345
vt 0.452828 0.324345
vt 0.452828 0.461640
vt 0.176772 0.461640
vt -0.003114 0.324345
vt 0.272942 0.324345
vt 0.272942 0.461640
vt -0.003114 0.461640
vt 0.066082 0.846627
vt 0.000419 0.786395
vt 0.389222 0.786395
vt 0.454885 0.846628
vt 0.005456 0.996099
vt 0.005456 0.906995
vt 0.425579 0.906995
vt 0.425579 0.996099
vt 0.001679 0.999102
vt 0.001679 0.909998
vt 0.390482 0.909998
vt 0.390482 0.999102
vt 0.003265 0.999102
vt 0.003265 0.909998
vt 0.392068 0.909998
vt 0.392068 0.999102
vt 0.005459 0.995059
vt 0.071122 0.934826
vt 0.459925 0.934826
vt 0.394262 0.995059
vt 0.033826 0.971945
vt 0.000419 0.941313
vt 0.564573 0.941313
vt 0.597980 0.971945
vt 0.001351 0.996771
vt 0.001351 0.859476
vt 0.274011 0.859476
vt 0.274011 0.996771
vt 0.994838 0.989986
vt -0.005088 0.989993
vt 0.994838 0.919973
vt -0.005089 0.852356
vt 0.994837 0.852348
vt 0.039792 0.927437
vt 0.007648 0.900639
vt 0.425989 0.900640
vt 0.458133 0.927437
vt 0.354801 0.902051
vt 0.354801 0.854795
vt 0.700612 0.854796
vt 0.700612 0.902051
vt 0.009720 0.990080
vt 0.044551 0.958144
vt 0.608703 0.958144
vt 0.573873 0.990080
vt 0.009720 0.991779
vt 0.009720 0.902675
vt 0.573871 0.902675
vt 0.573871 0.991779
vt 0.004942 0.994848
vt 0.003520 0.905734
vt 0.567669 0.905734
vt 0.569092 0.994848
vt 0.033592 0.992973
vt 0.033592 0.903869
vt 0.451932 0.903869
vt 0.451932 0.992973
vt 0.034538 0.999581
vt 0.033056 0.910468
vt 0.451396 0.910468
vt 0.452878 0.999581
vt 0.000419 0.936845
vt 0.034046 0.908811
vt 0.452385 0.908811
vt 0.418759 0.936845
vt 0.008152 0.902030
vt 0.008152 0.856705
vt 0.353963 0.856705
vt 0.353963 0.902030
vt 0.008152 0.991994
vt 0.008152 0.902868
vt 0.353963 0.902869
vt 0.353963 0.991994
vt 0.354801 0.991994
vt 0.354801 0.902889
vt 0.700612 0.902889
vt 0.700612 0.991994
vt 0.999773 0.993572
vt -0.000153 0.993572
vt 0.999773 0.928930
vt -0.000152 0.855935
vt 0.999773 0.855935
vn -1.0000 0.0000 0.0000
vn 0.0000 0.0000 -1.0000
vn 1.0000 0.0000 0.0000
vn 0.0000 0.0000 1.0000
vn 0.0000 0.7369 0.6760
vn 0.0000 -0.7369 -0.6760
vn 0.0000 -0.7371 -0.6758
vn -0.0146 0.7370 0.6758
vn 0.0000 -0.7681 0.6403
vn 0.0139 0.7680 -0.6403
vn -0.0217 0.0000 0.9998
usemtl Material.001
s off
f 1/1/1 2/2/1 4/3/1 3/4/1
f 3/5/2 4/6/2 8/7/2 7/8/2
f 7/9/3 8/10/3 6/11/3 5/12/3
f 5/13/4 6/14/4 2/15/4 1/16/4
f 4/17/1 2/18/1 9/19/1 10/20/1
f 9/21/4 12/22/4 16/23/4 13/24/4
f 2/25/5 6/26/5 12/27/5 9/28/5
f 8/29/6 4/30/6 10/31/6 11/32/6
f 6/33/3 8/34/3 11/35/3 12/36/3
f 14/37/1 17/38/1 19/39/1 20/40/1
f 11/41/2 10/42/2 14/43/2 15/44/2
f 14/45/1 10/46/1 17/47/1
f 9/48/1 13/49/1 17/47/1
f 16/50/3 18/51/3 23/52/3 24/53/3
f 22/54/3 21/55/3 29/56/3 30/57/3
f 18/58/3 15/59/3 21/60/3 22/61/3
f 15/62/7 14/63/7 20/64/7 21/65/7
f 17/66/8 18/67/8 22/68/8 19/69/8
f 13/70/9 16/71/9 24/72/9 25/73/9
f 18/74/10 17/75/10 26/76/10 23/77/10
f 17/78/1 13/79/1 25/80/1 26/81/1
f 20/82/1 19/83/1 27/84/1 28/85/1
f 19/86/11 22/87/11 30/88/11 27/89/11
f 21/90/2 20/91/2 28/92/2 29/93/2
f 10/46/1 9/48/1 17/47/1
f 16/94/3 12/95/3 18/96/3
f 11/97/3 15/98/3 18/96/3
f 12/95/3 11/97/3 18/96/3
