# Blender v2.79 (sub 0) OBJ File: 'Player_Model_Blockouts_V7.blend'
# www.blender.org
mtllib PlayerMinigunBarrel.mtl
o MinigunBarrel_Sphere.002
v 0.048077 0.116068 0.797062
v -0.000000 0.125631 0.797062
v 0.088834 0.088835 0.797062
v 0.116068 0.048077 0.797062
v 0.125631 0.000000 0.797062
v 0.116068 -0.048077 0.797062
v 0.088834 -0.088835 0.797062
v 0.048077 -0.116068 0.797062
v -0.000000 -0.125631 0.797062
v -0.048077 -0.116068 0.797062
v -0.088835 -0.088835 0.797062
v -0.116068 -0.048077 0.797062
v -0.125631 0.000000 0.797062
v -0.116068 0.048077 0.797062
v -0.088835 0.088835 0.797062
v -0.048077 0.116068 0.797062
v 0.052191 0.126000 1.123697
v 0.000000 0.136381 1.123697
v 0.096436 0.096436 1.123697
v 0.126000 0.052191 1.123697
v 0.136381 0.000000 1.123697
v 0.126000 -0.052191 1.123697
v 0.096436 -0.096436 1.123697
v 0.052191 -0.126000 1.123697
v 0.000000 -0.136381 1.123697
v -0.052191 -0.126000 1.123697
v -0.096436 -0.096436 1.123697
v -0.126000 -0.052191 1.123697
v -0.136381 0.000000 1.123697
v -0.126000 0.052191 1.123697
v -0.096436 0.096436 1.123697
v -0.052191 0.126000 1.123697
v 0.040335 0.097377 1.123697
v 0.000000 0.105400 1.123697
v 0.074529 0.074529 1.123697
v 0.097377 0.040335 1.123697
v 0.105400 0.000000 1.123697
v 0.097377 -0.040335 1.123697
v 0.074529 -0.074529 1.123697
v 0.040335 -0.097377 1.123697
v 0.000000 -0.105400 1.123697
v -0.040335 -0.097377 1.123697
v -0.074529 -0.074529 1.123697
v -0.097377 -0.040335 1.123697
v -0.105400 0.000000 1.123697
v -0.097377 0.040335 1.123697
v -0.074529 0.074529 1.123697
v -0.040335 0.097377 1.123697
v 0.029014 0.070045 0.949567
v -0.000000 0.075817 0.949567
v 0.053610 0.053610 0.949567
v 0.070045 0.029014 0.949567
v 0.075816 0.000000 0.949567
v 0.070045 -0.029014 0.949567
v 0.053610 -0.053610 0.949567
v 0.029014 -0.070045 0.949567
v -0.000000 -0.075817 0.949567
v -0.029014 -0.070045 0.949567
v -0.053611 -0.053610 0.949567
v -0.070045 -0.029014 0.949567
v -0.075817 0.000000 0.949567
v -0.070045 0.029014 0.949567
v -0.053611 0.053610 0.949567
v -0.029014 0.070045 0.949567
v 0.051120 0.123415 -0.019069
v -0.000000 0.133583 -0.019069
v 0.094458 0.094458 -0.019069
v 0.123415 0.051120 -0.019069
v 0.133583 -0.000000 -0.019069
v 0.123415 -0.051120 -0.019069
v 0.094458 -0.094458 -0.019069
v 0.051120 -0.123415 -0.019069
v -0.000000 -0.133584 -0.019069
v -0.051120 -0.123415 -0.019069
v -0.094458 -0.094458 -0.019069
v -0.123415 -0.051120 -0.019069
v -0.133583 -0.000000 -0.019069
v -0.123415 0.051120 -0.019069
v -0.094458 0.094458 -0.019069
v -0.051120 0.123415 -0.019069
v 0.045550 0.109969 0.162729
v -0.000000 0.119029 0.162729
v 0.084166 0.084166 0.162729
v 0.109969 0.045550 0.162729
v 0.119029 -0.000000 0.162729
v 0.109969 -0.045551 0.162729
v 0.084166 -0.084166 0.162729
v 0.045550 -0.109969 0.162729
v -0.000000 -0.119029 0.162729
v -0.045550 -0.109969 0.162729
v -0.084166 -0.084166 0.162729
v -0.109969 -0.045551 0.162729
v -0.119029 -0.000000 0.162729
v -0.109969 0.045550 0.162729
v -0.084166 0.084166 0.162729
v -0.045550 0.109969 0.162729
v 0.067118 -0.070879 0.056173
v 0.091012 -0.052545 0.056173
v 0.018924 -0.043055 0.056173
v 0.037258 -0.066948 0.056173
v 0.022855 -0.013195 0.056173
v 0.046749 0.005139 0.056173
v 0.076608 0.001208 0.056173
v 0.094943 -0.022685 0.056173
v 0.091012 -0.052545 0.820833
v 0.067118 -0.070879 0.820833
v 0.037258 -0.066948 0.820833
v 0.018924 -0.043055 0.820833
v 0.022855 -0.013195 0.820833
v 0.046749 0.005139 0.820833
v 0.076608 0.001208 0.820833
v 0.094943 -0.022686 0.820833
v -0.094942 -0.022686 0.056173
v -0.091011 -0.052545 0.056173
v -0.046748 0.005139 0.056173
v -0.076608 0.001208 0.056173
v -0.022855 -0.013195 0.056173
v -0.018923 -0.043055 0.056173
v -0.037258 -0.066949 0.056173
v -0.067117 -0.070880 0.056173
v -0.091011 -0.052546 0.820833
v -0.094942 -0.022686 0.820833
v -0.076608 0.001208 0.820833
v -0.046748 0.005139 0.820833
v -0.022855 -0.013195 0.820833
v -0.018924 -0.043055 0.820833
v -0.037258 -0.066949 0.820833
v -0.067118 -0.070880 0.820833
v 0.027825 0.093566 0.056173
v -0.000000 0.105091 0.056173
v 0.027825 0.037916 0.056173
v 0.039350 0.065741 0.056173
v -0.000000 0.026391 0.056173
v -0.027825 0.037916 0.056173
v -0.039350 0.065741 0.056173
v -0.027825 0.093566 0.056173
v -0.000000 0.105091 0.820833
v 0.027825 0.093566 0.820833
v 0.039350 0.065741 0.820833
v 0.027825 0.037916 0.820833
v -0.000000 0.026391 0.820833
v -0.027825 0.037916 0.820833
v -0.039350 0.065741 0.820833
v -0.027825 0.093566 0.820833
v 0.048077 0.116068 0.797062
v -0.000000 0.125631 0.797062
v 0.088834 0.088835 0.797062
v 0.116068 0.048077 0.797062
v 0.125631 0.000000 0.797062
v 0.116068 -0.048077 0.797062
v 0.088834 -0.088835 0.797062
v 0.048077 -0.116068 0.797062
v -0.000000 -0.125631 0.797062
v -0.048077 -0.116068 0.797062
v -0.088835 -0.088835 0.797062
v -0.116068 -0.048077 0.797062
v -0.125631 0.000000 0.797062
v -0.116068 0.048077 0.797062
v -0.088835 0.088835 0.797062
v -0.048077 0.116068 0.797062
v 0.052191 0.126000 1.123697
v 0.000000 0.136381 1.123697
v 0.096436 0.096436 1.123697
v 0.126000 0.052191 1.123697
v 0.136381 0.000000 1.123697
v 0.126000 -0.052191 1.123697
v 0.096436 -0.096436 1.123697
v 0.052191 -0.126000 1.123697
v 0.000000 -0.136381 1.123697
v -0.052191 -0.126000 1.123697
v -0.096436 -0.096436 1.123697
v -0.126000 -0.052191 1.123697
v -0.136381 0.000000 1.123697
v -0.126000 0.052191 1.123697
v -0.096436 0.096436 1.123697
v -0.052191 0.126000 1.123697
v 0.040335 0.097377 1.123697
v 0.000000 0.105400 1.123697
v 0.074529 0.074529 1.123697
v 0.097377 0.040335 1.123697
v 0.105400 0.000000 1.123697
v 0.097377 -0.040335 1.123697
v 0.074529 -0.074529 1.123697
v 0.040335 -0.097377 1.123697
v 0.000000 -0.105400 1.123697
v -0.040335 -0.097377 1.123697
v -0.074529 -0.074529 1.123697
v -0.097377 -0.040335 1.123697
v -0.105400 0.000000 1.123697
v -0.097377 0.040335 1.123697
v -0.074529 0.074529 1.123697
v -0.040335 0.097377 1.123697
v 0.029014 0.070045 0.949567
v -0.000000 0.075817 0.949567
v 0.053610 0.053610 0.949567
v 0.070045 0.029014 0.949567
v 0.075816 0.000000 0.949567
v 0.070045 -0.029014 0.949567
v 0.053610 -0.053610 0.949567
v 0.029014 -0.070045 0.949567
v -0.000000 -0.075817 0.949567
v -0.029014 -0.070045 0.949567
v -0.053611 -0.053610 0.949567
v -0.070045 -0.029014 0.949567
v -0.075817 0.000000 0.949567
v -0.070045 0.029014 0.949567
v -0.053611 0.053610 0.949567
v -0.029014 0.070045 0.949567
v 0.045550 0.109969 0.162729
v -0.000000 0.119029 0.162729
v 0.084166 0.084166 0.162729
v 0.109969 0.045550 0.162729
v 0.119029 -0.000000 0.162729
v 0.109969 -0.045551 0.162729
v 0.084166 -0.084166 0.162729
v 0.045550 -0.109969 0.162729
v -0.000000 -0.119029 0.162729
v -0.045550 -0.109969 0.162729
v -0.084166 -0.084166 0.162729
v -0.109969 -0.045551 0.162729
v -0.119029 -0.000000 0.162729
v -0.109969 0.045550 0.162729
v -0.084166 0.084166 0.162729
v -0.045550 0.109969 0.162729
vt 0.572127 0.869934
vt 0.572127 0.858681
vt 0.642649 0.859665
vt 0.642649 0.870159
vt 0.638308 0.541087
vt 0.648867 0.551646
vt 0.654581 0.565443
vt 0.654581 0.580375
vt 0.648867 0.594172
vt 0.638308 0.604731
vt 0.624511 0.610445
vt 0.609579 0.610445
vt 0.595783 0.604731
vt 0.585223 0.594172
vt 0.579509 0.580375
vt 0.579509 0.565443
vt 0.585223 0.551646
vt 0.595783 0.541087
vt 0.609579 0.535373
vt 0.624511 0.535373
vt 0.642649 0.849360
vt 0.642649 0.838789
vt 0.649919 0.839317
vt 0.649919 0.849763
vt 0.572127 0.971942
vt 0.572127 0.960538
vt 0.642649 0.956187
vt 0.642649 0.967350
vt 0.572127 0.881204
vt 0.642649 0.880764
vt 0.572127 0.982832
vt 0.642649 0.979476
vt 0.572127 0.903811
vt 0.572127 0.892496
vt 0.642649 0.891449
vt 0.642649 0.902212
vt 0.572127 0.813591
vt 0.572127 0.802244
vt 0.642649 0.806293
vt 0.642649 0.817404
vt 0.572127 0.915148
vt 0.642649 0.913089
vt 0.572127 0.824891
vt 0.642649 0.828010
vt 0.572127 0.926499
vt 0.642649 0.924148
vt 0.572127 0.836170
vt 0.642649 0.838789
vt 0.572127 0.937847
vt 0.642649 0.934920
vt 0.572127 0.847434
vt 0.642649 0.849360
vt 0.572127 0.949184
vt 0.642649 0.945427
vt 0.429158 0.631384
vt 0.427108 0.619024
vt 0.480449 0.611963
vt 0.481923 0.620853
vt 0.642649 0.945427
vt 0.642649 0.934920
vt 0.649919 0.934783
vt 0.649919 0.944990
vt 0.642649 0.859665
vt 0.649919 0.859877
vt 0.642649 0.956187
vt 0.649919 0.955363
vt 0.642649 0.870159
vt 0.649919 0.870262
vt 0.642649 0.967350
vt 0.649919 0.965735
vt 0.642649 0.880764
vt 0.649919 0.880784
vt 0.642649 0.979476
vt 0.649919 0.975876
vt 0.642649 0.902212
vt 0.642649 0.891449
vt 0.649919 0.891389
vt 0.649919 0.902070
vt 0.642649 0.817404
vt 0.642649 0.806293
vt 0.649919 0.809518
vt 0.649919 0.818713
vt 0.642649 0.913089
vt 0.649919 0.912878
vt 0.642649 0.828010
vt 0.649919 0.828682
vt 0.642649 0.924148
vt 0.649919 0.923969
vt 0.640419 0.500406
vt 0.640419 0.509418
vt 0.636971 0.517744
vt 0.630598 0.524116
vt 0.622273 0.527565
vt 0.613261 0.527565
vt 0.604935 0.524116
vt 0.598563 0.517744
vt 0.595114 0.509418
vt 0.595114 0.500406
vt 0.598563 0.492080
vt 0.604935 0.485708
vt 0.613261 0.482260
vt 0.622273 0.482260
vt 0.630598 0.485708
vt 0.636971 0.492080
vt 0.435543 0.532485
vt 0.439940 0.520754
vt 0.489679 0.541275
vt 0.486516 0.549713
vt 0.432010 0.643583
vt 0.483975 0.629628
vt 0.431921 0.544478
vt 0.483911 0.558340
vt 0.435653 0.655570
vt 0.486595 0.638251
vt 0.429091 0.556683
vt 0.481875 0.567119
vt 0.440071 0.667293
vt 0.489773 0.646684
vt 0.427064 0.569046
vt 0.480417 0.576012
vt 0.445245 0.678703
vt 0.493495 0.654891
vt 0.425849 0.581515
vt 0.479543 0.584981
vt 0.451153 0.689750
vt 0.497745 0.662838
vt 0.425450 0.594036
vt 0.479256 0.593989
vt 0.457771 0.700388
vt 0.502505 0.670489
vt 0.425871 0.606558
vt 0.479559 0.602995
vt 0.445094 0.509335
vt 0.493386 0.533061
vt 0.606190 0.710356
vt 0.616630 0.711498
vt 0.612065 0.747961
vt 0.602762 0.746944
vt 0.553737 0.709539
vt 0.564228 0.709049
vt 0.565372 0.745779
vt 0.556024 0.746216
vt 0.512079 0.714755
vt 0.522428 0.712965
vt 0.528126 0.749268
vt 0.518905 0.750863
vt 0.637378 0.714755
vt 0.647665 0.716866
vt 0.639719 0.752744
vt 0.630552 0.750863
vt 0.595720 0.709539
vt 0.593433 0.746216
vt 0.543267 0.710356
vt 0.546694 0.746944
vt 0.501791 0.716866
vt 0.509738 0.752744
vt 0.627029 0.712965
vt 0.621331 0.749268
vt 0.585229 0.709049
vt 0.584085 0.745779
vt 0.532827 0.711498
vt 0.537392 0.747961
vt 0.491574 0.719296
vt 0.500634 0.754910
vt 0.574728 0.708885
vt 0.574728 0.745633
vt 0.657882 0.719296
vt 0.648822 0.754910
vt 0.545656 0.782928
vt 0.545656 0.792286
vt 0.542075 0.800931
vt 0.535458 0.807548
vt 0.526812 0.811129
vt 0.517455 0.811129
vt 0.508809 0.807548
vt 0.502192 0.800931
vt 0.498611 0.792286
vt 0.498611 0.782928
vt 0.502192 0.774282
vt 0.508809 0.767665
vt 0.517455 0.764084
vt 0.526812 0.764084
vt 0.535458 0.767665
vt 0.542075 0.774282
vt 0.520033 0.844632
vt 0.525301 0.844632
vt 0.525301 0.978368
vt 0.520033 0.978368
vt 0.514766 0.844632
vt 0.514766 0.978368
vt 0.488429 0.844632
vt 0.493696 0.844632
vt 0.493696 0.978368
vt 0.488429 0.978368
vt 0.509498 0.844632
vt 0.509499 0.978368
vt 0.504231 0.844632
vt 0.504231 0.978368
vt 0.530568 0.844632
vt 0.530568 0.978368
vt 0.498964 0.844632
vt 0.498964 0.978368
vt 0.520033 0.844632
vt 0.525301 0.844632
vt 0.525301 0.978368
vt 0.520033 0.978368
vt 0.514766 0.844632
vt 0.514766 0.978368
vt 0.488429 0.844632
vt 0.493696 0.844632
vt 0.493696 0.978368
vt 0.488429 0.978368
vt 0.509498 0.844632
vt 0.509499 0.978368
vt 0.504231 0.844632
vt 0.504231 0.978368
vt 0.530568 0.844632
vt 0.530568 0.978368
vt 0.498964 0.844632
vt 0.498964 0.978368
vt 0.520033 0.844632
vt 0.525301 0.844632
vt 0.525301 0.978368
vt 0.520033 0.978368
vt 0.514766 0.844632
vt 0.514766 0.978368
vt 0.488429 0.844632
vt 0.493696 0.844632
vt 0.493696 0.978368
vt 0.488429 0.978368
vt 0.509498 0.844632
vt 0.509499 0.978368
vt 0.504231 0.844632
vt 0.504231 0.978368
vt 0.530568 0.844632
vt 0.530568 0.978368
vt 0.498964 0.844632
vt 0.498964 0.978368
vn -0.7067 0.7067 -0.0329
vn -0.9234 0.3825 -0.0329
vn 0.0000 0.0000 -1.0000
vn 0.0000 0.0000 1.0000
vn 0.3825 -0.9234 -0.0329
vn 0.7067 -0.7067 -0.0329
vn -0.3825 0.9234 -0.0329
vn 0.0000 -0.9995 -0.0329
vn 0.3825 0.9234 -0.0329
vn 0.0000 0.9995 -0.0329
vn -0.3825 -0.9234 -0.0329
vn 0.7067 0.7067 -0.0329
vn -0.7067 -0.7067 -0.0329
vn 0.9234 0.3825 -0.0329
vn -0.9234 -0.3825 -0.0329
vn 0.9995 0.0000 -0.0329
vn -0.9995 0.0000 -0.0329
vn 0.9234 -0.3825 -0.0329
vn -0.6971 -0.6971 0.1675
vn -0.3773 -0.9108 0.1675
vn 0.6971 0.6971 0.1675
vn 0.3773 0.9108 0.1675
vn -0.9108 -0.3773 0.1675
vn 0.9108 0.3773 0.1675
vn -0.9859 0.0000 0.1675
vn 0.9859 0.0000 0.1675
vn -0.9108 0.3773 0.1675
vn 0.9108 -0.3773 0.1675
vn -0.6971 0.6971 0.1675
vn 0.6971 -0.6971 0.1675
vn -0.3773 0.9108 0.1675
vn 0.3773 -0.9108 0.1675
vn 0.0000 0.9859 0.1675
vn 0.0000 -0.9859 0.1675
vn -0.9209 0.3815 0.0798
vn -0.9968 0.0000 0.0798
vn 0.7048 0.7048 0.0798
vn 0.3815 0.9209 0.0798
vn 0.7048 -0.7048 0.0798
vn 0.9209 -0.3815 0.0798
vn -0.7048 -0.7048 0.0798
vn -0.3815 -0.9209 0.0798
vn -0.7048 0.7048 0.0798
vn 0.9209 0.3815 0.0798
vn 0.3815 -0.9209 0.0798
vn -0.9209 -0.3815 0.0798
vn -0.3815 0.9209 0.0798
vn 0.9968 0.0000 0.0798
vn 0.0000 -0.9968 0.0798
vn 0.0000 0.9968 0.0798
vn 0.5000 0.8660 0.0000
vn -0.2588 0.9659 0.0000
vn 0.9659 0.2588 0.0000
vn -0.8660 0.5000 0.0000
vn -0.9659 -0.2588 0.0000
vn 0.8660 -0.5000 0.0000
vn 0.2588 -0.9659 0.0000
vn -0.5000 -0.8660 0.0000
vn 0.5000 -0.8660 0.0000
vn 0.9659 -0.2588 0.0000
vn -0.2588 -0.9659 0.0000
vn 0.8660 0.5000 0.0000
vn 0.2588 0.9659 0.0000
vn -0.8660 -0.5000 0.0000
vn -0.9659 0.2588 0.0000
vn -0.5000 0.8660 0.0000
vn -1.0000 0.0000 0.0000
vn -0.7071 -0.7071 0.0000
vn -0.7071 0.7071 0.0000
vn 0.0000 -1.0000 0.0000
vn 0.7071 -0.7071 0.0000
vn 0.0000 1.0000 0.0000
vn 0.7071 0.7071 0.0000
vn 1.0000 0.0000 0.0000
usemtl Material
s 1
f 159/1/1 14/2/2 174/3/2 175/4/1
f 160/5/3 146/6/3 145/7/3 147/8/3 148/9/3 149/10/3 150/11/3 151/12/3 152/13/3 153/14/3 154/15/3 155/16/3 156/17/3 157/18/3 158/19/3 15/20/3
f 173/21/4 28/22/4 188/23/4 189/24/4
f 8/25/5 7/26/6 167/27/6 168/28/5
f 16/29/7 159/1/1 175/4/1 176/30/7
f 9/31/8 8/25/5 168/28/5 169/32/8
f 1/33/9 2/34/10 162/35/10 161/36/9
f 2/34/10 16/29/7 176/30/7 162/35/10
f 10/37/11 9/38/8 169/39/8 170/40/11
f 3/41/12 1/33/9 161/36/9 163/42/12
f 11/43/13 10/37/11 170/40/11 171/44/13
f 4/45/14 3/41/12 163/42/12 164/46/14
f 12/47/15 11/43/13 171/44/13 172/48/15
f 5/49/16 4/45/14 164/46/14 165/50/16
f 13/51/17 12/47/15 172/48/15 29/52/17
f 6/53/18 5/49/16 165/50/16 166/54/18
f 14/2/2 13/51/17 29/52/17 174/3/2
f 7/26/6 6/53/18 166/54/18 167/27/6
f 179/55/19 33/56/20 49/57/20 195/58/19
f 22/59/4 21/60/4 181/61/4 182/62/4
f 30/63/4 173/21/4 189/24/4 190/64/4
f 23/65/4 22/59/4 182/62/4 183/66/4
f 31/67/4 30/63/4 190/64/4 191/68/4
f 24/69/4 23/65/4 183/66/4 184/70/4
f 32/71/4 31/67/4 191/68/4 192/72/4
f 25/73/4 24/69/4 184/70/4 185/74/4
f 17/75/4 18/76/4 178/77/4 177/78/4
f 18/76/4 32/71/4 192/72/4 178/77/4
f 26/79/4 25/80/4 185/81/4 186/82/4
f 19/83/4 17/75/4 177/78/4 35/84/4
f 27/85/4 26/79/4 186/82/4 187/86/4
f 20/87/4 19/83/4 35/84/4 180/88/4
f 28/22/4 27/85/4 187/86/4 188/23/4
f 21/60/4 20/87/4 180/88/4 181/61/4
f 193/89/4 194/90/4 208/91/4 207/92/4 206/93/4 205/94/4 204/95/4 203/96/4 202/97/4 201/98/4 200/99/4 199/100/4 198/101/4 197/102/4 196/103/4 51/104/4
f 43/105/21 42/106/22 58/107/22 59/108/21
f 36/109/23 179/55/19 195/58/19 52/110/23
f 44/111/24 43/105/21 59/108/21 60/112/24
f 37/113/25 36/109/23 52/110/23 53/114/25
f 45/115/26 44/111/24 60/112/24 61/116/26
f 38/117/27 37/113/25 53/114/25 54/118/27
f 46/119/28 45/115/26 61/116/26 62/120/28
f 39/121/29 38/117/27 54/118/27 55/122/29
f 47/123/30 46/119/28 62/120/28 63/124/30
f 40/125/31 39/121/29 55/122/29 56/126/31
f 48/127/32 47/123/30 63/124/30 64/128/32
f 41/129/33 40/125/31 56/126/31 57/130/33
f 33/56/20 34/131/34 50/132/34 49/57/20
f 34/131/34 48/127/32 64/128/32 50/132/34
f 42/106/22 41/133/33 57/134/33 58/107/22
f 78/135/35 77/136/36 221/137/36 222/138/35
f 67/139/37 65/140/38 209/141/38 211/142/37
f 71/143/39 70/144/40 214/145/40 215/146/39
f 75/147/41 74/148/42 218/149/42 219/150/41
f 79/151/43 78/135/35 222/138/35 223/152/43
f 68/153/44 67/139/37 211/142/37 212/154/44
f 72/155/45 71/143/39 215/146/39 216/156/45
f 76/157/46 75/147/41 219/150/41 220/158/46
f 80/159/47 79/151/43 223/152/43 224/160/47
f 69/161/48 68/153/44 212/154/44 213/162/48
f 73/163/49 72/155/45 216/156/45 217/164/49
f 77/136/36 76/157/46 220/158/46 221/137/36
f 65/140/38 66/165/50 210/166/50 209/141/38
f 66/165/50 80/159/47 224/160/47 210/166/50
f 70/144/40 69/161/48 213/162/48 214/145/40
f 74/148/42 73/167/49 217/168/49 218/149/42
f 83/169/4 81/170/4 82/171/4 96/172/4 95/173/4 94/174/4 93/175/4 92/176/4 91/177/4 90/178/4 89/179/4 88/180/4 87/181/4 86/182/4 85/183/4 84/184/4
f 103/185/51 102/186/52 110/187/52 111/188/51
f 104/189/53 103/185/51 111/188/51 112/190/53
f 101/191/54 99/192/55 108/193/55 109/194/54
f 98/195/56 104/189/53 112/190/53 105/196/56
f 97/197/57 98/195/56 105/196/56 106/198/57
f 102/186/52 101/199/54 109/200/54 110/187/52
f 99/192/55 100/201/58 107/202/58 108/193/55
f 97/197/57 106/198/57 107/202/58 100/201/58
f 119/203/59 118/204/60 126/205/60 127/206/59
f 120/207/61 119/203/59 127/206/59 128/208/61
f 117/209/62 115/210/63 124/211/63 125/212/62
f 114/213/64 120/207/61 128/208/61 121/214/64
f 113/215/65 114/213/64 121/214/64 122/216/65
f 118/204/60 117/217/62 125/218/62 126/205/60
f 115/210/63 116/219/66 123/220/66 124/211/63
f 113/215/65 122/216/65 123/220/66 116/219/66
f 135/221/67 134/222/68 142/223/68 143/224/67
f 136/225/69 135/221/67 143/224/67 144/226/69
f 133/227/70 131/228/71 140/229/71 141/230/70
f 130/231/72 136/225/69 144/226/69 137/232/72
f 129/233/73 130/231/72 137/232/72 138/234/73
f 134/222/68 133/235/70 141/236/70 142/223/68
f 131/228/71 132/237/74 139/238/74 140/229/71
f 129/233/73 138/234/73 139/238/74 132/237/74
