# Blender v2.79 (sub 0) OBJ File: 'PipesExport.blend'
# www.blender.org
mtllib PipeDamaged.mtl
o PipeDamaged_Cylinder.045
v -0.239265 0.387473 -0.940020
v -0.283003 0.263728 0.026432
v -0.269028 0.377433 1.024851
v -0.367628 0.295122 -0.936680
v -0.428909 0.209861 0.022406
v -0.381344 0.244927 1.018575
v -0.477404 0.153944 -0.944286
v -0.571799 0.131390 0.016220
v -0.495430 0.160021 1.007483
v -0.528030 -0.006002 -0.953405
v -0.611047 -0.009293 0.007162
v -0.528199 -0.003208 0.985433
v -0.494386 -0.168376 -0.969936
v -0.566821 -0.171968 -0.001230
v -0.483519 -0.168634 0.962189
v -0.368399 -0.315398 -0.972388
v -0.468144 -0.324987 -0.007674
v -0.368257 -0.315841 0.960744
v -0.214667 -0.414187 -0.972376
v -0.315078 -0.431072 -0.006924
v -0.190087 -0.414342 0.960458
v -0.035633 -0.449910 -0.972021
v -0.135749 -0.474380 -0.006299
v -0.006781 -0.450331 0.961862
v 0.145271 -0.417342 -0.971372
v 0.049350 -0.441721 -0.002728
v 0.164418 -0.422082 0.971892
v 0.290421 -0.319420 -0.972373
v 0.193019 -0.359520 0.001116
v 0.289136 -0.334777 0.987863
v 0.386180 -0.172869 -0.973377
v 0.285652 -0.226034 0.004738
v 0.359323 -0.202643 0.993048
v 0.394349 -0.021602 -0.971296
v 0.312908 -0.063658 0.009051
v 0.373458 -0.039536 1.001231
v 0.334980 0.133908 -0.969863
v 0.243645 0.082472 0.013340
v 0.321206 0.125372 1.009782
v 0.254465 0.276869 -0.961378
v 0.082518 0.170221 0.019078
v 0.195793 0.219685 1.022931
v 0.125274 0.377276 -0.954295
v -0.044344 0.244995 0.026260
v 0.073528 0.356483 1.032780
v -0.100218 0.403732 1.029104
v -0.152589 0.283664 0.029430
v -0.063881 0.413047 -0.942474
v -0.175521 0.417342 -1.926170
v -0.175521 0.417342 1.926169
v -0.324321 0.319420 -1.926170
v -0.324321 0.319420 1.926170
v -0.423746 0.172869 -1.926170
v -0.423746 0.172869 1.926170
v -0.458659 -0.000000 -1.926170
v -0.458659 0.000000 1.926170
v -0.423746 -0.172869 -1.926170
v -0.423746 -0.172869 1.926170
v -0.324321 -0.319420 -1.926170
v -0.324321 -0.319420 1.926170
v -0.175521 -0.417342 -1.926170
v -0.175521 -0.417342 1.926170
v 0.000000 -0.451728 -1.926170
v 0.000000 -0.451728 1.926170
v 0.175522 -0.417342 -1.926169
v 0.175522 -0.417342 1.926170
v 0.317088 -0.319420 -1.928151
v 0.324321 -0.319420 1.926170
v 0.411559 -0.172869 -1.929509
v 0.423746 -0.172869 1.926170
v 0.444072 -0.000000 -1.930166
v 0.458660 -0.000000 1.926170
v 0.408522 0.172869 -1.930341
v 0.423746 0.172869 1.926170
v 0.310151 0.319420 -1.930052
v 0.324321 0.319420 1.926170
v 0.164295 0.417342 -1.929246
v 0.175521 0.417342 1.926169
v 0.000000 0.451728 1.926170
v -0.004714 0.451728 -1.927462
v -0.191341 0.461940 -1.940382
v -0.191341 0.461940 1.940381
v -0.353553 0.353553 -1.940382
v -0.353553 0.353554 1.940382
v -0.461940 0.191342 -1.940382
v -0.461940 0.191342 1.940382
v -0.500000 -0.000000 -1.940382
v -0.500000 0.000000 1.940382
v -0.461940 -0.191342 -1.940382
v -0.461940 -0.191342 1.940382
v -0.353553 -0.353554 -1.940382
v -0.353553 -0.353554 1.940382
v -0.191342 -0.461940 -1.940382
v -0.191342 -0.461940 1.940382
v 0.000000 -0.500000 -1.940382
v 0.000000 -0.500000 1.940382
v 0.191342 -0.461940 -1.940381
v 0.191342 -0.461940 1.940382
v 0.351328 -0.353553 -1.940991
v 0.353553 -0.353553 1.940382
v 0.451448 -0.191342 -1.943256
v 0.461940 -0.191342 1.940382
v 0.486572 -0.000000 -1.944060
v 0.500000 -0.000000 1.940382
v 0.447782 0.191342 -1.944260
v 0.461940 0.191342 1.940382
v 0.340681 0.353553 -1.943908
v 0.353553 0.353553 1.940382
v 0.182167 0.461940 -1.942895
v 0.191342 0.461940 1.940381
v 0.000000 0.500000 1.940382
v 0.000000 0.500000 -1.940382
v -0.191341 0.461940 2.000000
v -0.191341 0.461940 -2.000000
v -0.353553 0.353554 2.000000
v -0.353553 0.353553 -2.000000
v -0.461940 0.191342 2.000000
v -0.461940 0.191342 -2.000000
v -0.500000 0.000000 2.000000
v -0.500000 -0.000000 -2.000000
v -0.461940 -0.191342 2.000000
v -0.461940 -0.191342 -2.000000
v -0.353553 -0.353553 2.000000
v -0.353553 -0.353554 -2.000000
v -0.191342 -0.461940 2.000000
v -0.191342 -0.461940 -2.000000
v 0.000000 -0.500000 2.000000
v 0.000000 -0.500000 -2.000000
v 0.191342 -0.461940 2.000000
v 0.191342 -0.461940 -2.000000
v 0.353553 -0.353553 2.000000
v 0.353553 -0.353553 -2.000000
v 0.461940 -0.191342 2.000000
v 0.458943 -0.191342 -2.000821
v 0.500000 0.000000 2.000000
v 0.491313 -0.000000 -2.002380
v 0.461940 0.191342 2.000000
v 0.452221 0.191342 -2.002663
v 0.353553 0.353553 2.000000
v 0.345701 0.353553 -2.002151
v 0.191342 0.461940 2.000000
v 0.191342 0.461940 -2.000000
v 0.000000 0.500000 2.000000
v 0.000000 0.500000 -2.000000
v 0.000000 0.451728 1.926170
v 0.175521 0.417342 1.926169
v -0.004714 0.451728 -1.927462
v 0.164295 0.417342 -1.929246
v 0.324321 0.319420 1.926170
v 0.310151 0.319420 -1.930052
v 0.423746 0.172869 1.926170
v 0.408522 0.172869 -1.930341
v 0.458660 -0.000000 1.926170
v 0.444072 -0.000000 -1.930166
v 0.423746 -0.172869 1.926170
v 0.411559 -0.172869 -1.929509
v 0.324321 -0.319420 1.926170
v 0.317088 -0.319420 -1.928151
v 0.175522 -0.417342 1.926170
v 0.175522 -0.417342 -1.926169
v 0.000000 -0.451728 1.926170
v 0.000000 -0.451728 -1.926170
v -0.175521 -0.417342 1.926170
v -0.175521 -0.417342 -1.926170
v -0.324321 -0.319420 1.926170
v -0.324321 -0.319420 -1.926170
v -0.423746 -0.172869 1.926170
v -0.423746 -0.172869 -1.926170
v -0.458659 0.000000 1.926170
v -0.458659 -0.000000 -1.926170
v -0.423746 0.172869 1.926170
v -0.423746 0.172869 -1.926170
v -0.324321 0.319420 1.926170
v -0.324321 0.319420 -1.926170
v -0.175521 0.417342 1.926169
v -0.175521 0.417342 -1.926170
v 0.000000 0.500000 1.940382
v 0.191342 0.461940 1.940381
v 0.000000 0.500000 -1.940382
v 0.182167 0.461940 -1.942895
v 0.353553 0.353553 1.940382
v 0.340681 0.353553 -1.943908
v 0.461940 0.191342 1.940382
v 0.447782 0.191342 -1.944260
v 0.500000 -0.000000 1.940382
v 0.486572 -0.000000 -1.944060
v 0.461940 -0.191342 1.940382
v 0.451448 -0.191342 -1.943256
v 0.353553 -0.353553 1.940382
v 0.351328 -0.353553 -1.940991
v 0.191342 -0.461940 1.940382
v 0.191342 -0.461940 -1.940381
v 0.000000 -0.500000 1.940382
v 0.000000 -0.500000 -1.940382
v -0.191342 -0.461940 1.940382
v -0.191342 -0.461940 -1.940382
v -0.353553 -0.353554 1.940382
v -0.353553 -0.353554 -1.940382
v -0.461940 -0.191342 1.940382
v -0.461940 -0.191342 -1.940382
v -0.500000 0.000000 1.940382
v -0.500000 -0.000000 -1.940382
v -0.461940 0.191342 1.940382
v -0.461940 0.191342 -1.940382
v -0.353553 0.353554 1.940382
v -0.353553 0.353553 -1.940382
v -0.191341 0.461940 1.940381
v -0.191341 0.461940 -1.940382
v 0.000000 0.500000 2.000000
v -0.191341 0.461940 2.000000
v -0.191341 0.461940 -2.000000
v 0.000000 0.500000 -2.000000
v -0.353553 0.353554 2.000000
v -0.353553 0.353553 -2.000000
v -0.461940 0.191342 2.000000
v -0.461940 0.191342 -2.000000
v -0.500000 0.000000 2.000000
v -0.500000 -0.000000 -2.000000
v -0.461940 -0.191342 2.000000
v -0.461940 -0.191342 -2.000000
v -0.353553 -0.353553 2.000000
v -0.353553 -0.353554 -2.000000
v -0.191342 -0.461940 2.000000
v -0.191342 -0.461940 -2.000000
v 0.000000 -0.500000 2.000000
v 0.000000 -0.500000 -2.000000
v 0.191342 -0.461940 2.000000
v 0.191342 -0.461940 -2.000000
v 0.353553 -0.353553 2.000000
v 0.353553 -0.353553 -2.000000
v 0.461940 -0.191342 2.000000
v 0.458943 -0.191342 -2.000821
v 0.500000 0.000000 2.000000
v 0.491313 -0.000000 -2.002380
v 0.461940 0.191342 2.000000
v 0.452221 0.191342 -2.002663
v 0.353553 0.353553 2.000000
v 0.345701 0.353553 -2.002151
v 0.191342 0.461940 2.000000
v 0.191342 0.461940 -2.000000
vt 0.853699 0.786779
vt 0.857542 0.891146
vt 0.840611 0.892968
vt 0.839193 0.787071
vt 0.855748 0.686496
vt 0.838479 0.684679
vt 0.856912 0.588359
vt 0.839530 0.586804
vt 0.870081 0.786286
vt 0.874735 0.888541
vt 0.871154 0.688511
vt 0.874734 0.589901
vt 0.886652 0.785919
vt 0.888800 0.885853
vt 0.888892 0.689487
vt 0.892363 0.591362
vt 0.901132 0.785051
vt 0.905457 0.882539
vt 0.905730 0.689785
vt 0.909856 0.592496
vt 0.917634 0.784104
vt 0.922683 0.879684
vt 0.922358 0.688692
vt 0.927411 0.593109
vt 0.935361 0.783573
vt 0.941504 0.879396
vt 0.941727 0.688507
vt 0.945019 0.593228
vt 0.953478 0.783748
vt 0.961921 0.879552
vt 0.959984 0.688355
vt 0.962729 0.593124
vt 0.971578 0.783834
vt 0.980521 0.880060
vt 0.978127 0.688028
vt 0.980550 0.592918
vt 0.718954 0.783775
vt 0.723279 0.884485
vt 0.705917 0.881931
vt 0.699772 0.783455
vt 0.721031 0.684314
vt 0.702626 0.685672
vt 0.716934 0.588605
vt 0.699034 0.589927
vt 0.736352 0.784123
vt 0.738474 0.887400
vt 0.738488 0.682875
vt 0.734171 0.587225
vt 0.753856 0.784408
vt 0.753555 0.889076
vt 0.755892 0.681555
vt 0.751681 0.586044
vt 0.771950 0.784678
vt 0.770177 0.890815
vt 0.770885 0.680970
vt 0.769305 0.585102
vt 0.789882 0.784634
vt 0.787828 0.892183
vt 0.787390 0.680689
vt 0.786972 0.584549
vt 0.810061 0.785591
vt 0.803835 0.893197
vt 0.803505 0.681293
vt 0.804612 0.584752
vt 0.826359 0.786447
vt 0.822493 0.894364
vt 0.819645 0.682334
vt 0.822195 0.585522
vt 0.471146 0.245349
vt 0.489415 0.252576
vt 0.486510 0.257009
vt 0.469962 0.250283
vt 0.510834 0.284393
vt 0.510931 0.303688
vt 0.506467 0.303091
vt 0.506220 0.285699
vt 0.434897 0.335704
vt 0.420992 0.321837
vt 0.425043 0.318785
vt 0.437801 0.331273
vt 0.420980 0.321843
vt 0.413487 0.303890
vt 0.418101 0.302584
vt 0.425029 0.318790
vt 0.490372 0.335002
vt 0.472632 0.342622
vt 0.471987 0.337869
vt 0.488044 0.331143
vt 0.451678 0.245633
vt 0.452322 0.250386
vt 0.503675 0.321325
vt 0.500097 0.318974
vt 0.413382 0.284594
vt 0.417846 0.285189
vt 0.503677 0.321327
vt 0.500099 0.318977
vt 0.433941 0.253257
vt 0.436270 0.257116
vt 0.490368 0.334998
vt 0.488041 0.331138
vt 0.420628 0.266952
vt 0.424208 0.269301
vt 0.510930 0.303689
vt 0.506466 0.303092
vt 0.420640 0.266939
vt 0.424221 0.269288
vt 0.472627 0.342616
vt 0.471983 0.337863
vt 0.433928 0.253271
vt 0.436258 0.257130
vt 0.839118 0.983572
vt 0.821235 0.985105
vt 0.803459 0.986052
vt 0.785754 0.985849
vt 0.768148 0.985056
vt 0.750550 0.983722
vt 0.732840 0.982103
vt 0.714958 0.980416
vt 0.696987 0.978740
vt 0.980550 0.976319
vt 0.962697 0.976196
vt 0.944965 0.976119
vt 0.927352 0.976290
vt 0.909800 0.976891
vt 0.892251 0.978042
vt 0.874767 0.979845
vt 0.856953 0.981709
vt 0.471138 0.245360
vt 0.489416 0.252577
vt 0.486513 0.257011
vt 0.469955 0.250296
vt 0.431123 0.341208
vt 0.434897 0.335704
vt 0.453169 0.342921
vt 0.451842 0.349427
vt 0.453169 0.342921
vt 0.454351 0.337987
vt 0.472632 0.342622
vt 0.473883 0.349080
vt 0.434890 0.335700
vt 0.437793 0.331267
vt 0.490372 0.335002
vt 0.493947 0.340439
vt 0.413500 0.303880
vt 0.418114 0.302574
vt 0.503677 0.321327
vt 0.509022 0.324983
vt 0.503331 0.266437
vt 0.499281 0.269491
vt 0.510930 0.303689
vt 0.517297 0.305056
vt 0.503327 0.266438
vt 0.499277 0.269492
vt 0.510831 0.284393
vt 0.517304 0.283216
vt 0.451667 0.245646
vt 0.452311 0.250400
vt 0.503327 0.266438
vt 0.508912 0.262840
vt 0.489415 0.252576
vt 0.493188 0.247073
vt 0.453164 0.342913
vt 0.454346 0.337979
vt 0.471146 0.245349
vt 0.472477 0.238843
vt 0.413395 0.284582
vt 0.417860 0.285177
vt 0.451678 0.245633
vt 0.450429 0.239174
vt 0.433941 0.253257
vt 0.430363 0.247821
vt 0.510831 0.284393
vt 0.506218 0.285701
vt 0.420640 0.266939
vt 0.415294 0.263285
vt 0.413395 0.284582
vt 0.407028 0.283217
vt 0.413500 0.303880
vt 0.407028 0.305056
vt 0.420992 0.321837
vt 0.415406 0.325432
vt 0.574900 0.346936
vt 0.556787 0.339434
vt 0.542924 0.325570
vt 0.535421 0.307457
vt 0.535421 0.287851
vt 0.542924 0.269738
vt 0.556787 0.255875
vt 0.574900 0.248372
vt 0.594506 0.248372
vt 0.612619 0.255875
vt 0.626482 0.269738
vt 0.633985 0.287851
vt 0.633985 0.307457
vt 0.626482 0.325570
vt 0.612619 0.339434
vt 0.594506 0.346936
vt 0.471138 0.245360
vt 0.472467 0.238851
vt 0.493188 0.247071
vt 0.489416 0.252577
vt 0.451667 0.245646
vt 0.450417 0.239187
vt 0.594506 0.346936
vt 0.574900 0.346936
vt 0.556787 0.339434
vt 0.542924 0.325570
vt 0.535421 0.307457
vt 0.535421 0.287852
vt 0.542924 0.269738
vt 0.556787 0.255875
vt 0.574900 0.248372
vt 0.594506 0.248372
vt 0.612619 0.255875
vt 0.626482 0.269738
vt 0.633985 0.287851
vt 0.633985 0.307457
vt 0.626482 0.325570
vt 0.612619 0.339434
vt 0.433928 0.253271
vt 0.430351 0.247835
vt 0.420628 0.266952
vt 0.415282 0.263298
vt 0.413382 0.284594
vt 0.407016 0.283229
vt 0.413487 0.303890
vt 0.407016 0.305067
vt 0.420980 0.321843
vt 0.415396 0.325439
vt 0.434890 0.335700
vt 0.431119 0.341204
vt 0.453164 0.342913
vt 0.451837 0.349420
vt 0.472627 0.342616
vt 0.473878 0.349073
vt 0.490368 0.334998
vt 0.493942 0.340435
vt 0.503675 0.321325
vt 0.509019 0.324982
vt 0.510931 0.303688
vt 0.517297 0.305056
vt 0.510834 0.284393
vt 0.517307 0.283216
vt 0.503331 0.266437
vt 0.508916 0.262838
vn -0.3533 0.9354 0.0094
vn -0.4105 0.9107 -0.0449
vn 0.0458 0.9948 -0.0903
vn 0.0548 0.9985 0.0067
vn -0.3457 0.9369 0.0519
vn 0.0341 0.9953 0.0905
vn -0.3674 0.9300 0.0087
vn 0.0199 0.9991 0.0375
vn -0.5649 0.8251 0.0056
vn -0.6364 0.7714 -0.0026
vn -0.6317 0.7752 0.0078
vn -0.6934 0.7203 -0.0174
vn -0.8373 0.5466 -0.0021
vn -0.8528 0.5202 0.0456
vn -0.8715 0.4881 -0.0461
vn -0.9014 0.4309 -0.0426
vn -1.0000 0.0042 -0.0016
vn -0.9969 -0.0204 0.0759
vn -0.9967 0.0293 -0.0752
vn -0.9974 0.0283 -0.0660
vn -0.9061 -0.4231 0.0020
vn -0.9022 -0.4257 0.0694
vn -0.9069 -0.4155 -0.0694
vn -0.9068 -0.4173 -0.0593
vn -0.6910 -0.7228 0.0013
vn -0.6761 -0.7349 0.0529
vn -0.6814 -0.7300 -0.0533
vn -0.6758 -0.7364 -0.0330
vn -0.3936 -0.9192 0.0023
vn -0.3619 -0.9316 0.0336
vn -0.3812 -0.9238 -0.0349
vn -0.3719 -0.9282 -0.0128
vn -0.0360 -0.9993 0.0002
vn -0.0077 -0.9999 0.0116
vn -0.0083 -0.9999 -0.0117
vn -0.0003 -1.0000 0.0013
vn 0.3463 -0.9381 -0.0046
vn 0.3739 -0.9274 -0.0121
vn 0.3744 -0.9272 0.0110
vn 0.3867 -0.9221 0.0124
vn 0.6944 -0.7195 -0.0045
vn 0.7211 -0.6919 -0.0347
vn 0.7085 -0.7049 0.0315
vn 0.7179 -0.6958 0.0203
vn 0.9377 -0.3472 0.0048
vn 0.9409 -0.3335 -0.0586
vn 0.9393 -0.3390 0.0525
vn 0.9396 -0.3409 0.0310
vn 0.9914 0.1305 0.0118
vn 0.9925 0.0898 -0.0832
vn 0.9910 0.1108 0.0753
vn 0.9952 0.0808 0.0553
vn 0.7967 0.6039 0.0222
vn 0.8205 0.5608 -0.1107
vn 0.8703 0.4821 0.1007
vn 0.9117 0.4037 0.0753
vn 0.6099 0.7918 0.0323
vn 0.6359 0.7607 -0.1305
vn 0.6805 0.7225 0.1220
vn 0.7321 0.6773 0.0724
vn 0.4392 0.8981 0.0212
vn 0.4583 0.8795 -0.1279
vn 0.4084 0.9050 0.1188
vn 0.4021 0.9138 0.0574
vn -0.1090 -0.2676 0.9573
vn 0.0000 -0.2839 0.9588
vn -0.1124 -0.2665 0.9572
vn 0.2117 0.2154 -0.9533
vn 0.2918 0.1230 -0.9485
vn 0.2938 0.1192 -0.9484
vn 0.2161 0.2121 -0.9530
vn 0.0108 0.2670 0.9636
vn -0.1067 0.2629 0.9589
vn -0.1103 0.2621 0.9587
vn 0.0038 0.2679 0.9634
vn -0.1090 -0.2676 -0.9573
vn -0.2117 -0.2154 -0.9533
vn -0.2161 -0.2121 -0.9530
vn -0.1124 -0.2665 -0.9572
vn 0.2806 0.1172 0.9526
vn 0.2073 0.2020 0.9572
vn 0.2105 0.1996 0.9570
vn 0.2821 0.1143 0.9525
vn -0.2117 -0.2154 0.9533
vn -0.2161 -0.2121 0.9530
vn 0.3232 0.0000 -0.9463
vn -0.2918 -0.1230 -0.9485
vn -0.2938 -0.1192 -0.9484
vn 0.3082 0.0050 0.9513
vn 0.3082 0.0056 0.9513
vn -0.2918 -0.1230 0.9485
vn -0.2938 -0.1192 0.9484
vn 0.2918 -0.1230 -0.9485
vn 0.2938 -0.1192 -0.9484
vn -0.3232 0.0000 -0.9463
vn 0.2741 -0.0997 0.9565
vn 0.2764 -0.0965 0.9562
vn -0.3232 0.0000 0.9463
vn 0.2117 -0.2154 -0.9533
vn 0.2161 -0.2121 -0.9530
vn -0.2918 0.1230 -0.9485
vn -0.2938 0.1192 -0.9484
vn 0.0421 0.9973 -0.0602
vn 0.4595 0.8797 -0.1223
vn 0.6831 0.7151 -0.1481
vn 0.8669 0.4806 -0.1322
vn 0.9937 0.0608 -0.0944
vn 0.9420 -0.3308 -0.0554
vn 0.7277 -0.6856 -0.0197
vn 0.3790 -0.9254 -0.0025
vn -0.0066 -1.0000 0.0000
vn -0.3575 -0.9339 0.0063
vn -0.6709 -0.7410 0.0270
vn -0.9047 -0.4226 0.0542
vn -0.9973 -0.0203 0.0708
vn -0.8873 0.4587 0.0471
vn -0.6971 0.7168 0.0132
vn -0.4158 0.9093 -0.0127
vn -0.1090 0.2676 -0.9573
vn 0.0000 0.2839 -0.9588
vn -0.1124 0.2665 -0.9572
vn 0.0024 0.9999 0.0080
vn 0.0015 0.9999 0.0080
vn 0.3741 0.9265 0.0410
vn 0.4102 0.9108 0.0464
vn 0.1143 0.2473 0.9622
vn 0.1153 0.2470 0.9621
vn 0.7085 0.7021 0.0701
vn 0.7196 0.6908 0.0700
vn 0.0000 -0.2839 -0.9588
vn 0.9205 0.3838 0.0734
vn 0.9232 0.3773 0.0736
vn -0.2117 0.2154 0.9533
vn -0.2161 0.2121 0.9530
vn 0.9957 0.0134 0.0917
vn 0.9957 0.0140 0.0917
vn 0.1090 0.2676 -0.9573
vn 0.1124 0.2665 -0.9572
vn 0.9265 -0.3657 0.0880
vn 0.9312 -0.3533 0.0891
vn 0.1077 -0.2564 0.9605
vn 0.1114 -0.2545 0.9606
vn 0.7131 -0.6998 0.0406
vn 0.7188 -0.6939 0.0418
vn -0.2117 0.2154 -0.9533
vn -0.2161 0.2121 -0.9530
vn 0.3840 -0.9233 0.0053
vn 0.3841 -0.9232 0.0053
vn 0.0000 -1.0000 0.0000
vn 0.1090 -0.2676 -0.9573
vn 0.1124 -0.2665 -0.9572
vn -0.3827 -0.9239 0.0000
vn -0.2918 0.1230 0.9485
vn -0.2938 0.1192 0.9484
vn -0.7071 -0.7071 0.0000
vn -0.9239 -0.3827 0.0000
vn 0.2030 -0.1850 0.9615
vn 0.2038 -0.1842 0.9615
vn -1.0000 0.0000 0.0000
vn -0.9239 0.3827 0.0000
vn -0.7071 0.7071 0.0000
vn -0.3827 0.9239 0.0000
vn -0.0018 -0.0005 -1.0000
vn 0.0000 1.0000 0.0000
vn 0.0000 0.0000 1.0000
vn 0.3827 -0.9239 0.0000
vn 0.7071 -0.7071 0.0000
vn 0.9239 -0.3827 0.0000
vn 1.0000 0.0000 0.0000
vn 0.9239 0.3827 0.0000
vn 0.7071 0.7071 0.0000
vn 0.3827 0.9239 0.0000
usemtl UV
s 1
f 2/1/1 3/2/2 46/3/3 47/4/4
f 1/5/5 2/1/1 47/4/4 48/6/6
f 176/7/7 1/5/5 48/6/6 147/8/8
f 5/9/9 6/10/10 3/2/2 2/1/1
f 4/11/11 5/9/9 2/1/1 1/5/5
f 174/12/12 4/11/11 1/5/5 176/7/7
f 8/13/13 9/14/14 6/10/10 5/9/9
f 7/15/15 8/13/13 5/9/9 4/11/11
f 172/16/16 7/15/15 4/11/11 174/12/12
f 11/17/17 12/18/18 9/14/14 8/13/13
f 10/19/19 11/17/17 8/13/13 7/15/15
f 55/20/20 10/19/19 7/15/15 172/16/16
f 14/21/21 15/22/22 12/18/18 11/17/17
f 13/23/23 14/21/21 11/17/17 10/19/19
f 57/24/24 13/23/23 10/19/19 55/20/20
f 17/25/25 18/26/26 15/22/22 14/21/21
f 16/27/27 17/25/25 14/21/21 13/23/23
f 59/28/28 16/27/27 13/23/23 57/24/24
f 20/29/29 21/30/30 18/26/26 17/25/25
f 19/31/31 20/29/29 17/25/25 16/27/27
f 61/32/32 19/31/31 16/27/27 59/28/28
f 23/33/33 24/34/34 21/30/30 20/29/29
f 22/35/35 23/33/33 20/29/29 19/31/31
f 162/36/36 22/35/35 19/31/31 61/32/32
f 26/37/37 27/38/38 24/39/34 23/40/33
f 25/41/39 26/37/37 23/40/33 22/42/35
f 160/43/40 25/41/39 22/42/35 162/44/36
f 29/45/41 30/46/42 27/38/38 26/37/37
f 28/47/43 29/45/41 26/37/37 25/41/39
f 67/48/44 28/47/43 25/41/39 160/43/40
f 32/49/45 33/50/46 30/46/42 29/45/41
f 31/51/47 32/49/45 29/45/41 28/47/43
f 69/52/48 31/51/47 28/47/43 67/48/44
f 35/53/49 36/54/50 33/50/46 32/49/45
f 34/55/51 35/53/49 32/49/45 31/51/47
f 71/56/52 34/55/51 31/51/47 69/52/48
f 38/57/53 39/58/54 36/54/50 35/53/49
f 37/59/55 38/57/53 35/53/49 34/55/51
f 73/60/56 37/59/55 34/55/51 71/56/52
f 41/61/57 42/62/58 39/58/54 38/57/53
f 40/63/59 41/61/57 38/57/53 37/59/55
f 150/64/60 40/63/59 37/59/55 73/60/56
f 44/65/61 45/66/62 42/62/58 41/61/57
f 43/67/63 44/65/61 41/61/57 40/63/59
f 148/68/64 43/67/63 40/63/59 150/64/60
f 47/4/4 46/3/3 45/66/62 44/65/61
f 48/6/6 47/4/4 44/65/61 43/67/63
f 147/8/8 48/6/6 43/67/63 148/68/64
f 196/69/65 194/70/66 63/71/66 164/72/67
f 181/73/68 183/74/69 74/75/70 76/76/71
f 112/77/72 208/78/73 49/79/74 80/80/75
f 195/81/76 197/82/77 60/83/78 62/84/79
f 184/85/80 182/86/81 75/87/82 152/88/83
f 198/89/84 196/69/65 164/72/67 166/90/85
f 183/74/69 185/91/86 72/92/86 74/75/70
f 197/82/77 199/93/87 58/94/88 60/83/78
f 186/95/89 184/85/80 152/88/83 154/96/90
f 200/97/91 198/89/84 166/90/85 168/98/92
f 185/91/86 187/99/93 70/100/94 72/92/86
f 199/93/87 201/101/95 56/102/95 58/94/88
f 188/103/96 186/95/89 154/96/90 156/104/97
f 202/105/98 200/97/91 168/98/92 170/106/98
f 187/99/93 189/107/99 68/108/100 70/100/94
f 201/101/95 203/109/101 54/110/102 56/102/95
f 46/3/3 145/111/103 146/112/104 45/66/62
f 45/66/62 146/112/104 149/113/105 42/62/58
f 42/62/58 149/113/105 151/114/106 39/58/54
f 39/58/54 151/114/106 153/115/107 36/54/50
f 36/54/50 153/115/107 155/116/108 33/50/46
f 33/50/46 155/116/108 157/117/109 30/46/42
f 30/46/42 157/117/109 159/118/110 27/38/38
f 27/38/38 159/118/110 161/119/111 24/39/34
f 24/34/34 161/120/111 163/121/112 21/30/30
f 21/30/30 163/121/112 165/122/113 18/26/26
f 18/26/26 165/122/113 167/123/114 15/22/22
f 15/22/22 167/123/114 169/124/115 12/18/18
f 12/18/18 169/124/115 171/125/116 9/14/14
f 9/14/14 171/125/116 173/126/117 6/10/10
f 6/10/10 173/126/117 175/127/118 3/2/2
f 3/2/2 175/127/118 145/111/103 46/3/3
f 207/128/119 177/129/120 79/130/120 50/131/121
f 212/132/122 179/133/123 180/134/124 240/135/125
f 182/86/81 109/136/126 77/137/127 75/87/82
f 240/135/125 180/134/124 107/138/128 238/139/129
f 193/140/130 195/81/76 62/84/79 64/141/130
f 238/139/129 107/138/128 105/142/131 236/143/132
f 208/78/73 206/144/133 51/145/134 49/79/74
f 236/143/132 105/142/131 103/146/135 234/147/136
f 178/148/137 181/73/68 76/76/71 78/149/138
f 234/147/136 103/146/135 101/150/139 232/151/140
f 194/70/66 97/152/141 65/153/142 63/71/66
f 232/151/140 101/150/139 99/154/143 230/155/144
f 205/156/145 207/128/119 50/131/121 52/157/146
f 230/155/144 99/154/143 192/158/147 228/159/148
f 109/136/126 112/77/72 80/80/75 77/137/127
f 228/159/148 192/158/147 95/160/149 226/161/149
f 191/162/150 193/140/130 64/141/130 66/163/151
f 226/161/149 95/160/149 93/164/152 224/165/152
f 206/144/133 85/166/153 53/167/154 51/145/134
f 224/165/152 93/164/152 91/168/155 222/169/155
f 177/129/120 178/148/137 78/149/138 79/130/120
f 222/169/155 91/168/155 89/170/156 220/171/156
f 97/152/141 190/172/157 158/173/158 65/153/142
f 220/171/156 89/170/156 87/174/159 218/175/159
f 203/109/101 205/156/145 52/157/146 54/110/102
f 218/175/159 87/174/159 204/176/160 216/177/160
f 189/107/99 191/162/150 66/163/151 68/108/100
f 216/177/160 204/176/160 83/178/161 214/179/161
f 85/166/153 202/105/98 170/106/98 53/167/154
f 214/179/161 83/178/161 81/180/162 211/181/162
f 190/172/157 188/103/96 156/104/97 158/173/158
f 211/181/162 81/180/162 179/133/123 212/132/122
f 144/182/163 142/183/163 140/184/163 138/185/163 136/186/163 134/187/163 132/188/163 130/189/163 128/190/163 126/191/163 124/192/163 122/193/163 120/194/163 118/195/163 116/196/163 114/197/163
f 82/198/162 210/199/162 209/200/164 111/201/164
f 84/202/161 213/203/161 210/199/162 82/198/162
f 141/204/165 143/205/165 113/206/165 115/207/165 117/208/165 119/209/165 121/210/165 123/211/165 125/212/165 127/213/165 129/214/165 131/215/165 133/216/165 135/217/165 137/218/165 139/219/165
f 86/220/160 215/221/160 213/203/161 84/202/161
f 88/222/159 217/223/159 215/221/160 86/220/160
f 90/224/156 219/225/156 217/223/159 88/222/159
f 92/226/155 221/227/155 219/225/156 90/224/156
f 94/228/152 223/229/152 221/227/155 92/226/155
f 96/230/149 225/231/149 223/229/152 94/228/152
f 98/232/166 227/233/166 225/231/149 96/230/149
f 100/234/167 229/235/167 227/233/166 98/232/166
f 102/236/168 231/237/168 229/235/167 100/234/167
f 104/238/169 233/239/169 231/237/168 102/236/168
f 106/240/170 235/241/170 233/239/169 104/238/169
f 108/242/171 237/243/171 235/241/170 106/240/170
f 110/244/172 239/245/172 237/243/171 108/242/171
f 111/201/164 209/200/164 239/245/172 110/244/172
