# Blender v2.79 (sub 0) OBJ File: 'PipesExport.blend'
# www.blender.org
mtllib PipePlug.mtl
o PipePlug_Cylinder.054
v 0.000000 0.500000 -0.000000
v 0.191342 0.461940 -0.000000
v 0.353553 0.353553 0.000000
v 0.461940 0.191342 0.000000
v 0.500000 -0.000000 0.000000
v 0.461940 -0.191342 0.000000
v 0.353553 -0.353553 0.000000
v 0.191342 -0.461940 0.000000
v 0.000000 -0.500000 0.000000
v -0.191342 -0.461940 0.000000
v -0.353553 -0.353554 0.000000
v -0.461940 -0.191342 0.000000
v -0.500000 -0.000000 0.000000
v -0.461940 0.191342 0.000000
v -0.353553 0.353553 0.000000
v -0.191341 0.461940 -0.000000
v 0.000000 0.500000 0.059618
v 0.191342 0.461940 0.059618
v 0.353553 0.353553 0.059618
v 0.461940 0.191342 0.059618
v 0.500000 -0.000000 0.059618
v 0.461940 -0.191342 0.059618
v 0.353553 -0.353553 0.059618
v 0.191342 -0.461940 0.059619
v 0.000000 -0.500000 0.059618
v -0.191342 -0.461940 0.059618
v -0.353553 -0.353554 0.059618
v -0.461940 -0.191342 0.059618
v -0.500000 -0.000000 0.059618
v -0.461940 0.191342 0.059618
v -0.353553 0.353553 0.059618
v -0.191341 0.461940 0.059618
v 0.000000 0.451728 0.073830
v 0.175521 0.417342 0.073830
v 0.324321 0.319420 0.073830
v 0.423746 0.172869 0.073830
v 0.458660 -0.000000 0.073830
v 0.423746 -0.172869 0.073830
v 0.324321 -0.319420 0.073830
v 0.175522 -0.417342 0.073831
v 0.000000 -0.451728 0.073830
v -0.175521 -0.417342 0.073830
v -0.324321 -0.319420 0.073830
v -0.423746 -0.172869 0.073830
v -0.458659 -0.000000 0.073830
v -0.423746 0.172869 0.073830
v -0.324321 0.319420 0.073830
v -0.175521 0.417342 0.073830
v 0.000000 0.500000 -0.000000
v 0.191342 0.461940 -0.000000
v 0.353553 0.353553 0.000000
v 0.461940 0.191342 0.000000
v 0.500000 -0.000000 0.000000
v 0.461940 -0.191342 0.000000
v 0.353553 -0.353553 0.000000
v 0.191342 -0.461940 0.000000
v 0.000000 -0.500000 0.000000
v -0.191342 -0.461940 0.000000
v -0.353553 -0.353554 0.000000
v -0.461940 -0.191342 0.000000
v -0.500000 -0.000000 0.000000
v -0.461940 0.191342 0.000000
v -0.353553 0.353553 0.000000
v -0.191341 0.461940 -0.000000
v -0.191341 0.461940 0.059618
v 0.000000 0.500000 0.059618
v -0.353553 0.353553 0.059618
v -0.461940 0.191342 0.059618
v -0.500000 -0.000000 0.059618
v -0.461940 -0.191342 0.059618
v -0.353553 -0.353554 0.059618
v -0.191342 -0.461940 0.059618
v 0.000000 -0.500000 0.059618
v 0.191342 -0.461940 0.059619
v 0.353553 -0.353553 0.059618
v 0.461940 -0.191342 0.059618
v 0.500000 -0.000000 0.059618
v 0.461940 0.191342 0.059618
v 0.353553 0.353553 0.059618
v 0.191342 0.461940 0.059618
v -0.175521 0.417342 0.073830
v 0.000000 0.451728 0.073830
v -0.324321 0.319420 0.073830
v -0.423746 0.172869 0.073830
v -0.458659 -0.000000 0.073830
v -0.423746 -0.172869 0.073830
v -0.324321 -0.319420 0.073830
v -0.175521 -0.417342 0.073830
v 0.000000 -0.451728 0.073830
v 0.175522 -0.417342 0.073831
v 0.324321 -0.319420 0.073830
v 0.423746 -0.172869 0.073830
v 0.458660 -0.000000 0.073830
v 0.423746 0.172869 0.073830
v 0.324321 0.319420 0.073830
v 0.175521 0.417342 0.073830
vt 0.574900 0.346936
vt 0.556787 0.339434
vt 0.542924 0.325570
vt 0.535421 0.307457
vt 0.535421 0.287851
vt 0.542924 0.269738
vt 0.556787 0.255875
vt 0.574900 0.248372
vt 0.594506 0.248372
vt 0.612619 0.255875
vt 0.626482 0.269738
vt 0.633985 0.287851
vt 0.633985 0.307457
vt 0.626482 0.325570
vt 0.612619 0.339434
vt 0.594506 0.346936
vt 0.415406 0.325432
vt 0.420992 0.321837
vt 0.434897 0.335704
vt 0.431123 0.341208
vt 0.510831 0.284393
vt 0.510930 0.303689
vt 0.506466 0.303092
vt 0.506218 0.285701
vt 0.407028 0.305056
vt 0.413500 0.303880
vt 0.413395 0.284582
vt 0.420640 0.266939
vt 0.424221 0.269288
vt 0.417860 0.285177
vt 0.407028 0.283217
vt 0.413395 0.284582
vt 0.415294 0.263285
vt 0.420640 0.266939
vt 0.430363 0.247821
vt 0.433941 0.253257
vt 0.503327 0.266438
vt 0.499277 0.269492
vt 0.450429 0.239174
vt 0.451678 0.245633
vt 0.472477 0.238843
vt 0.471146 0.245349
vt 0.413500 0.303880
vt 0.418114 0.302574
vt 0.493188 0.247073
vt 0.489415 0.252576
vt 0.508912 0.262840
vt 0.503327 0.266438
vt 0.453169 0.342921
vt 0.434897 0.335704
vt 0.437801 0.331273
vt 0.454351 0.337987
vt 0.517304 0.283216
vt 0.510831 0.284393
vt 0.517297 0.305056
vt 0.510930 0.303689
vt 0.489415 0.252576
vt 0.486510 0.257009
vt 0.509022 0.324983
vt 0.503677 0.321327
vt 0.493947 0.340439
vt 0.490372 0.335002
vt 0.420992 0.321837
vt 0.425043 0.318785
vt 0.473883 0.349080
vt 0.472632 0.342622
vt 0.451842 0.349427
vt 0.453169 0.342921
vt 0.472632 0.342622
vt 0.471987 0.337869
vt 0.433941 0.253257
vt 0.436270 0.257116
vt 0.503677 0.321327
vt 0.500099 0.318977
vt 0.451678 0.245633
vt 0.452322 0.250386
vt 0.490372 0.335002
vt 0.488044 0.331143
vt 0.471146 0.245349
vt 0.469962 0.250283
vt 0.425043 0.318785
vt 0.418114 0.302574
vt 0.417860 0.285177
vt 0.424221 0.269288
vt 0.436270 0.257116
vt 0.452322 0.250386
vt 0.469962 0.250283
vt 0.486510 0.257009
vt 0.499277 0.269492
vt 0.506218 0.285701
vt 0.506466 0.303092
vt 0.500099 0.318977
vt 0.488044 0.331143
vt 0.471987 0.337869
vt 0.454351 0.337987
vt 0.437801 0.331273
vn 0.0000 0.0000 -1.0000
vn -0.3827 0.9239 0.0000
vn 0.0000 1.0000 0.0000
vn 0.2117 -0.2154 0.9533
vn 0.2918 -0.1230 0.9485
vn 0.2938 -0.1192 0.9484
vn 0.2161 -0.2121 0.9530
vn -0.7071 0.7071 0.0000
vn -0.2918 0.1230 0.9485
vn -0.3232 0.0000 0.9463
vn -0.2938 0.1192 0.9484
vn -0.9239 0.3827 0.0000
vn -1.0000 0.0000 0.0000
vn -0.9239 -0.3827 0.0000
vn 0.1090 -0.2676 0.9573
vn 0.1124 -0.2665 0.9572
vn -0.7071 -0.7071 0.0000
vn -0.3827 -0.9239 0.0000
vn -0.2117 0.2154 0.9533
vn -0.2161 0.2121 0.9530
vn 0.0000 -1.0000 0.0000
vn 0.3827 -0.9239 0.0000
vn 0.1090 0.2676 0.9573
vn 0.0000 0.2839 0.9588
vn 0.1124 0.2665 0.9572
vn 0.7071 -0.7071 0.0000
vn 0.9239 -0.3827 0.0000
vn 0.0000 -0.2839 0.9588
vn 1.0000 0.0000 0.0000
vn 0.9239 0.3827 0.0000
vn -0.1090 0.2676 0.9573
vn -0.1124 0.2665 0.9572
vn 0.7071 0.7071 0.0000
vn 0.3827 0.9239 0.0000
vn 0.2117 0.2154 0.9533
vn 0.2161 0.2121 0.9530
vn -0.2918 -0.1230 0.9485
vn -0.2938 -0.1192 0.9484
vn 0.3232 0.0000 0.9463
vn -0.2117 -0.2154 0.9533
vn -0.2161 -0.2121 0.9530
vn 0.2918 0.1230 0.9485
vn 0.2938 0.1192 0.9484
vn -0.1090 -0.2676 0.9573
vn -0.1124 -0.2665 0.9572
vn 0.0000 0.0000 1.0000
usemtl UV
s 1
f 49/1/1 50/2/1 51/3/1 52/4/1 53/5/1 54/6/1 55/7/1 56/8/1 57/9/1 58/10/1 59/11/1 60/12/1 61/13/1 62/14/1 63/15/1 64/16/1
f 16/17/2 65/18/2 66/19/3 1/20/3
f 23/21/4 22/22/5 92/23/6 91/24/7
f 15/25/8 67/26/8 65/18/2 16/17/2
f 30/27/9 29/28/10 85/29/10 84/30/11
f 14/31/12 68/32/12 67/26/8 15/25/8
f 13/33/13 69/34/13 68/32/12 14/31/12
f 12/35/14 70/36/14 69/34/13 13/33/13
f 24/37/15 23/21/4 91/24/7 90/38/16
f 11/39/17 71/40/17 70/36/14 12/35/14
f 10/41/18 72/42/18 71/40/17 11/39/17
f 31/43/19 30/27/9 84/30/11 83/44/20
f 9/45/21 73/46/21 72/42/18 10/41/18
f 8/47/22 74/48/22 73/46/21 9/45/21
f 18/49/23 17/50/24 82/51/24 96/52/25
f 7/53/26 75/54/26 74/48/22 8/47/22
f 6/55/27 76/56/27 75/54/26 7/53/26
f 25/57/28 24/37/15 90/38/16 89/58/28
f 5/59/29 77/60/29 76/56/27 6/55/27
f 4/61/30 78/62/30 77/60/29 5/59/29
f 32/63/31 31/43/19 83/44/20 81/64/32
f 3/65/33 79/66/33 78/62/30 4/61/30
f 2/67/34 80/68/34 79/66/33 3/65/33
f 19/69/35 18/49/23 96/52/25 95/70/36
f 1/20/3 66/19/3 80/68/34 2/67/34
f 29/28/10 28/71/37 86/72/38 85/29/10
f 22/22/5 21/73/39 93/74/39 92/23/6
f 28/71/37 27/75/40 87/76/41 86/72/38
f 21/73/39 20/77/42 94/78/43 93/74/39
f 27/75/40 26/79/44 88/80/45 87/76/41
f 20/77/42 19/69/35 95/70/36 94/78/43
f 17/50/24 32/63/31 81/64/32 82/51/24
f 26/79/44 25/57/28 89/58/28 88/80/45
f 48/81/46 47/82/46 46/83/46 45/84/46 44/85/46 43/86/46 42/87/46 41/88/46 40/89/46 39/90/46 38/91/46 37/92/46 36/93/46 35/94/46 34/95/46 33/96/46
