# Blender v2.79 (sub 0) OBJ File: 'PipesExport.blend'
# www.blender.org
mtllib PipePillarBig.mtl
o PipePillarBig_Cylinder.013
v 0.306074 2.571159 0.039955
v 0.306074 2.571159 0.160940
v 0.306074 2.450174 0.039955
v 0.306074 2.450174 0.160940
v -0.306073 2.571159 0.039955
v -0.306073 2.571159 0.160940
v -0.306073 2.450174 0.039955
v -0.306073 2.450174 0.160940
v 0.530738 0.000000 0.293812
v 0.530738 0.000000 -0.092917
v 0.530738 0.398453 -0.092917
v 0.530738 0.398453 0.293812
v -0.306073 1.311890 0.160940
v -0.306073 1.311890 0.039955
v -0.306073 1.432875 0.160940
v -0.306073 1.432875 0.039955
v 0.134477 3.779822 0.017190
v 0.289547 0.341480 0.017190
v 0.134477 3.779822 0.183705
v 0.289547 0.341480 0.183705
v 0.300992 3.779822 0.017190
v 0.456061 0.341480 0.017190
v 0.300992 3.779822 0.183705
v 0.456061 0.341480 0.183705
v -0.530738 0.000000 0.293812
v -0.530738 0.000000 -0.092917
v -0.530738 0.398453 -0.092917
v -0.530738 0.398453 0.293812
v 0.306074 1.311890 0.160940
v 0.306074 1.311890 0.039955
v 0.306074 1.432875 0.160940
v 0.306074 1.432875 0.039955
v -0.134477 3.779822 0.017190
v -0.289547 0.341480 0.017190
v -0.134477 3.779822 0.183705
v -0.289547 0.341480 0.183705
v -0.300992 3.779822 0.017190
v -0.456061 0.341480 0.017190
v -0.300992 3.779822 0.183705
v -0.456061 0.341480 0.183705
vt 0.328566 0.535302
vt 0.246610 0.535302
vt 0.246610 0.505443
vt 0.328566 0.505443
vt 0.173241 0.509953
vt 0.173241 0.522265
vt 0.110948 0.522265
vt 0.110948 0.509953
vt 0.173241 0.534577
vt 0.173241 0.546888
vt 0.110948 0.546888
vt 0.110948 0.534577
vt 0.173241 0.559200
vt 0.110948 0.559200
vt 0.359331 0.505443
vt 0.359331 0.535302
vt 0.029450 0.779035
vt 0.030096 0.793346
vt 0.044407 0.792701
vt 0.043761 0.778389
vt 0.072399 0.482925
vt 0.058088 0.482280
vt 0.058087 0.778390
vt 0.072398 0.779035
vt 0.086725 0.482925
vt 0.086724 0.779035
vt 0.043762 0.482280
vt 0.029450 0.482925
vt 0.215846 0.535302
vt 0.215846 0.505443
vt 0.246610 0.474679
vt 0.328566 0.474679
vt 0.328566 0.566067
vt 0.246610 0.566067
vt 0.173241 0.509953
vt 0.173241 0.522265
vt 0.110948 0.522265
vt 0.110948 0.509953
vt 0.173241 0.534577
vt 0.110948 0.534577
vt 0.173241 0.546888
vt 0.173241 0.559200
vt 0.110948 0.559200
vt 0.110948 0.546888
vt 0.029450 0.779035
vt 0.043761 0.778389
vt 0.044407 0.792701
vt 0.030096 0.793346
vt 0.072399 0.482925
vt 0.072398 0.779035
vt 0.058087 0.778390
vt 0.058088 0.482280
vt 0.086725 0.482925
vt 0.086724 0.779035
vt 0.043762 0.482280
vt 0.029450 0.482925
vn 0.0000 1.0000 0.0000
vn 0.0000 -1.0000 0.0000
vn 0.0000 0.0000 -1.0000
vn 0.0000 0.0000 1.0000
vn 1.0000 0.0000 0.0000
vn -0.9990 -0.0451 0.0000
vn 0.9990 0.0451 0.0000
vn -1.0000 0.0000 0.0000
vn 0.9990 -0.0451 0.0000
vn -0.9990 0.0451 0.0000
usemtl UV
s off
f 11/1/1 27/2/1 28/3/1 12/4/1
f 3/5/2 4/6/2 8/7/2 7/8/2
f 2/9/1 1/10/1 5/11/1 6/12/1
f 1/10/3 3/13/3 7/14/3 5/11/3
f 4/6/4 2/9/4 6/12/4 8/7/4
f 12/4/5 9/15/5 10/16/5 11/1/5
f 17/17/1 19/18/1 23/19/1 21/20/1
f 20/21/4 24/22/4 23/23/4 19/24/4
f 18/25/6 20/21/6 19/24/6 17/26/6
f 22/27/3 18/28/3 17/17/3 21/20/3
f 24/22/7 22/27/7 21/20/7 23/23/7
f 28/3/8 27/2/8 26/29/8 25/30/8
f 25/31/4 9/32/4 12/4/4 28/3/4
f 11/1/3 10/33/3 26/34/3 27/2/3
f 30/35/2 29/36/2 13/37/2 14/38/2
f 29/36/4 31/39/4 15/40/4 13/37/4
f 32/41/3 30/42/3 14/43/3 16/44/3
f 31/39/1 32/41/1 16/44/1 15/40/1
f 33/45/1 37/46/1 39/47/1 35/48/1
f 36/49/4 35/50/4 39/51/4 40/52/4
f 34/53/9 33/54/9 35/50/9 36/49/9
f 38/55/3 37/46/3 33/45/3 34/56/3
f 40/52/10 39/51/10 37/46/10 38/55/10
