# Blender v2.79 (sub 0) OBJ File: 'PipesExport.blend'
# www.blender.org
mtllib PipeCorner.mtl
o PipeCorner_Cylinder.050
v -0.696030 0.417342 -0.211778
v -0.734444 0.319420 -0.354494
v -0.760111 0.172869 -0.449854
v -0.769124 -0.000000 -0.483340
v -0.760111 -0.172869 -0.449854
v -0.734444 -0.319420 -0.354494
v -0.696031 -0.417342 -0.211778
v -0.650719 -0.451728 -0.043434
v -0.605407 -0.417342 0.124911
v -0.566993 -0.319420 0.267627
v -0.541326 -0.172869 0.362986
v -0.532313 -0.000000 0.396472
v -0.541326 0.172869 0.362986
v -0.566993 0.319420 0.267627
v -0.605406 0.417342 0.124911
v -0.650718 0.451728 -0.043434
v -0.462904 0.417342 -0.323918
v -0.548249 0.319420 -0.445311
v -0.605275 0.172869 -0.526424
v -0.625299 -0.000000 -0.554907
v -0.605275 -0.172869 -0.526424
v -0.548249 -0.319420 -0.445311
v -0.462905 -0.417342 -0.323918
v -0.362234 -0.451728 -0.180724
v -0.261564 -0.417342 -0.037530
v -0.176219 -0.319420 0.083863
v -0.119193 -0.172869 0.164976
v -0.099169 -0.000000 0.193459
v -0.119193 0.172869 0.164976
v -0.176219 0.319420 0.083863
v -0.261563 0.417342 -0.037531
v -0.362234 0.451728 -0.180724
v -0.285616 0.417342 -0.526559
v -0.408816 0.319420 -0.607713
v -0.491136 0.172869 -0.661939
v -0.520042 -0.000000 -0.680980
v -0.491136 -0.172869 -0.661939
v -0.408816 -0.319420 -0.607713
v -0.285616 -0.417342 -0.526558
v -0.140292 -0.451728 -0.430830
v 0.005032 -0.417342 -0.335101
v 0.128232 -0.319420 -0.253947
v 0.210552 -0.172869 -0.199721
v 0.239459 -0.000000 -0.180680
v 0.210552 0.172869 -0.199721
v 0.128232 0.319420 -0.253947
v 0.005033 0.417342 -0.335102
v -0.140292 0.451728 -0.430830
v -0.197404 0.417342 -0.745220
v -0.340350 0.319420 -0.782179
v -0.435864 0.172869 -0.806874
v -0.469404 -0.000000 -0.815545
v -0.435864 -0.172869 -0.806874
v -0.340350 -0.319420 -0.782179
v -0.197404 -0.417342 -0.745220
v -0.028787 -0.451728 -0.701624
v 0.139829 -0.417342 -0.658027
v 0.282775 -0.319420 -0.621069
v 0.378289 -0.172869 -0.596374
v 0.411829 -0.000000 -0.587702
v 0.378289 0.172869 -0.596374
v 0.282775 0.319420 -0.621069
v 0.139829 0.417342 -0.658028
v -0.028787 0.451728 -0.701624
v -0.926169 0.417342 -0.175521
v -0.926170 0.319420 -0.324321
v -0.926170 0.172869 -0.423746
v -0.926170 0.000000 -0.458659
v -0.926170 -0.172869 -0.423746
v -0.926170 -0.319420 -0.324321
v -0.926170 -0.417342 -0.175521
v -0.926170 -0.451728 0.000000
v -0.926170 -0.417342 0.175522
v -0.926170 -0.319420 0.324322
v -0.926170 -0.172869 0.423746
v -0.926170 -0.000000 0.458660
v -0.926170 0.172869 0.423746
v -0.926170 0.319420 0.324322
v -0.926169 0.417342 0.175522
v -0.926170 0.451728 0.000000
v -0.940381 0.461940 -0.191341
v -0.940381 0.353554 -0.353553
v -0.940382 0.191342 -0.461940
v -0.940382 0.000000 -0.500000
v -0.940382 -0.191342 -0.461940
v -0.940382 -0.353554 -0.353553
v -0.940382 -0.461940 -0.191341
v -0.940382 -0.500000 0.000000
v -0.940382 -0.461940 0.191342
v -0.940382 -0.353553 0.353554
v -0.940382 -0.191342 0.461940
v -0.940382 -0.000000 0.500000
v -0.940382 0.191342 0.461940
v -0.940381 0.353553 0.353554
v -0.940381 0.461940 0.191342
v -0.940382 0.500000 0.000000
v -1.000000 0.461940 -0.191341
v -1.000000 0.353554 -0.353553
v -1.000000 0.191342 -0.461940
v -1.000000 0.000000 -0.500000
v -1.000000 -0.191342 -0.461940
v -1.000000 -0.353553 -0.353553
v -1.000000 -0.461940 -0.191341
v -1.000000 -0.500000 0.000000
v -1.000000 -0.461940 0.191342
v -1.000000 -0.353553 0.353554
v -1.000000 -0.191342 0.461940
v -1.000000 0.000000 0.500000
v -1.000000 0.191342 0.461940
v -1.000000 0.353553 0.353554
v -1.000000 0.461940 0.191342
v -1.000000 0.500000 0.000000
v -0.175521 0.417342 -0.926170
v -0.324321 0.319420 -0.926170
v -0.423746 0.172869 -0.926170
v -0.458659 -0.000000 -0.926170
v -0.423746 -0.172869 -0.926170
v -0.324321 -0.319420 -0.926170
v -0.175521 -0.417342 -0.926170
v 0.000000 -0.451728 -0.926170
v 0.175522 -0.417342 -0.926169
v 0.324321 -0.319420 -0.926170
v 0.423746 -0.172869 -0.926170
v 0.458660 -0.000000 -0.926170
v 0.423746 0.172869 -0.926170
v 0.324321 0.319420 -0.926170
v 0.175521 0.417342 -0.926170
v 0.000000 0.451728 -0.926170
v -0.191341 0.461940 -0.940382
v -0.353553 0.353553 -0.940382
v -0.461940 0.191342 -0.940382
v -0.500000 -0.000000 -0.940382
v -0.461940 -0.191342 -0.940382
v -0.353553 -0.353554 -0.940382
v -0.191342 -0.461940 -0.940382
v 0.000000 -0.500000 -0.940382
v 0.191342 -0.461940 -0.940381
v 0.353553 -0.353553 -0.940382
v 0.461940 -0.191342 -0.940382
v 0.500000 -0.000000 -0.940382
v 0.461940 0.191342 -0.940382
v 0.353553 0.353553 -0.940382
v 0.191342 0.461940 -0.940382
v 0.000000 0.500000 -0.940382
v -0.191341 0.461940 -1.000000
v -0.353553 0.353553 -1.000000
v -0.461940 0.191342 -1.000000
v -0.500000 -0.000000 -1.000000
v -0.461940 -0.191342 -1.000000
v -0.353553 -0.353554 -1.000000
v -0.191342 -0.461940 -1.000000
v 0.000000 -0.500000 -1.000000
v 0.191342 -0.461940 -1.000000
v 0.353553 -0.353553 -1.000000
v 0.461940 -0.191342 -1.000000
v 0.500000 -0.000000 -1.000000
v 0.461940 0.191342 -1.000000
v 0.353553 0.353553 -1.000000
v 0.191342 0.461940 -1.000000
v 0.000000 0.500000 -1.000000
v -0.926170 0.451728 0.000000
v -0.926169 0.417342 0.175522
v -0.926170 0.319420 0.324322
v -0.926170 0.172869 0.423746
v -0.926170 -0.000000 0.458660
v -0.926170 -0.172869 0.423746
v -0.926170 -0.319420 0.324322
v -0.926170 -0.417342 0.175522
v -0.926170 -0.451728 0.000000
v -0.926170 -0.417342 -0.175521
v -0.926170 -0.319420 -0.324321
v -0.926170 -0.172869 -0.423746
v -0.926170 0.000000 -0.458659
v -0.926170 0.172869 -0.423746
v -0.926170 0.319420 -0.324321
v -0.926169 0.417342 -0.175521
v -0.940382 0.500000 0.000000
v -0.940381 0.461940 0.191342
v -0.940381 0.353553 0.353554
v -0.940382 0.191342 0.461940
v -0.940382 -0.000000 0.500000
v -0.940382 -0.191342 0.461940
v -0.940382 -0.353553 0.353554
v -0.940382 -0.461940 0.191342
v -0.940382 -0.500000 0.000000
v -0.940382 -0.461940 -0.191341
v -0.940382 -0.353554 -0.353553
v -0.940382 -0.191342 -0.461940
v -0.940382 0.000000 -0.500000
v -0.940382 0.191342 -0.461940
v -0.940381 0.353554 -0.353553
v -0.940381 0.461940 -0.191341
v -1.000000 0.500000 0.000000
v -1.000000 0.461940 -0.191341
v -1.000000 0.353554 -0.353553
v -1.000000 0.191342 -0.461940
v -1.000000 0.000000 -0.500000
v -1.000000 -0.191342 -0.461940
v -1.000000 -0.353553 -0.353553
v -1.000000 -0.461940 -0.191341
v -1.000000 -0.500000 0.000000
v -1.000000 -0.461940 0.191342
v -1.000000 -0.353553 0.353554
v -1.000000 -0.191342 0.461940
v -1.000000 0.000000 0.500000
v -1.000000 0.191342 0.461940
v -1.000000 0.353553 0.353554
v -1.000000 0.461940 0.191342
v 0.000000 0.451728 -0.926170
v 0.175521 0.417342 -0.926170
v 0.324321 0.319420 -0.926170
v 0.423746 0.172869 -0.926170
v 0.458660 -0.000000 -0.926170
v 0.423746 -0.172869 -0.926170
v 0.324321 -0.319420 -0.926170
v 0.175522 -0.417342 -0.926169
v 0.000000 -0.451728 -0.926170
v -0.175521 -0.417342 -0.926170
v -0.324321 -0.319420 -0.926170
v -0.423746 -0.172869 -0.926170
v -0.458659 -0.000000 -0.926170
v -0.423746 0.172869 -0.926170
v -0.324321 0.319420 -0.926170
v -0.175521 0.417342 -0.926170
v 0.000000 0.500000 -0.940382
v 0.191342 0.461940 -0.940382
v 0.353553 0.353553 -0.940382
v 0.461940 0.191342 -0.940382
v 0.500000 -0.000000 -0.940382
v 0.461940 -0.191342 -0.940382
v 0.353553 -0.353553 -0.940382
v 0.191342 -0.461940 -0.940381
v 0.000000 -0.500000 -0.940382
v -0.191342 -0.461940 -0.940382
v -0.353553 -0.353554 -0.940382
v -0.461940 -0.191342 -0.940382
v -0.500000 -0.000000 -0.940382
v -0.461940 0.191342 -0.940382
v -0.353553 0.353553 -0.940382
v -0.191341 0.461940 -0.940382
v -0.191341 0.461940 -1.000000
v 0.000000 0.500000 -1.000000
v -0.353553 0.353553 -1.000000
v -0.461940 0.191342 -1.000000
v -0.500000 -0.000000 -1.000000
v -0.461940 -0.191342 -1.000000
v -0.353553 -0.353554 -1.000000
v -0.191342 -0.461940 -1.000000
v 0.000000 -0.500000 -1.000000
v 0.191342 -0.461940 -1.000000
v 0.353553 -0.353553 -1.000000
v 0.461940 -0.191342 -1.000000
v 0.500000 -0.000000 -1.000000
v 0.461940 0.191342 -1.000000
v 0.353553 0.353553 -1.000000
v 0.191342 0.461940 -1.000000
vt 0.728805 0.205747
vt 0.763577 0.196552
vt 0.768600 0.218757
vt 0.738726 0.227503
vt 0.755066 0.270993
vt 0.777962 0.267670
vt 0.778875 0.293654
vt 0.757459 0.292947
vt 0.719089 0.071209
vt 0.761954 0.081152
vt 0.758401 0.100050
vt 0.713176 0.093416
vt 0.748170 0.249121
vt 0.773900 0.242498
vt 0.727852 0.049446
vt 0.766979 0.061409
vt 0.738560 0.028237
vt 0.773373 0.040261
vt 0.720099 0.183560
vt 0.759641 0.175727
vt 0.733462 0.356167
vt 0.762631 0.368653
vt 0.754599 0.391328
vt 0.720573 0.376258
vt 0.713775 0.160973
vt 0.757092 0.156005
vt 0.745073 0.335777
vt 0.770323 0.344779
vt 0.710498 0.138253
vt 0.755983 0.137057
vt 0.753641 0.314638
vt 0.776304 0.319616
vt 0.710498 0.115765
vt 0.756302 0.118535
vt 0.803719 0.294366
vt 0.802726 0.322800
vt 0.804500 0.105433
vt 0.802757 0.121807
vt 0.804211 0.266116
vt 0.806751 0.088398
vt 0.803543 0.239213
vt 0.809574 0.070011
vt 0.802580 0.214619
vt 0.813096 0.049420
vt 0.801473 0.172947
vt 0.801836 0.192627
vt 0.798005 0.375983
vt 0.795686 0.399737
vt 0.801504 0.154999
vt 0.800534 0.350277
vt 0.801919 0.138151
vt 0.845367 0.158953
vt 0.843153 0.176679
vt 0.832466 0.349525
vt 0.835060 0.374336
vt 0.847175 0.142179
vt 0.830736 0.322802
vt 0.848660 0.125806
vt 0.830208 0.294947
vt 0.850260 0.109361
vt 0.831804 0.267305
vt 0.851646 0.092271
vt 0.834398 0.241171
vt 0.852871 0.073916
vt 0.837480 0.217336
vt 0.854093 0.053569
vt 0.840499 0.195950
vt 0.838073 0.397086
vt 0.891323 0.074000
vt 0.892384 0.093380
vt 0.866649 0.224256
vt 0.859824 0.246269
vt 0.889482 0.053396
vt 0.879810 0.184496
vt 0.873633 0.203757
vt 0.865226 0.367209
vt 0.872648 0.387937
vt 0.884863 0.166051
vt 0.858514 0.344843
vt 0.888664 0.148041
vt 0.853792 0.320726
vt 0.891261 0.130084
vt 0.852214 0.295317
vt 0.892387 0.111937
vt 0.854566 0.270057
vt 0.877387 0.252365
vt 0.870332 0.273134
vt 0.923151 0.069750
vt 0.927676 0.091229
vt 0.887316 0.233147
vt 0.916924 0.048543
vt 0.909448 0.195556
vt 0.898550 0.214611
vt 0.885914 0.358301
vt 0.897075 0.376543
vt 0.918565 0.175673
vt 0.876260 0.339017
vt 0.925071 0.155073
vt 0.869692 0.318056
vt 0.928583 0.134071
vt 0.867691 0.295544
vt 0.929614 0.112786
vt 0.510834 0.284393
vt 0.510931 0.303688
vt 0.506467 0.303091
vt 0.506220 0.285699
vt 0.420980 0.321843
vt 0.413487 0.303890
vt 0.418101 0.302584
vt 0.425029 0.318790
vt 0.503675 0.321325
vt 0.500097 0.318974
vt 0.413382 0.284594
vt 0.417846 0.285189
vt 0.490368 0.334998
vt 0.488041 0.331138
vt 0.420628 0.266952
vt 0.424208 0.269301
vt 0.472627 0.342616
vt 0.471983 0.337863
vt 0.433928 0.253271
vt 0.436258 0.257130
vt 0.471138 0.245360
vt 0.489416 0.252577
vt 0.486513 0.257011
vt 0.469955 0.250296
vt 0.434890 0.335700
vt 0.437793 0.331267
vt 0.503331 0.266437
vt 0.499281 0.269491
vt 0.451667 0.245646
vt 0.452311 0.250400
vt 0.453164 0.342913
vt 0.454346 0.337979
vt 0.471138 0.245360
vt 0.472467 0.238851
vt 0.493188 0.247071
vt 0.489416 0.252577
vt 0.451667 0.245646
vt 0.450417 0.239187
vt 0.594506 0.346936
vt 0.574900 0.346936
vt 0.556787 0.339434
vt 0.542924 0.325570
vt 0.535421 0.307457
vt 0.535421 0.287852
vt 0.542924 0.269738
vt 0.556787 0.255875
vt 0.574900 0.248372
vt 0.594506 0.248372
vt 0.612619 0.255875
vt 0.626482 0.269738
vt 0.633985 0.287851
vt 0.633985 0.307457
vt 0.626482 0.325570
vt 0.612619 0.339434
vt 0.433928 0.253271
vt 0.430351 0.247835
vt 0.420628 0.266952
vt 0.415282 0.263298
vt 0.413382 0.284594
vt 0.407016 0.283229
vt 0.413487 0.303890
vt 0.407016 0.305067
vt 0.420980 0.321843
vt 0.415396 0.325439
vt 0.434890 0.335700
vt 0.431119 0.341204
vt 0.453164 0.342913
vt 0.451837 0.349420
vt 0.472627 0.342616
vt 0.473878 0.349073
vt 0.490368 0.334998
vt 0.493942 0.340435
vt 0.503675 0.321325
vt 0.509019 0.324982
vt 0.510931 0.303688
vt 0.517297 0.305056
vt 0.510834 0.284393
vt 0.517307 0.283216
vt 0.503331 0.266437
vt 0.508916 0.262838
vt 0.471146 0.245349
vt 0.489415 0.252576
vt 0.486510 0.257009
vt 0.469962 0.250283
vt 0.434897 0.335704
vt 0.420992 0.321837
vt 0.425043 0.318785
vt 0.437801 0.331273
vt 0.490372 0.335002
vt 0.472632 0.342622
vt 0.471987 0.337869
vt 0.488044 0.331143
vt 0.451678 0.245633
vt 0.452322 0.250386
vt 0.503677 0.321327
vt 0.500099 0.318977
vt 0.433941 0.253257
vt 0.436270 0.257116
vt 0.510930 0.303689
vt 0.506466 0.303092
vt 0.420640 0.266939
vt 0.424221 0.269288
vt 0.431123 0.341208
vt 0.434897 0.335704
vt 0.453169 0.342921
vt 0.451842 0.349427
vt 0.453169 0.342921
vt 0.454351 0.337987
vt 0.472632 0.342622
vt 0.473883 0.349080
vt 0.490372 0.335002
vt 0.493947 0.340439
vt 0.413500 0.303880
vt 0.418114 0.302574
vt 0.503677 0.321327
vt 0.509022 0.324983
vt 0.510930 0.303689
vt 0.517297 0.305056
vt 0.503327 0.266438
vt 0.499277 0.269492
vt 0.510831 0.284393
vt 0.517304 0.283216
vt 0.503327 0.266438
vt 0.508912 0.262840
vt 0.489415 0.252576
vt 0.493188 0.247073
vt 0.471146 0.245349
vt 0.472477 0.238843
vt 0.413395 0.284582
vt 0.417860 0.285177
vt 0.451678 0.245633
vt 0.450429 0.239174
vt 0.433941 0.253257
vt 0.430363 0.247821
vt 0.510831 0.284393
vt 0.506218 0.285701
vt 0.420640 0.266939
vt 0.415294 0.263285
vt 0.413395 0.284582
vt 0.407028 0.283217
vt 0.413500 0.303880
vt 0.407028 0.305056
vt 0.420992 0.321837
vt 0.415406 0.325432
vt 0.574900 0.346936
vt 0.556787 0.339434
vt 0.542924 0.325570
vt 0.535421 0.307457
vt 0.535421 0.287851
vt 0.542924 0.269738
vt 0.556787 0.255875
vt 0.574900 0.248372
vt 0.594506 0.248372
vt 0.612619 0.255875
vt 0.626482 0.269738
vt 0.633985 0.287851
vt 0.633985 0.307457
vt 0.626482 0.325570
vt 0.612619 0.339434
vt 0.594506 0.346936
vn 0.0030 0.9998 0.0191
vn 0.0057 0.9998 0.0168
vn -0.1082 0.9313 -0.3477
vn -0.0568 0.9309 -0.3609
vn -0.1430 0.3903 -0.9095
vn -0.2787 0.3927 -0.8764
vn -0.3041 0.0000 -0.9526
vn -0.1553 0.0000 -0.9879
vn 0.1116 -0.6980 0.7073
vn 0.2095 -0.7014 0.6813
vn 0.2710 -0.3793 0.8847
vn 0.1444 -0.3764 0.9151
vn -0.1082 0.7176 -0.6880
vn -0.2087 0.7197 -0.6622
vn 0.0621 -0.9172 0.3936
vn 0.1168 -0.9188 0.3771
vn 0.0030 -0.9998 0.0191
vn 0.0057 -0.9998 0.0168
vn 0.0621 0.9172 0.3936
vn 0.1168 0.9188 0.3771
vn -0.0568 -0.9309 -0.3609
vn -0.1082 -0.9313 -0.3477
vn 0.1116 0.6980 0.7073
vn 0.2095 0.7014 0.6813
vn -0.1082 -0.7176 -0.6880
vn -0.2087 -0.7197 -0.6622
vn 0.1444 0.3764 0.9151
vn 0.2710 0.3793 0.8847
vn -0.1430 -0.3903 -0.9095
vn -0.2787 -0.3927 -0.8764
vn 0.1559 0.0000 0.9878
vn 0.2926 0.0000 0.9562
vn -0.6195 0.0000 -0.7850
vn -0.5665 -0.3962 -0.7225
vn 0.5505 -0.3781 0.7443
vn 0.5943 0.0000 0.8043
vn -0.5665 0.3962 -0.7225
vn 0.4261 -0.6992 0.5740
vn -0.4216 0.7243 -0.5456
vn 0.2391 -0.9168 0.3199
vn -0.2161 0.9341 -0.2842
vn 0.0150 -0.9997 0.0194
vn 0.2391 0.9168 0.3199
vn 0.0150 0.9997 0.0194
vn -0.2161 -0.9341 -0.2842
vn 0.4261 0.6992 0.5740
vn -0.4216 -0.7243 -0.5456
vn 0.5505 0.3781 0.7443
vn 0.6036 0.6989 0.3836
vn 0.3367 0.9173 0.2126
vn -0.5951 -0.7194 -0.3581
vn -0.3093 -0.9318 -0.1899
vn 0.7808 0.3774 0.4979
vn -0.7925 -0.3918 -0.4673
vn 0.8429 0.0000 0.5381
vn -0.8633 0.0000 -0.5046
vn 0.7808 -0.3774 0.4979
vn -0.7925 0.3918 -0.4673
vn 0.6036 -0.6989 0.3836
vn -0.5951 0.7194 -0.3581
vn 0.3367 -0.9173 0.2126
vn -0.3093 0.9318 -0.1899
vn 0.0175 -0.9998 0.0110
vn 0.0175 0.9998 0.0110
vn 0.3805 -0.9189 0.1034
vn 0.6876 -0.7013 0.1882
vn -0.3551 0.9304 -0.0909
vn -0.6762 0.7175 -0.1673
vn 0.0155 -0.9998 0.0048
vn 0.3805 0.9189 0.1034
vn 0.0155 0.9998 0.0048
vn -0.3551 -0.9304 -0.0909
vn 0.6876 0.7013 0.1882
vn -0.6762 -0.7175 -0.1673
vn 0.8923 0.3791 0.2452
vn -0.8955 -0.3905 -0.2135
vn 0.9641 0.0000 0.2653
vn -0.9736 0.0000 -0.2282
vn 0.8923 -0.3791 0.2452
vn -0.8955 0.3905 -0.2135
vn -0.6949 0.7150 -0.0772
vn -0.9168 0.3880 -0.0944
vn 0.3923 -0.9183 0.0525
vn 0.7080 -0.6996 0.0964
vn -0.3664 0.9294 -0.0436
vn 0.0156 -0.9998 0.0026
vn 0.3923 0.9183 0.0525
vn 0.0156 0.9998 0.0026
vn -0.3664 -0.9294 -0.0436
vn 0.7080 0.6996 0.0964
vn -0.6949 -0.7150 -0.0772
vn 0.9174 0.3775 0.1263
vn -0.9168 -0.3880 -0.0944
vn 0.9906 0.0000 0.1368
vn -0.9951 0.0000 -0.0989
vn 0.9174 -0.3775 0.1263
vn 0.9533 0.2154 0.2117
vn 0.9485 0.1230 0.2918
vn 0.9484 0.1192 0.2938
vn 0.9530 0.2121 0.2161
vn 0.9573 -0.2676 -0.1090
vn 0.9533 -0.2154 -0.2117
vn 0.9530 -0.2121 -0.2161
vn 0.9572 -0.2665 -0.1124
vn 0.9463 0.0000 0.3232
vn 0.9485 -0.1230 -0.2918
vn 0.9484 -0.1192 -0.2938
vn 0.9485 -0.1230 0.2918
vn 0.9484 -0.1192 0.2938
vn 0.9463 0.0000 -0.3232
vn 0.9533 -0.2154 0.2117
vn 0.9530 -0.2121 0.2161
vn 0.9485 0.1230 -0.2918
vn 0.9484 0.1192 -0.2938
vn 0.9573 0.2676 -0.1090
vn 0.9588 0.2839 0.0000
vn 0.9572 0.2665 -0.1124
vn 0.9588 -0.2839 0.0000
vn 0.9573 0.2676 0.1090
vn 0.9572 0.2665 0.1124
vn 0.9533 0.2154 -0.2117
vn 0.9530 0.2121 -0.2161
vn 0.9573 -0.2676 0.1090
vn 0.9572 -0.2665 0.1124
vn 0.0000 0.9239 -0.3827
vn 0.0000 1.0000 0.0000
vn 0.0000 0.7071 -0.7071
vn -1.0000 0.0000 0.0000
vn 0.0000 0.3827 -0.9239
vn 0.0000 0.0000 -1.0000
vn 0.0000 -0.3827 -0.9239
vn 0.0000 -0.7071 -0.7071
vn 0.0000 -0.9239 -0.3827
vn 0.0000 -1.0000 0.0000
vn 0.0000 -0.9239 0.3827
vn 0.0000 -0.7071 0.7071
vn 0.0000 -0.3827 0.9239
vn 0.0000 0.0000 1.0000
vn 0.0000 0.3827 0.9239
vn 0.0000 0.7071 0.7071
vn 0.0000 0.9239 0.3827
vn -0.1090 -0.2676 0.9573
vn 0.0000 -0.2839 0.9588
vn -0.1124 -0.2665 0.9572
vn 0.0000 0.2839 0.9588
vn -0.1090 0.2676 0.9573
vn -0.1124 0.2665 0.9572
vn 0.2918 0.1230 0.9485
vn 0.2117 0.2154 0.9533
vn 0.2161 0.2121 0.9530
vn 0.2938 0.1192 0.9484
vn -0.2117 -0.2154 0.9533
vn -0.2161 -0.2121 0.9530
vn 0.3232 0.0000 0.9463
vn -0.2918 -0.1230 0.9485
vn -0.2938 -0.1192 0.9484
vn 0.2918 -0.1230 0.9485
vn 0.2938 -0.1192 0.9484
vn -0.3232 0.0000 0.9463
vn 0.3827 0.9239 0.0000
vn 0.1090 0.2676 0.9573
vn 0.1124 0.2665 0.9572
vn 0.7071 0.7071 0.0000
vn 0.9239 0.3827 0.0000
vn -0.2117 0.2154 0.9533
vn -0.2161 0.2121 0.9530
vn 1.0000 0.0000 0.0000
vn 0.9239 -0.3827 0.0000
vn 0.1090 -0.2676 0.9573
vn 0.1124 -0.2665 0.9572
vn 0.7071 -0.7071 0.0000
vn 0.3827 -0.9239 0.0000
vn -0.3827 -0.9239 0.0000
vn -0.2918 0.1230 0.9485
vn -0.2938 0.1192 0.9484
vn -0.7071 -0.7071 0.0000
vn -0.9239 -0.3827 0.0000
vn 0.2117 -0.2154 0.9533
vn 0.2161 -0.2121 0.9530
vn -0.9239 0.3827 0.0000
vn -0.7071 0.7071 0.0000
vn -0.3827 0.9239 0.0000
usemtl UV
s 1
f 161/1/1 16/2/2 1/3/3 176/4/4
f 174/5/5 3/6/6 4/7/7 173/8/8
f 167/9/9 10/10/10 11/11/11 166/12/12
f 175/13/13 2/14/14 3/6/6 174/5/5
f 168/15/15 9/16/16 10/10/10 167/9/9
f 176/4/4 1/3/3 2/14/14 175/13/13
f 169/17/17 8/18/18 9/16/16 168/15/15
f 162/19/19 15/20/20 16/2/2 161/1/1
f 170/21/21 7/22/22 8/23/18 169/24/17
f 163/25/23 14/26/24 15/20/20 162/19/19
f 171/27/25 6/28/26 7/22/22 170/21/21
f 164/29/27 13/30/28 14/26/24 163/25/23
f 172/31/29 5/32/30 6/28/26 171/27/25
f 165/33/31 12/34/32 13/30/28 164/29/27
f 173/8/8 4/7/7 5/32/30 172/31/29
f 166/12/12 11/11/11 12/34/32 165/33/31
f 20/35/33 21/36/34 5/32/30 4/7/7
f 27/37/35 28/38/36 12/34/32 11/11/11
f 19/39/37 20/35/33 4/7/7 3/6/6
f 26/40/38 27/37/35 11/11/11 10/10/10
f 18/41/39 19/39/37 3/6/6 2/14/14
f 25/42/40 26/40/38 10/10/10 9/16/16
f 17/43/41 18/41/39 2/14/14 1/3/3
f 24/44/42 25/42/40 9/16/16 8/18/18
f 31/45/43 32/46/44 16/2/2 15/20/20
f 32/46/44 17/43/41 1/3/3 16/2/2
f 23/47/45 24/48/42 8/23/18 7/22/22
f 30/49/46 31/45/43 15/20/20 14/26/24
f 22/50/47 23/47/45 7/22/22 6/28/26
f 29/51/48 30/49/46 14/26/24 13/30/28
f 21/36/34 22/50/47 6/28/26 5/32/30
f 28/38/36 29/51/48 13/30/28 12/34/32
f 46/52/49 47/53/50 31/45/43 30/49/46
f 38/54/51 39/55/52 23/47/45 22/50/47
f 45/56/53 46/52/49 30/49/46 29/51/48
f 37/57/54 38/54/51 22/50/47 21/36/34
f 44/58/55 45/56/53 29/51/48 28/38/36
f 36/59/56 37/57/54 21/36/34 20/35/33
f 43/60/57 44/58/55 28/38/36 27/37/35
f 35/61/58 36/59/56 20/35/33 19/39/37
f 42/62/59 43/60/57 27/37/35 26/40/38
f 34/63/60 35/61/58 19/39/37 18/41/39
f 41/64/61 42/62/59 26/40/38 25/42/40
f 33/65/62 34/63/60 18/41/39 17/43/41
f 40/66/63 41/64/61 25/42/40 24/44/42
f 47/53/50 48/67/64 32/46/44 31/45/43
f 48/67/64 33/65/62 17/43/41 32/46/44
f 39/55/52 40/68/63 24/48/42 23/47/45
f 57/69/65 58/70/66 42/62/59 41/64/61
f 49/71/67 50/72/68 34/63/60 33/65/62
f 56/73/69 57/69/65 41/64/61 40/66/63
f 63/74/70 64/75/71 48/67/64 47/53/50
f 64/75/71 49/71/67 33/65/62 48/67/64
f 55/76/72 56/77/69 40/68/63 39/55/52
f 62/78/73 63/74/70 47/53/50 46/52/49
f 54/79/74 55/76/72 39/55/52 38/54/51
f 61/80/75 62/78/73 46/52/49 45/56/53
f 53/81/76 54/79/74 38/54/51 37/57/54
f 60/82/77 61/80/75 45/56/53 44/58/55
f 52/83/78 53/81/76 37/57/54 36/59/56
f 59/84/79 60/82/77 44/58/55 43/60/57
f 51/85/80 52/83/78 36/59/56 35/61/58
f 58/70/66 59/84/79 43/60/57 42/62/59
f 50/72/68 51/85/80 35/61/58 34/63/60
f 223/86/81 222/87/82 51/85/80 50/72/68
f 216/88/83 215/89/84 58/70/66 57/69/65
f 224/90/85 223/86/81 50/72/68 49/71/67
f 217/91/86 216/88/83 57/69/65 56/73/69
f 210/92/87 209/93/88 64/75/71 63/74/70
f 209/93/88 224/90/85 49/71/67 64/75/71
f 218/94/89 217/95/86 56/77/69 55/76/72
f 211/96/90 210/92/87 63/74/70 62/78/73
f 219/97/91 218/94/89 55/76/72 54/79/74
f 212/98/92 211/96/90 62/78/73 61/80/75
f 220/99/93 219/97/91 54/79/74 53/81/76
f 213/100/94 212/98/92 61/80/75 60/82/77
f 221/101/95 220/99/93 53/81/76 52/83/78
f 214/102/96 213/100/94 60/82/77 59/84/79
f 222/87/82 221/101/95 52/83/78 51/85/80
f 215/89/84 214/102/96 59/84/79 58/70/66
f 179/103/97 180/104/98 77/105/99 78/106/100
f 186/107/101 187/108/102 70/109/103 71/110/104
f 180/104/98 181/111/105 76/112/105 77/105/99
f 187/108/102 188/113/106 69/114/107 70/109/103
f 181/111/105 182/115/108 75/116/109 76/112/105
f 188/113/106 189/117/110 68/118/110 69/114/107
f 182/115/108 183/119/111 74/120/112 75/116/109
f 189/117/110 190/121/113 67/122/114 68/118/110
f 192/123/115 177/124/116 80/125/116 65/126/117
f 185/127/118 186/107/101 71/110/104 72/128/118
f 178/129/119 179/103/97 78/106/100 79/130/120
f 191/131/121 192/123/115 65/126/117 66/132/122
f 184/133/123 185/127/118 72/128/118 73/134/124
f 177/124/116 178/129/119 79/130/120 80/125/116
f 190/121/113 191/131/121 66/132/122 67/122/114
f 183/119/111 184/133/123 73/134/124 74/120/112
f 81/135/125 194/136/125 193/137/126 96/138/126
f 82/139/127 195/140/127 194/136/125 81/135/125
f 111/141/128 112/142/128 97/143/128 98/144/128 99/145/128 100/146/128 101/147/128 102/148/128 103/149/128 104/150/128 105/151/128 106/152/128 107/153/128 108/154/128 109/155/128 110/156/128
f 83/157/129 196/158/129 195/140/127 82/139/127
f 84/159/130 197/160/130 196/158/129 83/157/129
f 85/161/131 198/162/131 197/160/130 84/159/130
f 86/163/132 199/164/132 198/162/131 85/161/131
f 87/165/133 200/166/133 199/164/132 86/163/132
f 88/167/134 201/168/134 200/166/133 87/165/133
f 89/169/135 202/170/135 201/168/134 88/167/134
f 90/171/136 203/172/136 202/170/135 89/169/135
f 91/173/137 204/174/137 203/172/136 90/171/136
f 92/175/138 205/176/138 204/174/137 91/173/137
f 93/177/139 206/178/139 205/176/138 92/175/138
f 94/179/140 207/180/140 206/178/139 93/177/139
f 95/181/141 208/182/141 207/180/140 94/179/140
f 96/138/126 193/137/126 208/182/141 95/181/141
f 234/183/142 233/184/143 120/185/143 119/186/144
f 144/187/145 240/188/146 113/189/147 128/190/145
f 228/191/148 227/192/149 126/193/150 125/194/151
f 235/195/152 234/183/142 119/186/144 118/196/153
f 229/197/154 228/191/148 125/194/151 124/198/154
f 236/199/155 235/195/152 118/196/153 117/200/156
f 230/201/157 229/197/154 124/198/154 123/202/158
f 237/203/159 236/199/155 117/200/156 116/204/159
f 242/205/126 225/206/126 226/207/160 256/208/160
f 227/192/149 143/209/161 127/210/162 126/193/150
f 256/208/160 226/207/160 142/211/163 255/212/163
f 255/212/163 142/211/163 141/213/164 254/214/164
f 240/188/146 239/215/165 114/216/166 113/189/147
f 254/214/164 141/213/164 140/217/167 253/218/167
f 253/218/167 140/217/167 139/219/168 252/220/168
f 233/184/143 137/221/169 121/222/170 120/185/143
f 252/220/168 139/219/168 138/223/171 251/224/171
f 251/224/171 138/223/171 232/225/172 250/226/172
f 143/209/161 144/187/145 128/190/145 127/210/162
f 250/226/172 232/225/172 136/227/134 249/228/134
f 249/228/134 136/227/134 135/229/173 248/230/173
f 239/215/165 131/231/174 115/232/175 114/216/166
f 248/230/173 135/229/173 134/233/176 247/234/176
f 247/234/176 134/233/176 133/235/177 246/236/177
f 137/221/169 231/237/178 122/238/179 121/222/170
f 246/236/177 133/235/177 132/239/128 245/240/128
f 245/240/128 132/239/128 238/241/180 244/242/180
f 244/242/180 238/241/180 130/243/181 243/244/181
f 131/231/174 237/203/159 116/204/159 115/232/175
f 243/244/181 130/243/181 129/245/182 241/246/182
f 231/237/178 230/201/157 123/202/158 122/238/179
f 241/246/182 129/245/182 225/206/126 242/205/126
f 160/247/130 159/248/130 158/249/130 157/250/130 156/251/130 155/252/130 154/253/130 153/254/130 152/255/130 151/256/130 150/257/130 149/258/130 148/259/130 147/260/130 146/261/130 145/262/130
