# Blender v2.79 (sub 0) OBJ File: 'BuildingDecoration01Export.blend'
# www.blender.org
mtllib BuildingGate.mtl
o BuildingGate_Building1Wall_Cube.006
v -1.388402 3.069870 0.491826
v -1.388402 0.256928 0.614098
v -1.375564 0.988586 0.519572
v -1.554062 0.988586 0.859711
v -1.375564 0.988586 0.859711
v -1.554062 0.988586 0.011771
v -1.375564 1.499515 0.519572
v -1.375564 1.499515 0.704066
v -1.554062 1.499515 0.704066
v -1.554062 1.499515 0.011771
v -1.375564 2.810932 0.519572
v -1.133149 3.053348 0.472618
v -1.311647 3.231846 0.704066
v -1.554062 2.989430 0.704066
v -1.133149 3.053348 0.704066
v -1.375564 2.810932 0.704066
v -1.311647 3.627241 0.011772
v -1.554062 3.384826 0.011772
v -1.388402 -0.000000 0.689331
v -1.388402 0.225724 0.689331
v -1.375564 -0.000000 0.519572
v -1.554062 -0.000000 0.859711
v -1.375564 -0.000000 0.859711
v -1.554062 -0.000000 0.011771
v -1.388402 2.636138 0.614099
v -1.388402 2.880889 0.567131
v 1.554341 -0.000000 0.011771
v 1.375843 -0.000000 0.859711
v 1.554341 -0.000000 0.859711
v 1.375843 -0.000000 0.519572
v 1.388680 0.225724 0.689331
v 1.388680 -0.000000 0.689331
v 1.554341 3.384826 0.011772
v 1.311925 3.627241 0.011772
v 1.375843 2.810932 0.704066
v 1.133428 3.053348 0.704066
v 1.554341 2.989430 0.704066
v 1.311925 3.231846 0.704066
v 1.133428 3.053348 0.472618
v 1.375843 2.810932 0.519572
v 1.554341 1.499515 0.011771
v 1.554341 1.499515 0.704066
v 1.375843 1.499515 0.704066
v 1.375843 1.499515 0.519572
v 1.554341 0.988586 0.011771
v 1.375843 0.988586 0.859711
v 1.554341 0.988586 0.859711
v 1.375843 0.988586 0.519572
v 1.388680 0.256928 0.614098
v 1.388680 3.069870 0.491826
v 1.388680 2.636138 0.614099
v 1.388680 2.880889 0.567131
vt 0.076655 0.949749
vt 0.331433 0.949749
vt 0.331433 0.975765
vt 0.076655 0.975765
vt 0.347890 0.741725
vt 0.059557 0.741724
vt 0.059557 0.733268
vt 0.347890 0.733268
vt 0.528205 0.816406
vt 0.510729 0.873844
vt 0.548963 0.873830
vt 0.548943 0.816399
vt 0.406380 0.756695
vt 0.406380 0.699263
vt 0.501694 0.699263
vt 0.484199 0.756695
vt 0.049198 0.454212
vt 0.049198 0.565336
vt 0.029133 0.565336
vt 0.029133 0.454212
vt 0.528154 0.668994
vt 0.548892 0.668986
vt 0.406380 0.968617
vt 0.484199 0.924172
vt 0.049198 0.625374
vt 0.029134 0.625374
vt 0.331225 0.800037
vt 0.351289 0.820101
vt 0.056383 0.820101
vt 0.076448 0.800037
vt 0.038119 0.975765
vt 0.038119 0.955027
vt 0.029134 0.792852
vt 0.049198 0.772787
vt 0.057953 0.843750
vt 0.057953 0.933366
vt 0.021864 0.919852
vt 0.021864 0.830236
vt 0.347890 0.765161
vt 0.059557 0.765160
vt 0.352860 0.843750
vt 0.352860 0.933366
vt 0.406380 0.588140
vt 0.501694 0.588140
vt 0.510767 0.984967
vt 0.549001 0.984954
vt 0.510729 0.873830
vt 0.548963 0.873830
vt 0.548963 0.984954
vt 0.510729 0.984954
vt 0.406380 0.699263
vt 0.501694 0.699263
vt 0.501694 0.588140
vt 0.406380 0.588140
vt 0.358474 0.625376
vt 0.378538 0.625376
vt 0.378538 0.792852
vt 0.358474 0.772788
vt 0.388949 0.830236
vt 0.388949 0.919852
vt 0.369969 0.955027
vt 0.369969 0.975765
vt 0.358474 0.565339
vt 0.378538 0.565339
vt 0.406380 0.968617
vt 0.484199 0.924172
vt 0.484199 0.756695
vt 0.406380 0.756695
vt 0.528225 0.668987
vt 0.548963 0.668987
vt 0.548963 0.816399
vt 0.528225 0.816399
vt 0.358473 0.454216
vt 0.378538 0.454216
vt 0.059558 0.486245
vt 0.059558 0.460370
vt 0.347890 0.460370
vt 0.347890 0.486245
vt 0.059557 0.439248
vt 0.347890 0.439248
vn 0.0000 -1.0000 0.0000
vn 0.0000 0.9237 0.3831
vn 1.0000 0.0000 0.0000
vn -1.0000 0.0000 0.0000
vn 0.0000 -0.0000 1.0000
vn 0.0000 0.2914 0.9566
vn 0.7071 -0.7071 0.0000
vn -0.6557 0.6557 0.3745
vn 0.0000 0.8684 0.4959
vn 0.6557 0.6557 0.3745
vn -0.7071 -0.7071 0.0000
vn 0.0000 0.0947 0.9955
vn 0.0000 0.2806 0.9598
vn 0.0000 0.3702 0.9290
usemtl UV
s off
f 12/1/1 39/2/1 36/3/1 15/4/1
f 20/5/2 31/6/2 49/7/2 2/8/2
f 8/9/3 5/10/3 3/11/3 7/12/3
f 10/13/4 6/14/4 4/15/4 9/16/4
f 23/17/5 5/18/5 4/19/5 22/20/5
f 16/21/3 8/9/3 7/12/3 11/22/3
f 18/23/4 10/13/4 9/16/4 14/24/4
f 5/18/6 8/25/6 9/26/6 4/19/6
f 36/27/5 38/28/5 13/29/5 15/30/5
f 12/1/7 15/4/7 16/31/7 11/32/7
f 14/33/5 16/34/5 15/30/5 13/29/5
f 13/35/8 17/36/8 18/37/8 14/38/8
f 19/39/5 32/40/5 31/6/5 20/5/5
f 13/35/9 38/41/9 34/42/9 17/36/9
f 8/25/5 16/34/5 14/33/5 9/26/5
f 6/14/4 24/43/4 22/44/4 4/15/4
f 5/10/3 23/45/3 21/46/3 3/11/3
f 46/47/4 48/48/4 30/49/4 28/50/4
f 45/51/3 47/52/3 29/53/3 27/54/3
f 43/55/5 42/56/5 37/57/5 35/58/5
f 38/41/10 37/59/10 33/60/10 34/42/10
f 37/57/5 38/28/5 36/27/5 35/58/5
f 39/2/11 40/61/11 35/62/11 36/3/11
f 46/63/6 47/64/6 42/56/6 43/55/6
f 33/65/3 37/66/3 42/67/3 41/68/3
f 35/69/4 40/70/4 44/71/4 43/72/4
f 28/73/5 29/74/5 47/64/5 46/63/5
f 41/68/3 42/67/3 47/52/3 45/51/3
f 43/72/4 44/71/4 48/48/4 46/47/4
s 1
f 51/75/12 52/76/13 26/77/13 25/78/12
f 2/8/5 49/7/5 51/75/12 25/78/12
f 52/76/13 50/79/14 1/80/14 26/77/13
