# Blender v2.79 (sub 0) OBJ File: 'BuildingDecoration01Export.blend'
# www.blender.org
mtllib RoofArmored.mtl
o RoofArmored_Building1Wall_Cube.005
v -0.858015 3.622456 1.211991
v -1.211630 3.622456 0.858375
v -1.211630 3.622457 -0.857933
v -0.858015 3.622457 -1.211548
v 1.211910 3.622456 0.858375
v 0.858294 3.622456 1.211991
v 0.858294 3.622457 -1.211548
v 1.211910 3.622457 -0.857933
v -0.988773 3.754479 0.700552
v -0.700191 3.754478 0.989134
v -0.700191 3.754479 -0.988691
v -0.988773 3.754479 -0.700109
v 0.700470 3.754478 0.989134
v 0.989052 3.754479 0.700552
v 0.989052 3.754479 -0.700109
v 0.700470 3.754479 -0.988691
v -0.858015 3.469189 1.211991
v -1.211630 3.469189 0.858375
v -1.211630 3.469189 -0.857933
v -0.858015 3.469189 -1.211548
v 1.211910 3.469189 0.858375
v 0.858294 3.469189 1.211991
v 0.858294 3.469189 -1.211548
v 1.211910 3.469189 -0.857933
vt 0.633893 0.727491
vt 0.799765 0.727490
vt 0.784512 0.752524
vt 0.649146 0.752524
vt 0.596223 0.931033
vt 0.596222 0.765161
vt 0.621256 0.780414
vt 0.621256 0.915781
vt 0.649146 0.943671
vt 0.812402 0.780414
vt 0.812402 0.915780
vt 0.784512 0.943670
vt 0.837436 0.765161
vt 0.837436 0.931033
vt 0.801859 0.967302
vt 0.836034 0.933127
vt 0.801858 0.728893
vt 0.836033 0.763068
vt 0.631800 0.728893
vt 0.597625 0.763068
vt 0.631800 0.967302
vt 0.597625 0.933127
vt 0.799765 0.968704
vt 0.633893 0.968704
vt 0.799765 0.983517
vt 0.633893 0.983517
vt 0.812332 0.718419
vt 0.846507 0.752594
vt 0.846508 0.943600
vt 0.812333 0.977776
vt 0.587151 0.752594
vt 0.621326 0.718419
vt 0.633893 0.712678
vt 0.799765 0.712678
vt 0.621326 0.977776
vt 0.587151 0.943601
vt 0.852248 0.765161
vt 0.852248 0.931033
vt 0.581410 0.931033
vt 0.581410 0.765161
vn 0.5097 0.8604 0.0000
vn 0.0000 0.8604 0.5097
vn 0.0000 1.0000 0.0000
vn 0.0000 0.8604 -0.5097
vn -0.3114 0.8978 -0.3114
vn 0.3114 0.8978 -0.3114
vn 0.3114 0.8978 0.3114
vn -0.3114 0.8978 0.3114
vn -0.5097 0.8604 0.0000
vn -1.0000 0.0000 0.0000
vn 0.7071 0.0000 -0.7071
vn -0.7071 -0.0000 -0.7071
vn 0.7071 0.0000 0.7071
vn 1.0000 0.0000 0.0000
vn -0.7071 0.0000 0.7071
vn 0.0000 0.0000 -1.0000
vn 0.0000 0.0000 1.0000
usemtl UV
s off
f 5/1/1 8/2/1 15/3/1 14/4/1
f 1/5/2 6/6/2 13/7/2 10/8/2
f 9/9/3 10/8/3 13/7/3 14/4/3 15/3/3 16/10/3 11/11/3 12/12/3
f 7/13/4 4/14/4 11/11/4 16/10/4
f 3/15/5 12/12/5 11/11/5 4/16/5
f 15/3/6 8/17/6 7/18/6 16/10/6
f 5/19/7 14/4/7 13/7/7 6/20/7
f 9/9/8 2/21/8 1/22/8 10/8/8
f 3/23/9 2/24/9 9/9/9 12/12/9
f 2/24/10 3/23/10 19/25/10 18/26/10
f 7/18/11 8/17/11 24/27/11 23/28/11
f 3/15/12 4/16/12 20/29/12 19/30/12
f 5/19/13 6/20/13 22/31/13 21/32/13
f 8/2/14 5/1/14 21/33/14 24/34/14
f 1/22/15 2/21/15 18/35/15 17/36/15
f 4/14/16 7/13/16 23/37/16 20/38/16
f 6/6/17 1/5/17 17/39/17 22/40/17
