# Blender v2.79 (sub 0) OBJ File: 'BuildingDecoration01Export.blend'
# www.blender.org
mtllib RoofReinforced.mtl
o RoofReinforced_Building1Wall_Cube.002
v -0.367061 3.438086 0.274395
v -0.274035 3.438086 0.367421
v -0.382209 3.206410 0.259248
v -0.258887 3.206410 0.382568
v -1.468035 3.438086 1.375376
v -1.375008 3.438086 1.468402
v -1.359861 3.206409 1.483549
v -1.483182 3.206409 1.360228
v 0.367339 3.438086 -0.273952
v 0.274313 3.438086 -0.366978
v 0.382487 3.206410 -0.258805
v 0.259166 3.206410 -0.382126
v 1.468313 3.438086 -1.374933
v 1.375286 3.438086 -1.467959
v 1.360139 3.206409 -1.483106
v 1.483460 3.206409 -1.359785
v -0.274035 3.438086 -0.366979
v -0.367061 3.438086 -0.273952
v -0.258888 3.206410 -0.382126
v -0.382208 3.206410 -0.258805
v -1.375015 3.438086 -1.467952
v -1.468041 3.438086 -1.374926
v -1.483189 3.206409 -1.359778
v -1.359868 3.206409 -1.483100
v 0.274313 3.438086 0.367422
v 0.367339 3.438086 0.274395
v 0.259166 3.206410 0.382569
v 0.382486 3.206410 0.259248
v 1.375293 3.438086 1.468395
v 1.468319 3.438086 1.375368
v 1.483466 3.206409 1.360221
v 1.360146 3.206409 1.483542
v -0.420026 3.474508 0.252312
v -0.251952 3.474508 0.420386
v 0.252229 3.474508 0.420386
v 0.420302 3.474508 0.252312
v 0.420302 3.474508 -0.251868
v 0.252229 3.474508 -0.419942
v -0.251952 3.474508 -0.419942
v -0.420026 3.474508 -0.251869
v -0.420026 3.258589 0.252312
v -0.251952 3.258589 0.420386
v -0.420026 3.258589 -0.251869
v 0.252229 3.258589 0.420386
v -0.251952 3.258589 -0.419942
v 0.420302 3.258589 0.252312
v 0.420302 3.258589 -0.251868
v 0.252229 3.258589 -0.419942
v -1.999861 3.500000 2.000222
v 2.000139 3.500000 2.000222
v 2.000139 3.500000 -1.999778
v -1.999861 3.500000 -1.999778
v -0.985801 3.500000 1.392435
v -1.392074 3.500000 0.986162
v -1.392074 3.500000 -0.985719
v -0.985801 3.500000 -1.391991
v 1.392352 3.500000 0.986162
v 0.986079 3.500000 1.392435
v 0.986079 3.500000 -1.391991
v 1.392352 3.500000 -0.985719
v -1.136031 3.280629 0.804838
v -0.804477 3.280629 1.136392
v -0.804477 3.280629 -1.135949
v -1.136031 3.280629 -0.804394
v 0.804755 3.280629 1.136392
v 1.136309 3.280629 0.804838
v 1.136309 3.280629 -0.804394
v 0.804755 3.280629 -1.135949
vt 0.916888 0.391610
vt 0.916888 0.590368
vt 0.891080 0.572091
vt 0.891080 0.409887
vt 0.677179 0.350659
vt 0.875938 0.350659
vt 0.857661 0.376467
vt 0.695456 0.376467
vt 0.574965 0.692582
vt 0.677179 0.631319
vt 0.875938 0.631319
vt 0.978151 0.692582
vt 0.662036 0.409887
vt 0.857661 0.605511
vt 0.695456 0.605511
vt 0.662036 0.572091
vt 0.978151 0.289396
vt 0.574965 0.289396
vt 0.636228 0.391610
vt 0.636228 0.590368
vt 0.805914 0.225118
vt 0.805914 0.199428
vt 0.977838 0.199428
vt 0.977838 0.225118
vt 0.805914 0.265336
vt 0.805914 0.239645
vt 0.977838 0.239645
vt 0.977838 0.265336
vt 0.805914 0.225118
vt 0.805914 0.199428
vt 0.977838 0.199428
vt 0.977838 0.225118
vt 0.805914 0.265336
vt 0.805914 0.239645
vt 0.977838 0.239645
vt 0.977838 0.265336
vt 0.805914 0.225118
vt 0.805914 0.199428
vt 0.977838 0.199428
vt 0.977838 0.225118
vt 0.805914 0.265336
vt 0.805914 0.239645
vt 0.977838 0.239645
vt 0.977838 0.265336
vt 0.805914 0.225118
vt 0.805914 0.199428
vt 0.977838 0.199428
vt 0.977838 0.225118
vt 0.805914 0.265336
vt 0.805914 0.239645
vt 0.977838 0.239645
vt 0.977838 0.265336
vt 0.506406 0.532205
vt 0.486582 0.552030
vt 0.427112 0.552030
vt 0.407287 0.532205
vt 0.407287 0.472735
vt 0.427112 0.452911
vt 0.486582 0.452911
vt 0.506406 0.472735
vt 0.553045 0.603422
vt 0.553045 0.631458
vt 0.527577 0.631458
vt 0.527577 0.603422
vt 0.553045 0.456446
vt 0.553045 0.515917
vt 0.527577 0.515917
vt 0.527577 0.456446
vt 0.553045 0.543953
vt 0.527577 0.543953
vt 0.553045 0.543953
vt 0.527577 0.543953
vt 0.553045 0.456446
vt 0.553045 0.515917
vt 0.527577 0.515917
vt 0.527577 0.456446
vt 0.553045 0.603422
vt 0.553045 0.631458
vt 0.527577 0.631458
vt 0.527577 0.603422
vn -0.6506 0.7594 0.0000
vn 0.0000 0.7594 -0.6506
vn 0.0000 1.0000 -0.0000
vn 0.0000 0.7594 0.6506
vn 0.4091 0.8156 0.4091
vn -0.4091 0.8156 0.4091
vn -0.4091 0.8156 -0.4091
vn 0.4091 0.8156 -0.4091
vn 0.6506 0.7594 0.0000
vn -0.7041 0.0921 -0.7041
vn 0.7041 0.0921 0.7041
vn 0.7041 0.0921 -0.7041
vn -0.7041 0.0921 0.7041
vn -0.7071 -0.0000 0.7071
vn -1.0000 0.0000 0.0000
vn 0.0000 -0.0000 1.0000
vn -0.7071 0.0000 -0.7071
vn 1.0000 0.0000 0.0000
vn 0.7071 0.0000 -0.7071
vn 0.0000 0.0000 -1.0000
vn 0.7071 -0.0000 0.7071
usemtl UV
s off
f 57/1/1 60/2/1 67/3/1 66/4/1
f 53/5/2 58/6/2 65/7/2 62/8/2
f 52/9/3 56/10/3 59/11/3 51/12/3
f 61/13/3 62/8/3 65/7/3 66/4/3 67/3/3 68/14/3 63/15/3 64/16/3
f 59/11/4 56/10/4 63/15/4 68/14/4
f 50/17/3 58/6/3 53/5/3 49/18/3
f 51/12/3 60/2/3 57/1/3 50/17/3
f 49/18/3 54/19/3 55/20/3 52/9/3
f 53/5/3 54/19/3 49/18/3
f 55/20/3 56/10/3 52/9/3
f 57/1/3 58/6/3 50/17/3
f 59/11/3 60/2/3 51/12/3
f 55/20/5 64/16/5 63/15/5 56/10/5
f 67/3/6 60/2/6 59/11/6 68/14/6
f 57/1/7 66/4/7 65/7/7 58/6/7
f 61/13/8 54/19/8 53/5/8 62/8/8
f 55/20/9 54/19/9 61/13/9 64/16/9
usemtl UV_Checkerboard.png.004
f 1/21/10 3/22/10 8/23/10 5/24/10
f 4/25/11 2/26/11 6/27/11 7/28/11
f 2/26/3 1/21/3 5/24/3 6/27/3
f 9/29/11 11/30/11 16/31/11 13/32/11
f 12/33/10 10/34/10 14/35/10 15/36/10
f 10/34/3 9/29/3 13/32/3 14/35/3
f 17/37/12 19/38/12 24/39/12 21/40/12
f 20/41/13 18/42/13 22/43/13 23/44/13
f 18/42/3 17/37/3 21/40/3 22/43/3
f 25/45/13 27/46/13 32/47/13 29/48/13
f 28/49/12 26/50/12 30/51/12 31/52/12
f 26/50/3 25/45/3 29/48/3 30/51/3
s 1
f 33/53/3 34/54/3 35/55/3 36/56/3 37/57/3 38/58/3 39/59/3 40/60/3
f 34/61/14 33/62/14 41/63/14 42/64/14
f 33/65/15 40/66/15 43/67/15 41/68/15
f 35/69/16 34/61/16 42/64/16 44/70/16
f 40/66/17 39/71/17 45/72/17 43/67/17
f 37/73/18 36/74/18 46/75/18 47/76/18
f 38/77/19 37/78/19 47/79/19 48/80/19
f 39/71/20 38/77/20 48/80/20 45/72/20
f 36/74/21 35/69/21 44/70/21 46/75/21
