# Blender v2.79 (sub 0) OBJ File: 'BuildingDecoration01Export.blend'
# www.blender.org
mtllib VentilatorFan.mtl
o VentilatorFan_Cube.004
v -0.090045 0.400535 -0.034910
v 0.034910 0.313247 0.090046
v -0.610676 0.428455 0.405784
v -0.405783 0.285326 0.610676
v -0.034910 0.400535 0.090045
v 0.090046 0.313247 -0.034910
v 0.405784 0.428455 0.610676
v 0.610676 0.285326 0.405783
v -0.088357 0.400535 0.038987
v 0.088357 0.313247 0.038987
v -0.144881 0.428455 0.718745
v 0.144881 0.285326 0.718745
v 0.090045 0.400535 0.034910
v -0.034910 0.313247 -0.090045
v 0.610676 0.428455 -0.405784
v 0.405783 0.285326 -0.610676
v 0.038987 0.400535 0.088357
v 0.038987 0.313247 -0.088357
v 0.718745 0.428455 0.144881
v 0.718745 0.285326 -0.144881
v 0.088357 0.400535 -0.038987
v -0.088357 0.313247 -0.038987
v 0.144881 0.428455 -0.718745
v -0.144881 0.285326 -0.718745
v 0.034910 0.400535 -0.090045
v -0.090046 0.313247 0.034910
v -0.405784 0.428455 -0.610676
v -0.610676 0.285326 -0.405783
v -0.038987 0.400535 -0.088357
v -0.038987 0.313247 0.088357
v -0.718745 0.428455 -0.144881
v -0.718745 0.285326 0.144881
v 0.000000 0.197497 -0.175383
v -0.124015 0.197497 -0.124015
v -0.175383 0.197497 0.000000
v -0.124015 0.197497 0.124015
v 0.000000 0.197497 0.175383
v 0.124015 0.197497 0.124015
v 0.175383 0.197497 0.000000
v 0.124015 0.197497 -0.124015
v 0.000000 0.526882 -0.134893
v 0.000000 0.489473 -0.175383
v -0.124015 0.489473 -0.124015
v -0.095383 0.526882 -0.095384
v -0.175383 0.489473 0.000000
v -0.134893 0.526882 0.000000
v -0.124015 0.489473 0.124015
v -0.095383 0.526882 0.095384
v 0.000000 0.489473 0.175383
v 0.000000 0.526882 0.134893
v 0.124015 0.489473 0.124015
v 0.095384 0.526882 0.095384
v 0.175383 0.489473 0.000000
v 0.134893 0.526882 0.000000
v 0.124015 0.489473 -0.124015
v 0.095384 0.526882 -0.095383
v 0.000000 0.489473 -0.175383
v -0.124015 0.489473 -0.124015
v -0.095383 0.526882 -0.095384
v 0.000000 0.526882 -0.134893
v -0.175383 0.489473 0.000000
v -0.134893 0.526882 0.000000
v -0.124015 0.489473 0.124015
v -0.095383 0.526882 0.095384
v 0.000000 0.489473 0.175383
v 0.000000 0.526882 0.134893
v 0.124015 0.489473 0.124015
v 0.095384 0.526882 0.095384
v 0.175383 0.489473 0.000000
v 0.134893 0.526882 0.000000
v 0.124015 0.489473 -0.124015
v 0.095384 0.526882 -0.095383
vt 0.466122 0.036294
vt 0.466122 0.064218
vt 0.369815 0.073150
vt 0.369815 0.027362
vt 0.466122 0.036294
vt 0.466122 0.064218
vt 0.369815 0.073150
vt 0.369815 0.027362
vt 0.466122 0.036294
vt 0.466122 0.064218
vt 0.369815 0.073150
vt 0.369815 0.027362
vt 0.466122 0.036294
vt 0.466122 0.064218
vt 0.369815 0.073150
vt 0.369815 0.027362
vt 0.466122 0.036294
vt 0.466122 0.064218
vt 0.369815 0.073150
vt 0.369815 0.027362
vt 0.466122 0.036294
vt 0.466122 0.064218
vt 0.369815 0.073150
vt 0.369815 0.027362
vt 0.466122 0.036294
vt 0.466122 0.064218
vt 0.369815 0.073150
vt 0.369815 0.027362
vt 0.466122 0.036294
vt 0.466122 0.064218
vt 0.369815 0.073150
vt 0.369815 0.027362
vt 0.803452 0.146389
vt 0.819631 0.146389
vt 0.819631 0.181581
vt 0.803452 0.181581
vt 0.754914 0.146389
vt 0.771093 0.146389
vt 0.771093 0.181581
vt 0.754914 0.181581
vt 0.749483 0.216500
vt 0.757787 0.225308
vt 0.757834 0.237485
vt 0.749342 0.245977
vt 0.737314 0.245745
vt 0.728821 0.237040
vt 0.728887 0.224881
vt 0.737465 0.216363
vt 0.787272 0.146389
vt 0.787272 0.181581
vt 0.722556 0.146389
vt 0.738735 0.146389
vt 0.738735 0.181581
vt 0.722556 0.181581
vt 0.835810 0.146389
vt 0.851989 0.146389
vt 0.851989 0.181581
vt 0.835810 0.181581
vt 0.764257 0.222464
vt 0.764446 0.239928
vt 0.757834 0.237485
vt 0.757787 0.225308
vt 0.752237 0.252396
vt 0.749342 0.245977
vt 0.734752 0.252332
vt 0.737314 0.245745
vt 0.722356 0.239931
vt 0.728821 0.237040
vt 0.722267 0.222391
vt 0.728887 0.224881
vt 0.734563 0.209931
vt 0.737465 0.216363
vt 0.752044 0.209931
vt 0.749483 0.216500
vn 0.3132 0.8966 0.3132
vn 0.3132 0.8966 -0.3132
vn 0.4429 0.8966 0.0000
vn -0.3132 0.8966 -0.3132
vn -0.0000 0.8966 -0.4429
vn -0.4429 0.8966 0.0000
vn -0.3132 0.8966 0.3132
vn 0.0000 0.8966 0.4429
vn 0.7071 0.0000 -0.7071
vn 0.0000 0.0000 -1.0000
vn 0.0000 0.0000 1.0000
vn 0.7071 0.0000 0.7071
vn 0.0000 1.0000 0.0000
vn 1.0000 0.0000 0.0000
vn -1.0000 0.0000 0.0000
vn -0.7071 0.0000 0.7071
vn -0.7071 0.0000 -0.7071
vn 0.0000 0.7345 -0.6786
vn -0.4798 0.7345 -0.4798
vn -0.6786 0.7345 0.0000
vn -0.4798 0.7345 0.4798
vn 0.0000 0.7345 0.6786
vn 0.4798 0.7345 0.4798
vn 0.6786 0.7345 0.0000
vn 0.4798 0.7345 -0.4798
usemtl Material
s off
f 2/1/1 1/2/1 3/3/1 4/4/1
f 6/5/2 5/6/2 7/7/2 8/8/2
f 10/9/3 9/10/3 11/11/3 12/12/3
f 14/13/4 13/14/4 15/15/4 16/16/4
f 18/17/5 17/18/5 19/19/5 20/20/5
f 22/21/6 21/22/6 23/23/6 24/24/6
f 26/25/7 25/26/7 27/27/7 28/28/7
f 30/29/8 29/30/8 31/31/8 32/32/8
s 1
f 40/33/9 33/34/10 42/35/10 71/36/9
f 37/37/11 38/38/12 67/39/12 65/40/11
f 56/41/13 41/42/13 44/43/13 46/44/13 48/45/13 50/46/13 52/47/13 54/48/13
f 38/38/12 39/49/14 69/50/14 67/39/12
f 35/51/15 36/52/16 63/53/16 61/54/15
f 39/49/14 40/33/9 71/36/9 69/50/14
f 63/53/16 36/52/16 37/37/11 65/40/11
f 34/55/17 35/56/15 61/57/15 43/58/17
f 57/59/18 58/60/19 59/61/19 60/62/18
f 58/60/19 45/63/20 62/64/20 59/61/19
f 45/63/20 47/65/21 64/66/21 62/64/20
f 47/65/21 49/67/22 66/68/22 64/66/21
f 49/67/22 51/69/23 68/70/23 66/68/22
f 51/69/23 53/71/24 70/72/24 68/70/23
f 53/71/24 55/73/25 72/74/25 70/72/24
f 55/73/25 57/59/18 60/62/18 72/74/25
f 33/34/10 34/55/17 43/58/17 42/35/10
