# Blender v2.79 (sub 0) OBJ File: 'HalfSphereCut.blend'
# www.blender.org
mtllib HalfSphereCut.mtl
o Sphere_Sphere.002
v 0.000000 0.555570 -0.831470
v 0.000000 0.382683 -0.923880
v 0.000000 0.195090 -0.980785
v 0.000000 0.000000 -1.000000
v 0.162212 0.555570 -0.815493
v 0.180240 0.382683 -0.906127
v 0.191342 0.195090 -0.961940
v 0.195090 0.000000 -0.980785
v 0.318190 0.555570 -0.768178
v 0.353553 0.382683 -0.853553
v 0.375330 0.195090 -0.906127
v 0.382684 0.000000 -0.923879
v 0.461940 0.555570 -0.691342
v 0.513280 0.382683 -0.768178
v 0.544895 0.195090 -0.815493
v 0.555570 0.000000 -0.831469
v 0.587938 0.555570 -0.587938
v 0.653282 0.382683 -0.653281
v 0.693520 0.195090 -0.693520
v 0.707107 0.000000 -0.707107
v 0.691342 0.555570 -0.461940
v 0.768178 0.382683 -0.513280
v 0.815493 0.195090 -0.544895
v 0.831470 0.000000 -0.555570
v 0.768178 0.555570 -0.318189
v 0.853554 0.382683 -0.353553
v 0.906128 0.195090 -0.375330
v 0.923880 0.000000 -0.382683
v 0.815493 0.555570 -0.162211
v 0.906128 0.382683 -0.180240
v 0.961940 0.195090 -0.191341
v 0.980785 0.000000 -0.195090
v 0.831470 0.555570 0.000000
v 0.923880 0.382683 0.000000
v 0.980785 0.195090 0.000000
v 1.000000 0.000000 0.000000
v 0.815493 0.555570 0.162212
v 0.906128 0.382683 0.180240
v 0.961940 0.195090 0.191342
v 0.980785 0.000000 0.195091
v 0.768178 0.555570 0.318190
v 0.853554 0.382683 0.353554
v 0.906127 0.195090 0.375331
v 0.923880 0.000000 0.382684
v 0.691342 0.555570 0.461940
v 0.768178 0.382683 0.513280
v 0.815493 0.195090 0.544895
v 0.831470 0.000000 0.555571
v 0.587938 0.555570 0.587938
v 0.653282 0.382683 0.653282
v 0.693520 0.195090 0.693520
v 0.707107 0.000000 0.707107
v 0.461940 0.555570 0.691342
v 0.513280 0.382683 0.768178
v 0.544895 0.195090 0.815493
v 0.555570 0.000000 0.831470
v 0.318190 0.555570 0.768178
v 0.353553 0.382683 0.853554
v 0.375330 0.195090 0.906128
v 0.382683 0.000000 0.923880
v 0.162212 0.555570 0.815493
v 0.180240 0.382683 0.906128
v 0.191342 0.195090 0.961940
v 0.195090 0.000000 0.980786
v -0.000000 0.555570 0.831470
v 0.000000 0.382683 0.923880
v -0.000000 0.195090 0.980785
v -0.000000 0.000000 1.000000
v -0.162212 0.555570 0.815493
v -0.180240 0.382683 0.906128
v -0.191342 0.195090 0.961940
v -0.195090 0.000000 0.980786
v -0.318190 0.555570 0.768178
v -0.353553 0.382683 0.853554
v -0.375330 0.195090 0.906127
v -0.382684 0.000000 0.923880
v -0.461940 0.555570 0.691342
v -0.513280 0.382683 0.768178
v -0.544895 0.195090 0.815493
v -0.555570 0.000000 0.831470
v -0.587938 0.555570 0.587938
v -0.653281 0.382683 0.653282
v -0.693520 0.195090 0.693520
v -0.707107 0.000000 0.707107
v -0.691342 0.555570 0.461940
v -0.768178 0.382683 0.513280
v -0.815493 0.195090 0.544895
v -0.831470 0.000000 0.555570
v -0.768177 0.555570 0.318190
v -0.853553 0.382683 0.353554
v -0.906127 0.195090 0.375330
v -0.923880 0.000000 0.382684
v -0.815493 0.555570 0.162212
v -0.906127 0.382683 0.180240
v -0.961939 0.195090 0.191342
v -0.980785 0.000000 0.195090
v -0.831469 0.555570 0.000000
v -0.923879 0.382683 0.000000
v -0.980785 0.195090 0.000000
v -1.000000 0.000000 0.000000
v -0.815493 0.555570 -0.162211
v -0.906127 0.382683 -0.180240
v -0.961939 0.195090 -0.191342
v -0.980785 0.000000 -0.195090
v -0.768177 0.555570 -0.318189
v -0.853553 0.382683 -0.353553
v -0.906127 0.195090 -0.375330
v -0.923879 0.000000 -0.382683
v -0.691341 0.555570 -0.461939
v -0.768178 0.382683 -0.513280
v -0.815493 0.195090 -0.544895
v -0.831469 0.000000 -0.555570
v -0.587937 0.555570 -0.587937
v -0.653281 0.382683 -0.653281
v -0.693519 0.195090 -0.693519
v -0.707106 0.000000 -0.707106
v -0.461939 0.555570 -0.691341
v -0.513280 0.382683 -0.768177
v -0.544895 0.195090 -0.815492
v -0.555570 0.000000 -0.831469
v -0.318189 0.555570 -0.768177
v -0.353553 0.382683 -0.853553
v -0.375330 0.195090 -0.906127
v -0.382683 0.000000 -0.923879
v -0.162211 0.555570 -0.815492
v -0.180240 0.382683 -0.906127
v -0.191341 0.195090 -0.961939
v -0.195090 0.000000 -0.980785
vt 0.501865 0.061699
vt 0.501880 0.089655
vt 0.465583 0.089655
vt 0.465624 0.061699
vt 0.501872 0.033557
vt 0.465810 0.033557
vt 0.501846 0.004310
vt 0.465745 0.004310
vt 0.429930 0.033557
vt 0.429743 0.004310
vt 0.429462 0.089655
vt 0.429607 0.061699
vt 0.393600 0.089655
vt 0.393833 0.061699
vt 0.394273 0.033557
vt 0.393970 0.004310
vt 0.358103 0.089655
vt 0.358419 0.061699
vt 0.358967 0.033557
vt 0.358551 0.004310
vt 0.323085 0.089655
vt 0.323479 0.061699
vt 0.324131 0.033557
vt 0.323602 0.004310
vt 0.288660 0.089655
vt 0.289130 0.061699
vt 0.289882 0.033557
vt 0.289242 0.004310
vt 0.254940 0.089655
vt 0.255485 0.061699
vt 0.256334 0.033557
vt 0.255584 0.004310
vt 0.222038 0.089655
vt 0.222654 0.061699
vt 0.223596 0.033557
vt 0.222739 0.004310
vt 0.190063 0.089655
vt 0.190747 0.061699
vt 0.191778 0.033557
vt 0.190814 0.004310
vt 0.159124 0.089655
vt 0.159871 0.061699
vt 0.160981 0.033557
vt 0.159913 0.004310
vt 0.130127 0.061699
vt 0.131306 0.033557
vt 0.130133 0.004310
vt 0.129328 0.089655
vt 0.100786 0.089655
vt 0.101617 0.061699
vt 0.102843 0.033557
vt 0.101560 0.004310
vt 0.075668 0.033557
vt 0.074264 0.004310
vt 0.073620 0.089655
vt 0.074441 0.061699
vt 0.047982 0.089655
vt 0.048692 0.061699
vt 0.049829 0.033557
vt 0.048287 0.004310
vt 0.025297 0.033557
vt 0.023605 0.004310
vt 0.024102 0.089655
vt 0.024462 0.061699
vt 0.001244 0.089655
vt 0.001244 0.061699
vt 0.001244 0.033557
vt 0.001244 0.004310
vt 0.999713 0.061699
vt 0.999713 0.089655
vt 0.977093 0.089655
vt 0.976781 0.061699
vt 0.999713 0.033557
vt 0.975658 0.033557
vt 0.999713 0.004310
vt 0.976623 0.004310
vt 0.952969 0.089655
vt 0.952278 0.061699
vt 0.951062 0.033557
vt 0.952234 0.004310
vt 0.927302 0.089655
vt 0.926483 0.061699
vt 0.925291 0.033557
vt 0.926535 0.004310
vt 0.900233 0.089655
vt 0.899398 0.061699
vt 0.898236 0.033557
vt 0.899498 0.004310
vt 0.871879 0.089655
vt 0.871108 0.061699
vt 0.869973 0.033557
vt 0.871192 0.004310
vt 0.841590 0.061699
vt 0.840531 0.033557
vt 0.841675 0.004310
vt 0.842305 0.089655
vt 0.811601 0.089655
vt 0.810948 0.061699
vt 0.809976 0.033557
vt 0.811032 0.004310
vt 0.779282 0.061699
vt 0.778401 0.033557
vt 0.779360 0.004310
vt 0.779869 0.089655
vt 0.747211 0.089655
vt 0.746694 0.061699
vt 0.745906 0.033557
vt 0.746764 0.004310
vt 0.712600 0.033557
vt 0.713352 0.004310
vt 0.713737 0.089655
vt 0.713290 0.061699
vt 0.679555 0.089655
vt 0.679173 0.061699
vt 0.678592 0.033557
vt 0.679234 0.004310
vt 0.644013 0.033557
vt 0.644518 0.004310
vt 0.644774 0.089655
vt 0.644434 0.061699
vt 0.609506 0.089655
vt 0.609200 0.061699
vt 0.608926 0.033557
vt 0.609301 0.004310
vt 0.573893 0.089655
vt 0.573649 0.061699
vt 0.573418 0.033557
vt 0.573711 0.004310
vt 0.538069 0.089655
vt 0.537816 0.061699
vt 0.537657 0.033557
vt 0.537869 0.004310
vn 0.0865 0.4696 -0.8786
vn 0.0938 0.2890 -0.9527
vn 0.0975 0.0975 -0.9904
vn 0.2889 0.0975 -0.9524
vn 0.2563 0.4696 -0.8448
vn 0.2779 0.2890 -0.9161
vn 0.4162 0.4696 -0.7786
vn 0.4513 0.2890 -0.8443
vn 0.4691 0.0975 -0.8777
vn 0.5601 0.4696 -0.6825
vn 0.6073 0.2890 -0.7400
vn 0.6314 0.0976 -0.7693
vn 0.6825 0.4696 -0.5601
vn 0.7400 0.2890 -0.6073
vn 0.7693 0.0975 -0.6314
vn 0.7786 0.4696 -0.4162
vn 0.8443 0.2890 -0.4513
vn 0.8777 0.0976 -0.4691
vn 0.8448 0.4696 -0.2563
vn 0.9161 0.2890 -0.2779
vn 0.9524 0.0976 -0.2889
vn 0.8786 0.4696 -0.0865
vn 0.9527 0.2890 -0.0938
vn 0.9904 0.0976 -0.0975
vn 0.8786 0.4696 0.0865
vn 0.9527 0.2890 0.0938
vn 0.9904 0.0976 0.0975
vn 0.8448 0.4696 0.2563
vn 0.9161 0.2890 0.2779
vn 0.9524 0.0976 0.2889
vn 0.8443 0.2890 0.4513
vn 0.8777 0.0976 0.4691
vn 0.7786 0.4696 0.4162
vn 0.6825 0.4696 0.5601
vn 0.7400 0.2890 0.6073
vn 0.7693 0.0976 0.6314
vn 0.6314 0.0976 0.7693
vn 0.5601 0.4696 0.6825
vn 0.6073 0.2890 0.7400
vn 0.4162 0.4696 0.7786
vn 0.4513 0.2890 0.8443
vn 0.4691 0.0976 0.8777
vn 0.2889 0.0976 0.9524
vn 0.2563 0.4696 0.8448
vn 0.2779 0.2890 0.9161
vn 0.0865 0.4696 0.8786
vn 0.0938 0.2890 0.9527
vn 0.0975 0.0976 0.9904
vn -0.0865 0.4696 0.8786
vn -0.0938 0.2890 0.9527
vn -0.0976 0.0976 0.9904
vn -0.2563 0.4696 0.8448
vn -0.2779 0.2890 0.9161
vn -0.2889 0.0976 0.9524
vn -0.4162 0.4696 0.7786
vn -0.4513 0.2890 0.8443
vn -0.4691 0.0976 0.8777
vn -0.5601 0.4696 0.6825
vn -0.6073 0.2890 0.7400
vn -0.6314 0.0976 0.7693
vn -0.6825 0.4696 0.5601
vn -0.7400 0.2890 0.6073
vn -0.7693 0.0976 0.6314
vn -0.8443 0.2890 0.4513
vn -0.8777 0.0976 0.4691
vn -0.7786 0.4696 0.4162
vn -0.8448 0.4696 0.2563
vn -0.9161 0.2890 0.2779
vn -0.9524 0.0976 0.2889
vn -0.9527 0.2890 0.0938
vn -0.9904 0.0976 0.0975
vn -0.8786 0.4696 0.0865
vn -0.8786 0.4696 -0.0865
vn -0.9527 0.2890 -0.0938
vn -0.9904 0.0976 -0.0976
vn -0.9524 0.0976 -0.2889
vn -0.8448 0.4696 -0.2563
vn -0.9161 0.2890 -0.2779
vn -0.7786 0.4696 -0.4162
vn -0.8443 0.2890 -0.4513
vn -0.8777 0.0976 -0.4691
vn -0.7693 0.0976 -0.6314
vn -0.6825 0.4696 -0.5601
vn -0.7400 0.2890 -0.6073
vn -0.5601 0.4696 -0.6825
vn -0.6073 0.2890 -0.7400
vn -0.6314 0.0976 -0.7693
vn -0.4162 0.4696 -0.7786
vn -0.4513 0.2890 -0.8443
vn -0.4691 0.0976 -0.8777
vn -0.2563 0.4696 -0.8448
vn -0.2779 0.2890 -0.9161
vn -0.2889 0.0976 -0.9524
vn -0.0865 0.4696 -0.8786
vn -0.0938 0.2890 -0.9527
vn -0.0976 0.0976 -0.9904
usemtl None
s off
f 2/1/1 1/2/1 5/3/1 6/4/1
f 3/5/2 2/1/2 6/4/2 7/6/2
f 4/7/3 3/5/3 7/6/3 8/8/3
f 8/8/4 7/6/4 11/9/4 12/10/4
f 6/4/5 5/3/5 9/11/5 10/12/5
f 7/6/6 6/4/6 10/12/6 11/9/6
f 10/12/7 9/11/7 13/13/7 14/14/7
f 11/9/8 10/12/8 14/14/8 15/15/8
f 12/10/9 11/9/9 15/15/9 16/16/9
f 14/14/10 13/13/10 17/17/10 18/18/10
f 15/15/11 14/14/11 18/18/11 19/19/11
f 16/16/12 15/15/12 19/19/12 20/20/12
f 18/18/13 17/17/13 21/21/13 22/22/13
f 19/19/14 18/18/14 22/22/14 23/23/14
f 20/20/15 19/19/15 23/23/15 24/24/15
f 22/22/16 21/21/16 25/25/16 26/26/16
f 23/23/17 22/22/17 26/26/17 27/27/17
f 24/24/18 23/23/18 27/27/18 28/28/18
f 26/26/19 25/25/19 29/29/19 30/30/19
f 27/27/20 26/26/20 30/30/20 31/31/20
f 28/28/21 27/27/21 31/31/21 32/32/21
f 30/30/22 29/29/22 33/33/22 34/34/22
f 31/31/23 30/30/23 34/34/23 35/35/23
f 32/32/24 31/31/24 35/35/24 36/36/24
f 34/34/25 33/33/25 37/37/25 38/38/25
f 35/35/26 34/34/26 38/38/26 39/39/26
f 36/36/27 35/35/27 39/39/27 40/40/27
f 38/38/28 37/37/28 41/41/28 42/42/28
f 39/39/29 38/38/29 42/42/29 43/43/29
f 40/40/30 39/39/30 43/43/30 44/44/30
f 43/43/31 42/42/31 46/45/31 47/46/31
f 44/44/32 43/43/32 47/46/32 48/47/32
f 42/42/33 41/41/33 45/48/33 46/45/33
f 46/45/34 45/48/34 49/49/34 50/50/34
f 47/46/35 46/45/35 50/50/35 51/51/35
f 48/47/36 47/46/36 51/51/36 52/52/36
f 52/52/37 51/51/37 55/53/37 56/54/37
f 50/50/38 49/49/38 53/55/38 54/56/38
f 51/51/39 50/50/39 54/56/39 55/53/39
f 54/56/40 53/55/40 57/57/40 58/58/40
f 55/53/41 54/56/41 58/58/41 59/59/41
f 56/54/42 55/53/42 59/59/42 60/60/42
f 60/60/43 59/59/43 63/61/43 64/62/43
f 58/58/44 57/57/44 61/63/44 62/64/44
f 59/59/45 58/58/45 62/64/45 63/61/45
f 62/64/46 61/63/46 65/65/46 66/66/46
f 63/61/47 62/64/47 66/66/47 67/67/47
f 64/62/48 63/61/48 67/67/48 68/68/48
f 66/69/49 65/70/49 69/71/49 70/72/49
f 67/73/50 66/69/50 70/72/50 71/74/50
f 68/75/51 67/73/51 71/74/51 72/76/51
f 70/72/52 69/71/52 73/77/52 74/78/52
f 71/74/53 70/72/53 74/78/53 75/79/53
f 72/76/54 71/74/54 75/79/54 76/80/54
f 74/78/55 73/77/55 77/81/55 78/82/55
f 75/79/56 74/78/56 78/82/56 79/83/56
f 76/80/57 75/79/57 79/83/57 80/84/57
f 78/82/58 77/81/58 81/85/58 82/86/58
f 79/83/59 78/82/59 82/86/59 83/87/59
f 80/84/60 79/83/60 83/87/60 84/88/60
f 82/86/61 81/85/61 85/89/61 86/90/61
f 83/87/62 82/86/62 86/90/62 87/91/62
f 84/88/63 83/87/63 87/91/63 88/92/63
f 87/91/64 86/90/64 90/93/64 91/94/64
f 88/92/65 87/91/65 91/94/65 92/95/65
f 86/90/66 85/89/66 89/96/66 90/93/66
f 90/93/67 89/96/67 93/97/67 94/98/67
f 91/94/68 90/93/68 94/98/68 95/99/68
f 92/95/69 91/94/69 95/99/69 96/100/69
f 95/99/70 94/98/70 98/101/70 99/102/70
f 96/100/71 95/99/71 99/102/71 100/103/71
f 94/98/72 93/97/72 97/104/72 98/101/72
f 98/101/73 97/104/73 101/105/73 102/106/73
f 99/102/74 98/101/74 102/106/74 103/107/74
f 100/103/75 99/102/75 103/107/75 104/108/75
f 104/108/76 103/107/76 107/109/76 108/110/76
f 102/106/77 101/105/77 105/111/77 106/112/77
f 103/107/78 102/106/78 106/112/78 107/109/78
f 106/112/79 105/111/79 109/113/79 110/114/79
f 107/109/80 106/112/80 110/114/80 111/115/80
f 108/110/81 107/109/81 111/115/81 112/116/81
f 112/116/82 111/115/82 115/117/82 116/118/82
f 110/114/83 109/113/83 113/119/83 114/120/83
f 111/115/84 110/114/84 114/120/84 115/117/84
f 114/120/85 113/119/85 117/121/85 118/122/85
f 115/117/86 114/120/86 118/122/86 119/123/86
f 116/118/87 115/117/87 119/123/87 120/124/87
f 118/122/88 117/121/88 121/125/88 122/126/88
f 119/123/89 118/122/89 122/126/89 123/127/89
f 120/124/90 119/123/90 123/127/90 124/128/90
f 122/126/91 121/125/91 125/129/91 126/130/91
f 123/127/92 122/126/92 126/130/92 127/131/92
f 124/128/93 123/127/93 127/131/93 128/132/93
f 126/130/94 125/129/94 1/2/94 2/1/94
f 127/131/95 126/130/95 2/1/95 3/5/95
f 128/132/96 127/131/96 3/5/96 4/7/96
