# Blender v2.79 (sub 0) OBJ File: 'SpikyCylinder.blend'
# www.blender.org
mtllib SpikyCylinder.mtl
o Cylinder
v -0.000049 -0.347261 -0.275947
v 0.000000 -0.025624 -0.200000
v 0.105551 -0.347261 -0.254942
v 0.076537 0.750000 -0.184776
v 0.195074 -0.347261 -0.195124
v 0.141421 0.553406 -0.141421
v 0.254892 -0.347261 -0.105600
v 0.184776 0.750000 -0.076537
v 0.275897 -0.347261 0.000000
v 0.200000 0.325548 0.000000
v 0.254892 -0.347261 0.105600
v 0.184776 0.468765 0.076537
v 0.195074 -0.347261 0.195124
v 0.141421 -0.007445 0.141421
v 0.105551 -0.347261 0.254942
v 0.076537 0.706324 0.184776
v -0.000049 -0.347261 0.275947
v 0.000000 0.369219 0.200000
v -0.105650 -0.347261 0.254942
v -0.076537 0.750000 0.184776
v -0.195173 -0.347261 0.195124
v -0.141421 -0.046906 0.141421
v -0.254991 -0.347261 0.105600
v -0.184776 0.621474 0.076537
v -0.273121 -0.347261 -0.000000
v -0.197916 0.519724 -0.000000
v -0.254991 -0.347261 -0.105600
v -0.184776 0.900034 -0.076537
v -0.195173 -0.347261 -0.195124
v -0.141421 0.463709 -0.141421
v -0.105650 -0.347261 -0.254942
v -0.076537 0.813073 -0.184776
vt 0.110548 0.005768
vt 0.132672 0.266385
vt 0.111469 0.888418
vt 0.047159 0.013023
vt 0.071018 0.738488
vt 0.000000 0.021856
vt 0.491484 0.000388
vt 0.491484 0.722782
vt 0.458783 0.878762
vt 0.435332 0.000000
vt 0.392329 0.543763
vt 0.367464 0.003273
vt 0.347961 0.662262
vt 0.298211 0.009710
vt 1.000000 0.004346
vt 1.000000 0.657926
vt 0.951680 0.277197
vt 0.972058 0.000000
vt 0.869182 0.000000
vt 0.887545 0.276794
vt 0.826751 0.846135
vt 0.826751 0.002881
vt 0.763997 0.005296
vt 0.727205 0.848362
vt 0.683185 0.576981
vt 0.698973 0.001141
vt 0.628852 0.879294
vt 0.628852 0.000000
vt 0.826751 0.001962
vt 0.826751 0.880666
vt 0.763997 0.244972
vt 0.784789 0.000000
vt 0.936825 0.000000
vt 0.951680 0.245576
vt 0.887545 0.777900
vt 0.887546 0.001819
vt 0.628852 0.003764
vt 0.595748 0.779798
vt 0.547282 0.696518
vt 0.559611 0.000780
vt 0.491484 0.999139
vt 0.491484 0.000000
vt 0.298211 0.002365
vt 0.298211 1.000000
vt 0.246754 0.651321
vt 0.246417 0.000000
vt 0.210136 0.930000
vt 0.180518 0.001195
vn -0.2143 0.0957 -0.9721
vn 0.6175 0.0741 -0.7830
vn 0.7830 0.0741 -0.6175
vn 0.9966 0.0823 -0.0064
vn 0.9880 0.0992 0.1185
vn 0.6107 0.1214 0.7825
vn 0.8258 0.0984 0.5554
vn 0.0446 0.0829 0.9956
vn -0.0294 0.0807 0.9963
vn -0.8472 0.0965 0.5224
vn -0.5464 0.1075 0.8306
vn -0.9889 0.0803 0.1249
vn -0.9972 0.0690 -0.0272
vn -0.7247 0.0712 -0.6854
vn -0.6653 0.0746 -0.7429
vn 0.2268 0.0911 -0.9697
usemtl Material.001
s off
f 1/1/1 2/2/1 4/3/1 3/4/1
f 3/4/2 4/3/2 6/5/2 5/6/2
f 5/7/3 6/8/3 8/9/3 7/10/3
f 7/10/4 8/9/4 10/11/4 9/12/4
f 9/12/5 10/11/5 12/13/5 11/14/5
f 11/15/6 12/16/6 14/17/6 13/18/6
f 13/19/7 14/20/7 16/21/7 15/22/7
f 15/23/8 16/24/8 18/25/8 17/26/8
f 17/26/9 18/25/9 20/27/9 19/28/9
f 19/29/10 20/30/10 22/31/10 21/32/10
f 21/33/11 22/34/11 24/35/11 23/36/11
f 23/37/12 24/38/12 26/39/12 25/40/12
f 25/40/13 26/39/13 28/41/13 27/42/13
f 27/43/14 28/44/14 30/45/14 29/46/14
f 29/46/15 30/45/15 32/47/15 31/48/15
f 31/48/16 32/47/16 2/2/16 1/1/16
