# This file uses centimeters as units for non-parametric coordinates.

mtllib SpikeRIng.mtl
g default
v 0.000000 21.668152 0.000000
v 4.548233 12.134589 -1.720047
v -3.453872 12.134589 -3.453872
v -1.271458 12.134589 4.523066
v 0.000000 9.930223 -0.000000
v -13.043470 6.676956 0.000000
v -3.646971 11.502001 -1.720047
v -3.412993 3.503317 -3.453872
v -3.476806 5.684799 4.523066
v -1.310559 7.020167 -0.000000
v 14.048194 8.000000 0.000000
v 4.514630 3.451767 -1.720047
v 4.514630 11.453873 -3.453872
v 4.514630 9.271458 4.523066
v 2.310264 8.000000 -0.000000
v 1.000000 -7.048194 0.000000
v -3.548233 2.485370 -1.720047
v 4.453873 2.485370 -3.453872
v 2.271458 2.485370 4.523066
v 1.000000 4.689735 -0.000000
v 0.000000 21.668152 0.000000
v 4.548233 12.134589 -1.720047
v -3.453872 12.134589 -3.453872
v -1.271458 12.134589 4.523066
v 0.000000 9.930223 -0.000000
v -13.043470 6.676956 0.000000
v -3.646971 11.502001 -1.720047
v -3.412993 3.503317 -3.453872
v -3.476806 5.684799 4.523066
v -1.310559 7.020167 -0.000000
v 14.048194 8.000000 0.000000
v 4.514630 3.451767 -1.720047
v 4.514630 11.453873 -3.453872
v 4.514630 9.271458 4.523066
v 2.310264 8.000000 -0.000000
v 1.000000 -7.048194 0.000000
v -3.548233 2.485370 -1.720047
v 4.453873 2.485370 -3.453872
v 2.271458 2.485370 4.523066
v 1.000000 4.689735 -0.000000
vt 0.000000 0.500000
vt -0.500000 0.000000
vt 0.500000 0.000000
vt 0.000000 0.500000
vt -0.500000 0.000000
vt 0.000000 -0.500000
vt 0.500000 0.000000
vt -0.500000 0.000000
vt 0.000000 0.500000
vt 0.000000 -0.500000
vt -0.500000 0.000000
vt 0.000000 0.500000
vt 0.000000 0.500000
vt 0.000000 -0.500000
vt 0.500000 0.000000
vt 0.000000 -0.500000
vt 0.000000 0.500000
vt 0.500000 0.000000
vt -0.500000 0.000000
vt 0.000000 -0.500000
vt 0.500000 0.000000
vt -0.500000 0.000000
vt 0.500000 0.000000
vt 0.000000 -0.500000
vt 0.000000 0.500000
vt -0.500000 0.000000
vt 0.500000 0.000000
vt 0.000000 0.500000
vt -0.500000 0.000000
vt 0.000000 -0.500000
vt 0.000000 0.500000
vt 0.500000 0.000000
vt 0.000000 0.500000
vt 0.000000 0.500000
vt 0.000000 -0.500000
vt 0.500000 0.000000
vt -0.500000 0.000000
vt 0.000000 -0.500000
vt 0.500000 0.000000
vt -0.500000 0.000000
vt 0.000000 0.500000
vt -0.500000 0.000000
vt 0.500000 0.000000
vt 0.000000 0.500000
vt -0.500000 0.000000
vt 0.000000 -0.500000
vt 0.000000 0.500000
vt 0.500000 0.000000
vt 0.000000 0.500000
vt 0.000000 0.500000
vt 0.000000 -0.500000
vt 0.500000 0.000000
vt -0.500000 0.000000
vt 0.000000 -0.500000
vt 0.500000 0.000000
vt -0.500000 0.000000
vt 0.000000 0.500000
vt -0.500000 0.000000
vt 0.500000 0.000000
vt 0.000000 0.500000
vt -0.500000 0.000000
vt 0.000000 -0.500000
vt 0.000000 0.500000
vt 0.500000 0.000000
vt 0.000000 0.500000
vt 0.000000 0.500000
vt 0.000000 -0.500000
vt 0.500000 0.000000
vt -0.500000 0.000000
vt 0.000000 -0.500000
vt 0.500000 0.000000
vt -0.500000 0.000000
vt 0.000000 0.500000
vt -0.500000 0.000000
vt 0.500000 0.000000
vt 0.000000 0.500000
vt -0.500000 0.000000
vt 0.000000 -0.500000
vt 0.000000 0.500000
vt 0.500000 0.000000
vt 0.000000 0.500000
vt 0.000000 0.500000
vt 0.000000 -0.500000
vt 0.500000 0.000000
vt -0.500000 0.000000
vt 0.000000 -0.500000
vt 0.500000 0.000000
vt -0.500000 0.000000
vt 0.000000 0.500000
vt -0.500000 0.000000
vt 0.500000 0.000000
vt 0.000000 0.500000
vt -0.500000 0.000000
vt 0.000000 -0.500000
vt 0.000000 0.500000
vt 0.500000 0.000000
vt 0.000000 0.500000
vt 0.000000 0.500000
vt 0.000000 -0.500000
vt 0.500000 0.000000
vt -0.500000 0.000000
vt 0.000000 -0.500000
vt 0.500000 0.000000
vt -0.500000 0.000000
vt 0.000000 0.500000
vt -0.500000 0.000000
vt 0.500000 0.000000
vt 0.000000 0.500000
vt -0.500000 0.000000
vt 0.000000 -0.500000
vt 0.000000 0.500000
vt 0.500000 0.000000
vt 0.000000 0.500000
vt 0.000000 0.500000
vt 0.000000 -0.500000
vt 0.500000 0.000000
vt -0.500000 0.000000
vt 0.000000 -0.500000
vt 0.500000 0.000000
vt -0.500000 0.000000
vt 0.000000 0.500000
vt -0.500000 0.000000
vt 0.500000 0.000000
vt 0.000000 0.500000
vt -0.500000 0.000000
vt 0.000000 -0.500000
vt 0.000000 0.500000
vt 0.500000 0.000000
vt 0.000000 0.500000
vt 0.000000 0.500000
vt 0.000000 -0.500000
vt 0.500000 0.000000
vt -0.500000 0.000000
vt 0.000000 -0.500000
vt 0.500000 0.000000
vt -0.500000 0.000000
vn 0.713491 0.220392 0.665100
vn 0.713491 0.220392 0.665100
vn 0.713491 0.220392 0.665100
vn 0.135596 -0.768093 -0.625817
vn 0.135596 -0.768093 -0.625817
vn 0.135596 -0.768093 -0.625817
vn -0.934902 0.246036 0.255780
vn -0.934902 0.246036 0.255780
vn -0.934903 0.246036 0.255780
vn 0.204055 0.267264 -0.941771
vn 0.204055 0.267264 -0.941771
vn 0.204055 0.267264 -0.941771
vn 0.523164 -0.698903 0.487682
vn 0.523164 -0.698903 0.487682
vn 0.523164 -0.698903 0.487682
vn -0.649534 -0.739275 0.177706
vn -0.649533 -0.739275 0.177706
vn -0.649534 -0.739274 0.177706
vn -0.241160 0.706742 0.665100
vn -0.241160 0.706742 0.665100
vn -0.241160 0.706742 0.665100
vn 0.763800 0.157997 -0.625817
vn 0.763800 0.157997 -0.625817
vn 0.763800 0.157997 -0.625817
vn -0.218595 -0.941697 0.255780
vn -0.218595 -0.941697 0.255780
vn -0.218595 -0.941697 0.255780
vn -0.273116 0.196153 -0.941771
vn -0.273116 0.196153 -0.941771
vn -0.273116 0.196153 -0.941771
vn 0.683307 0.543376 0.487682
vn 0.683307 0.543376 0.487682
vn 0.683307 0.543376 0.487682
vn 0.757950 -0.627640 0.177706
vn 0.757950 -0.627640 0.177706
vn 0.757950 -0.627640 0.177706
vn 0.220392 -0.713491 0.665100
vn 0.220392 -0.713491 0.665100
vn 0.220392 -0.713491 0.665100
vn -0.768093 -0.135596 -0.625817
vn -0.768093 -0.135596 -0.625817
vn -0.768093 -0.135596 -0.625817
vn 0.246036 0.934902 0.255780
vn 0.246036 0.934902 0.255780
vn 0.246036 0.934903 0.255780
vn 0.267264 -0.204055 -0.941771
vn 0.267264 -0.204055 -0.941771
vn 0.267264 -0.204055 -0.941771
vn -0.698903 -0.523164 0.487682
vn -0.698903 -0.523164 0.487682
vn -0.698903 -0.523164 0.487682
vn -0.739275 0.649534 0.177706
vn -0.739275 0.649533 0.177706
vn -0.739274 0.649534 0.177706
vn -0.713491 -0.220392 0.665100
vn -0.713491 -0.220392 0.665100
vn -0.713491 -0.220392 0.665100
vn -0.135596 0.768093 -0.625817
vn -0.135596 0.768093 -0.625817
vn -0.135596 0.768093 -0.625817
vn 0.934902 -0.246036 0.255780
vn 0.934902 -0.246036 0.255780
vn 0.934903 -0.246036 0.255780
vn -0.204055 -0.267264 -0.941771
vn -0.204055 -0.267264 -0.941771
vn -0.204055 -0.267264 -0.941771
vn -0.523164 0.698903 0.487682
vn -0.523164 0.698903 0.487682
vn -0.523164 0.698903 0.487682
vn 0.649534 0.739275 0.177706
vn 0.649533 0.739275 0.177706
vn 0.649534 0.739274 0.177706
vn 0.713491 0.220392 0.665100
vn 0.713491 0.220392 0.665100
vn 0.713491 0.220392 0.665100
vn 0.135596 -0.768093 -0.625817
vn 0.135596 -0.768093 -0.625817
vn 0.135596 -0.768093 -0.625817
vn -0.934902 0.246036 0.255780
vn -0.934902 0.246036 0.255780
vn -0.934903 0.246036 0.255780
vn 0.204055 0.267264 -0.941771
vn 0.204055 0.267264 -0.941771
vn 0.204055 0.267264 -0.941771
vn 0.523164 -0.698903 0.487682
vn 0.523164 -0.698903 0.487682
vn 0.523164 -0.698903 0.487682
vn -0.649534 -0.739275 0.177706
vn -0.649533 -0.739275 0.177706
vn -0.649534 -0.739274 0.177706
vn -0.241160 0.706742 0.665100
vn -0.241160 0.706742 0.665100
vn -0.241160 0.706742 0.665100
vn 0.763800 0.157997 -0.625817
vn 0.763800 0.157997 -0.625817
vn 0.763800 0.157997 -0.625817
vn -0.218595 -0.941697 0.255780
vn -0.218595 -0.941697 0.255780
vn -0.218595 -0.941697 0.255780
vn -0.273116 0.196153 -0.941771
vn -0.273116 0.196153 -0.941771
vn -0.273116 0.196153 -0.941771
vn 0.683307 0.543376 0.487682
vn 0.683307 0.543376 0.487682
vn 0.683307 0.543376 0.487682
vn 0.757950 -0.627640 0.177706
vn 0.757950 -0.627640 0.177706
vn 0.757950 -0.627640 0.177706
vn 0.220392 -0.713491 0.665100
vn 0.220392 -0.713491 0.665100
vn 0.220392 -0.713491 0.665100
vn -0.768093 -0.135596 -0.625817
vn -0.768093 -0.135596 -0.625817
vn -0.768093 -0.135596 -0.625817
vn 0.246036 0.934902 0.255780
vn 0.246036 0.934902 0.255780
vn 0.246036 0.934903 0.255780
vn 0.267264 -0.204055 -0.941771
vn 0.267264 -0.204055 -0.941771
vn 0.267264 -0.204055 -0.941771
vn -0.698903 -0.523164 0.487682
vn -0.698903 -0.523164 0.487682
vn -0.698903 -0.523164 0.487682
vn -0.739275 0.649534 0.177706
vn -0.739275 0.649533 0.177706
vn -0.739274 0.649534 0.177706
vn -0.713491 -0.220392 0.665100
vn -0.713491 -0.220392 0.665100
vn -0.713491 -0.220392 0.665100
vn -0.135596 0.768093 -0.625817
vn -0.135596 0.768093 -0.625817
vn -0.135596 0.768093 -0.625817
vn 0.934902 -0.246036 0.255780
vn 0.934902 -0.246036 0.255780
vn 0.934903 -0.246036 0.255780
vn -0.204055 -0.267264 -0.941771
vn -0.204055 -0.267264 -0.941771
vn -0.204055 -0.267264 -0.941771
vn -0.523164 0.698903 0.487682
vn -0.523164 0.698903 0.487682
vn -0.523164 0.698903 0.487682
vn 0.649534 0.739275 0.177706
vn 0.649533 0.739275 0.177706
vn 0.649534 0.739274 0.177706
s off
g PolySpikeSimple8
usemtl initialShadingGroup
f 1/1/1 4/2/2 2/3/3
f 2/4/4 5/5/5 3/6/6
f 1/9/7 3/23/8 4/17/9
f 2/13/10 3/14/11 1/15/12
f 4/19/13 5/20/14 2/21/15
f 3/23/16 5/11/17 4/17/18
f 6/25/19 9/26/20 7/27/21
f 7/28/22 10/29/23 8/30/24
f 6/31/25 8/32/26 9/33/27
f 7/34/28 8/35/29 6/36/30
f 9/37/31 10/38/32 7/39/33
f 8/32/34 10/40/35 9/33/36
f 11/41/37 14/42/38 12/43/39
f 12/44/40 15/45/41 13/46/42
f 11/47/43 13/48/44 14/49/45
f 12/50/46 13/51/47 11/52/48
f 14/53/49 15/54/50 12/55/51
f 13/48/52 15/56/53 14/49/54
f 16/57/55 19/58/56 17/59/57
f 17/60/58 20/61/59 18/62/60
f 16/63/61 18/64/62 19/65/63
f 17/66/64 18/67/65 16/68/66
f 19/69/67 20/70/68 17/71/69
f 18/64/70 20/72/71 19/65/72
f 21/73/73 24/74/74 22/75/75
f 22/76/76 25/77/77 23/78/78
f 21/79/79 23/80/80 24/81/81
f 22/82/82 23/83/83 21/84/84
f 24/85/85 25/86/86 22/87/87
f 23/80/88 25/88/89 24/81/90
f 26/89/91 29/90/92 27/91/93
f 27/92/94 30/93/95 28/94/96
f 26/95/97 28/96/98 29/97/99
f 27/98/100 28/99/101 26/100/102
f 29/101/103 30/102/104 27/103/105
f 28/96/106 30/104/107 29/97/108
f 31/105/109 34/106/110 32/107/111
f 32/108/112 35/109/113 33/110/114
f 31/111/115 33/112/116 34/113/117
f 32/114/118 33/115/119 31/116/120
f 34/117/121 35/118/122 32/119/123
f 33/112/124 35/120/125 34/113/126
f 36/121/127 39/122/128 37/123/129
f 37/124/130 40/125/131 38/126/132
f 36/127/133 38/128/134 39/129/135
f 37/130/136 38/131/137 36/132/138
f 39/133/139 40/134/140 37/135/141
f 38/128/142 40/136/143 39/129/144
