# Blender v2.79 (sub 0) OBJ File: 'BuildingDecoration01.blend'
# www.blender.org
mtllib CameraBottom.mtl
o CameraBottom_Building1Wall_Cube.011
v -0.072770 -0.116230 -0.024725
v -0.072770 -0.116230 0.025797
v 0.072770 -0.116230 -0.024725
v 0.072770 -0.116230 0.025797
v -0.072770 0.275064 -0.024725
v -0.072770 0.256778 0.025797
v 0.072770 0.275064 -0.024725
v 0.072770 0.256778 0.025797
v 0.063284 0.296833 0.437076
v 0.063284 0.329008 0.407158
v -0.063284 0.296833 0.437076
v -0.063284 0.329008 0.407158
v -0.072770 0.336453 0.593268
v -0.072770 0.285931 0.593268
v 0.072770 0.336453 0.593268
v 0.072770 0.285931 0.593268
v 0.072770 0.285931 0.056510
v 0.072770 0.336453 0.033885
v -0.072770 0.285931 0.056510
v -0.072770 0.336453 0.033885
v 0.063284 -0.079580 0.017517
v 0.063284 -0.047404 -0.012401
v -0.063284 -0.079580 0.017517
v -0.063284 -0.047404 -0.012401
v -0.036529 0.329350 0.518686
v -0.051879 0.329350 0.481628
v 0.000530 0.329350 0.534037
v 0.037588 0.329350 0.518686
v 0.052938 0.329350 0.481628
v 0.037588 0.329350 0.444569
v 0.000530 0.329350 0.429219
v -0.036529 0.329350 0.444569
v -0.036529 0.442517 0.518686
v -0.051879 0.442517 0.481628
v 0.000530 0.442517 0.534037
v 0.037588 0.442517 0.518686
v 0.052938 0.442517 0.481628
v 0.037588 0.442517 0.444569
v 0.000530 0.442517 0.429219
v -0.036529 0.442517 0.444569
vt 0.303815 0.353995
vt 0.308910 0.353995
vt 0.308910 0.368672
vt 0.303815 0.368672
vt 0.334155 0.345831
vt 0.339250 0.345831
vt 0.339250 0.385292
vt 0.334155 0.383448
vt 0.359620 0.366180
vt 0.354525 0.366180
vt 0.354525 0.403797
vt 0.359620 0.405641
vt 0.314549 0.323165
vt 0.314549 0.337842
vt 0.275089 0.337842
vt 0.275089 0.323165
vt 0.266198 0.368672
vt 0.266198 0.353995
vt 0.351428 0.406737
vt 0.353710 0.411831
vt 0.205022 0.337842
vt 0.205022 0.323165
vt 0.210117 0.323165
vt 0.210117 0.337842
vt 0.264826 0.397878
vt 0.264905 0.402308
vt 0.208061 0.402308
vt 0.207982 0.397878
vt 0.264826 0.385114
vt 0.207982 0.385114
vt 0.333339 0.391483
vt 0.331058 0.386388
vt 0.264905 0.380684
vt 0.208061 0.380684
vt 0.297297 0.406737
vt 0.297297 0.411831
vt 0.261928 0.368672
vt 0.207797 0.368672
vt 0.207797 0.353995
vt 0.261928 0.353995
vt 0.266529 0.337842
vt 0.266529 0.323165
vt 0.276927 0.391483
vt 0.276927 0.386388
vt 0.264905 0.415072
vt 0.208061 0.415072
vt 0.369322 0.324366
vt 0.373367 0.324366
vt 0.373367 0.335778
vt 0.369322 0.335778
vt 0.361231 0.324366
vt 0.365277 0.324366
vt 0.365277 0.335778
vt 0.361232 0.335778
vt 0.353141 0.324366
vt 0.357186 0.324366
vt 0.357186 0.335778
vt 0.353141 0.335778
vt 0.349096 0.324366
vt 0.349096 0.335778
vt 0.377412 0.324366
vt 0.377412 0.335778
vt 0.345051 0.324366
vt 0.345051 0.335778
vn 0.0000 -1.0000 -0.0000
vn 1.0000 -0.0000 0.0000
vn -1.0000 -0.0000 0.0000
vn 0.0000 0.0000 -1.0000
vn 0.0000 -0.0000 1.0000
vn 0.0000 0.7443 -0.6678
vn 0.0000 1.0000 0.0000
vn 0.0000 0.6905 -0.7233
vn 0.0000 -0.7443 0.6678
vn 0.0000 -0.7253 0.6885
vn 0.7071 0.0000 -0.7071
vn 0.7071 0.0000 0.7071
vn -0.7071 0.0000 0.7071
vn -0.7071 0.0000 -0.7071
usemtl UV
s off
f 2/1/1 1/2/1 3/3/1 4/4/1
f 4/5/2 3/6/2 7/7/2 8/8/2
f 1/9/3 2/10/3 6/11/3 5/12/3
f 3/13/4 1/14/4 5/15/4 7/16/4
f 2/1/5 4/4/5 8/17/5 6/18/5
f 6/11/3 19/19/3 20/20/3 5/12/3
f 14/21/5 16/22/5 15/23/5 13/24/5
f 10/25/2 9/26/2 21/27/2 22/28/2
f 12/29/6 10/25/6 22/28/6 24/30/6
f 7/7/2 18/31/2 17/32/2 8/8/2
f 11/33/3 12/29/3 24/30/3 23/34/3
f 19/19/3 14/35/3 13/36/3 20/20/3
f 17/37/1 16/38/1 14/39/1 19/40/1
f 20/41/7 13/24/7 15/23/7 18/42/7
f 18/31/2 15/43/2 16/44/2 17/32/2
f 5/15/8 20/41/8 18/42/8 7/16/8
f 9/26/9 11/45/9 23/46/9 21/27/9
f 8/17/10 17/37/10 19/40/10 6/18/10
s 1
f 29/47/2 30/48/11 38/49/11 37/50/2
f 27/51/5 28/52/12 36/53/12 35/54/5
f 26/55/3 25/56/13 33/57/13 34/58/3
f 32/59/14 26/55/3 34/58/3 40/60/14
f 30/48/11 31/61/4 39/62/4 38/49/11
f 28/52/12 29/47/2 37/50/2 36/53/12
f 25/56/13 27/51/5 35/54/5 33/57/13
f 31/63/4 32/59/14 40/60/14 39/64/4
