# Blender v2.79 (sub 0) OBJ File: ''
# www.blender.org
mtllib PowerUP_Health.mtl
o PowerUP_Health_Cube.004
v 0.821624 2.576343 0.100000
v 0.538764 2.240494 0.100000
v 0.952989 2.444978 0.100000
v 0.850872 2.305819 0.100000
v 0.700985 2.455705 0.100000
v 0.738743 2.246751 0.100000
v 0.930463 2.596652 0.100000
v 0.886198 2.640917 0.100000
v 0.576343 2.821624 0.100000
v 0.240494 2.538764 0.100000
v 0.389629 2.389629 0.100000
v 0.444978 2.952989 0.100000
v 0.305818 2.850872 0.100000
v 0.455705 2.700985 0.100000
v 0.492747 2.492747 0.100000
v 0.246751 2.738743 0.100000
v 0.596651 2.930463 0.100000
v 0.640917 2.886198 0.100000
v -0.576343 1.178376 0.100000
v -0.240494 1.461236 0.100000
v -0.444978 1.047011 0.100000
v -0.305818 1.149128 0.100000
v -0.455705 1.299014 0.100000
v -0.246751 1.261257 0.100000
v -0.596651 1.069537 0.100000
v -0.640917 1.113802 0.100000
v -0.821624 1.423657 0.100000
v -0.538764 1.759506 0.100000
v -0.389629 1.610371 0.100000
v -0.952989 1.555022 0.100000
v -0.850872 1.694181 0.100000
v -0.700985 1.544295 0.100000
v -0.492747 1.507253 0.100000
v -0.738743 1.753249 0.100000
v -0.930463 1.403348 0.100000
v -0.886198 1.359083 0.100000
v 0.821624 2.576343 -0.124345
v 0.538764 2.240494 -0.124345
v 0.952989 2.444978 -0.124345
v 0.850872 2.305819 -0.124345
v 0.700985 2.455705 -0.124345
v 0.738743 2.246751 -0.124345
v 0.930463 2.596652 -0.124345
v 0.886198 2.640917 -0.124345
v 0.576343 2.821624 -0.124345
v 0.240494 2.538764 -0.124345
v 0.389629 2.389629 -0.124345
v 0.444978 2.952989 -0.124345
v 0.305818 2.850872 -0.124345
v 0.455705 2.700985 -0.124345
v 0.492747 2.492747 -0.124345
v 0.246751 2.738743 -0.124345
v 0.596651 2.930463 -0.124345
v 0.640917 2.886198 -0.124345
v -0.576343 1.178376 -0.124345
v -0.240494 1.461236 -0.124345
v -0.444978 1.047011 -0.124345
v -0.305818 1.149128 -0.124345
v -0.455705 1.299014 -0.124345
v -0.246751 1.261257 -0.124345
v -0.596651 1.069537 -0.124345
v -0.640917 1.113802 -0.124345
v -0.821624 1.423657 -0.124345
v -0.538764 1.759506 -0.124345
v -0.389629 1.610371 -0.124345
v -0.952989 1.555022 -0.124345
v -0.850872 1.694181 -0.124345
v -0.700985 1.544295 -0.124345
v -0.492747 1.507253 -0.124345
v -0.738743 1.753249 -0.124345
v -0.930463 1.403348 -0.124345
v -0.886198 1.359083 -0.124345
v 0.821624 2.576343 0.100000
v 0.700985 2.455705 0.100000
v 0.700985 2.455705 0.100000
v 0.850872 2.305819 0.100000
v 0.952989 2.444978 0.100000
v 0.952989 2.444978 0.100000
v 0.492747 2.492747 0.100000
v 0.492747 2.492747 0.100000
v 0.738743 2.246751 0.100000
v 0.538764 2.240494 0.100000
v 0.538764 2.240494 0.100000
v 0.886198 2.640917 0.100000
v 0.886198 2.640917 0.100000
v 0.930463 2.596652 0.100000
v 0.930463 2.596652 0.100000
v 0.576343 2.821624 0.100000
v 0.455705 2.700985 0.100000
v 0.455705 2.700985 0.100000
v 0.305818 2.850872 0.100000
v 0.444978 2.952989 0.100000
v 0.444978 2.952989 0.100000
v 0.246751 2.738743 0.100000
v 0.240494 2.538764 0.100000
v 0.240494 2.538764 0.100000
v 0.640917 2.886198 0.100000
v 0.640917 2.886198 0.100000
v 0.596651 2.930463 0.100000
v 0.596651 2.930463 0.100000
v -0.576343 1.178376 0.100000
v -0.455705 1.299014 0.100000
v -0.455705 1.299014 0.100000
v -0.240494 1.461236 0.100000
v -0.240494 1.461236 0.100000
v -0.305818 1.149128 0.100000
v -0.444978 1.047011 0.100000
v -0.444978 1.047011 0.100000
v -0.492747 1.507253 0.100000
v -0.492747 1.507253 0.100000
v -0.246751 1.261257 0.100000
v -0.640917 1.113802 0.100000
v -0.640917 1.113802 0.100000
v -0.596651 1.069537 0.100000
v -0.596651 1.069537 0.100000
v -0.821624 1.423657 0.100000
v -0.700985 1.544295 0.100000
v -0.700985 1.544295 0.100000
v -0.538764 1.759506 0.100000
v -0.538764 1.759506 0.100000
v -0.850872 1.694181 0.100000
v -0.952989 1.555022 0.100000
v -0.952989 1.555022 0.100000
v -0.738743 1.753249 0.100000
v -0.886198 1.359083 0.100000
v -0.886198 1.359083 0.100000
v -0.930463 1.403348 0.100000
v -0.930463 1.403348 0.100000
v 0.821624 2.576343 -0.124345
v 0.700985 2.455705 -0.124345
v 0.700985 2.455705 -0.124345
v 0.850872 2.305819 -0.124345
v 0.952989 2.444978 -0.124345
v 0.952989 2.444978 -0.124345
v 0.492747 2.492747 -0.124345
v 0.492747 2.492747 -0.124345
v 0.738743 2.246751 -0.124345
v 0.538764 2.240494 -0.124345
v 0.538764 2.240494 -0.124345
v 0.886198 2.640917 -0.124345
v 0.886198 2.640917 -0.124345
v 0.930463 2.596652 -0.124345
v 0.930463 2.596652 -0.124345
v 0.576343 2.821624 -0.124345
v 0.455705 2.700985 -0.124345
v 0.455705 2.700985 -0.124345
v 0.305818 2.850872 -0.124345
v 0.444978 2.952989 -0.124345
v 0.444978 2.952989 -0.124345
v 0.246751 2.738743 -0.124345
v 0.240494 2.538764 -0.124345
v 0.240494 2.538764 -0.124345
v 0.640917 2.886198 -0.124345
v 0.640917 2.886198 -0.124345
v 0.596651 2.930463 -0.124345
v 0.596651 2.930463 -0.124345
v -0.576343 1.178376 -0.124345
v -0.455705 1.299014 -0.124345
v -0.455705 1.299014 -0.124345
v -0.240494 1.461236 -0.124345
v -0.240494 1.461236 -0.124345
v -0.305818 1.149128 -0.124345
v -0.444978 1.047011 -0.124345
v -0.444978 1.047011 -0.124345
v -0.492747 1.507253 -0.124345
v -0.492747 1.507253 -0.124345
v -0.246751 1.261257 -0.124345
v -0.640917 1.113802 -0.124345
v -0.640917 1.113802 -0.124345
v -0.596651 1.069537 -0.124345
v -0.596651 1.069537 -0.124345
v -0.821624 1.423657 -0.124345
v -0.700985 1.544295 -0.124345
v -0.700985 1.544295 -0.124345
v -0.538764 1.759506 -0.124345
v -0.538764 1.759506 -0.124345
v -0.850872 1.694181 -0.124345
v -0.952989 1.555022 -0.124345
v -0.952989 1.555022 -0.124345
v -0.738743 1.753249 -0.124345
v -0.886198 1.359083 -0.124345
v -0.886198 1.359083 -0.124345
v -0.930463 1.403348 -0.124345
v -0.930463 1.403348 -0.124345
vt 0.095712 0.118985
vt 0.000000 0.118985
vt 0.011827 0.041484
vt 0.095712 0.041484
vt 0.269258 0.240221
vt 0.269258 0.740836
vt 0.174026 0.740836
vt 0.174026 0.240221
vt 0.174026 0.173975
vt 0.016941 0.173975
vt 0.078793 0.240221
vt 0.067446 0.000000
vt 0.095712 0.000000
vt 0.252339 0.118985
vt 0.252339 0.041484
vt 0.336224 0.041484
vt 0.348051 0.118985
vt 0.331110 0.173975
vt 0.252339 0.000000
vt 0.280605 0.000000
vt 0.095712 0.862071
vt 0.095712 0.939572
vt 0.011827 0.939572
vt 0.000000 0.862071
vt 0.174026 0.807081
vt 0.016941 0.807081
vt 0.078793 0.740836
vt 0.095712 0.981056
vt 0.067446 0.981056
vt 0.252339 0.862071
vt 0.348051 0.862071
vt 0.336224 0.939572
vt 0.252339 0.939572
vt 0.331110 0.807081
vt 0.280606 0.981056
vt 0.252339 0.981056
vt 0.443763 0.862071
vt 0.443763 0.939572
vt 0.359878 0.939572
vt 0.348051 0.862071
vt 0.617309 0.740836
vt 0.522077 0.740836
vt 0.522077 0.240221
vt 0.617309 0.240221
vt 0.522077 0.807081
vt 0.364993 0.807081
vt 0.426844 0.740836
vt 0.443763 0.981056
vt 0.415497 0.981056
vt 0.600391 0.862071
vt 0.696102 0.862071
vt 0.684276 0.939572
vt 0.600391 0.939572
vt 0.679161 0.807081
vt 0.628657 0.981056
vt 0.600391 0.981056
vt 0.443763 0.118985
vt 0.348051 0.118985
vt 0.359878 0.041484
vt 0.443763 0.041484
vt 0.522077 0.173975
vt 0.364993 0.173975
vt 0.426844 0.240221
vt 0.415497 0.000000
vt 0.443763 0.000000
vt 0.600390 0.118985
vt 0.600390 0.041484
vt 0.684275 0.041484
vt 0.696102 0.118985
vt 0.679161 0.173975
vt 0.600390 0.000000
vt 0.628657 0.000000
vt 1.000000 0.434134
vt 1.000000 0.511635
vt 0.898701 0.511635
vt 0.898701 0.434134
vt 0.797402 0.898088
vt 0.797402 0.820588
vt 0.898701 0.820588
vt 0.898701 0.898088
vt 0.898701 0.236362
vt 0.898701 0.157574
vt 1.000000 0.157574
vt 1.000000 0.236362
vt 0.797402 0.765597
vt 0.898701 0.765597
vt 0.797402 0.699352
vt 0.898701 0.699352
vt 1.000000 0.553118
vt 0.898701 0.553118
vt 0.808254 0.898088
vt 0.863872 0.898088
vt 0.863872 1.000000
vt 0.808254 1.000000
vt 0.779987 0.898088
vt 0.808254 0.898088
vt 0.808254 1.000000
vt 0.779987 1.000000
vt 1.000000 0.594602
vt 1.000000 0.672103
vt 0.898701 0.672103
vt 0.898701 0.594602
vt 0.696102 0.077501
vt 0.696102 0.000000
vt 0.797402 0.000000
vt 0.797402 0.077501
vt 0.898701 0.315149
vt 0.898701 0.236362
vt 1.000000 0.236362
vt 1.000000 0.315149
vt 0.696102 0.132491
vt 0.797402 0.132491
vt 0.696103 0.198737
vt 0.797402 0.198737
vt 1.000000 0.553118
vt 0.898701 0.553118
vt 0.779987 1.000000
vt 0.724369 1.000000
vt 0.724369 0.898088
vt 0.779987 0.898088
vt 0.724369 1.000000
vt 0.696102 1.000000
vt 0.696102 0.898088
vt 0.724369 0.898088
vt 1.000000 0.713587
vt 1.000000 0.791088
vt 0.898701 0.791088
vt 0.898701 0.713587
vt 0.797402 0.699352
vt 0.797402 0.198737
vt 0.898701 0.198737
vt 0.898701 0.699352
vt 0.797402 0.077501
vt 0.797402 0.000000
vt 0.898701 0.000000
vt 0.898701 0.077501
vt 1.000000 0.000000
vt 1.000000 0.078787
vt 0.898701 0.078787
vt 0.898701 0.000000
vt 0.797402 0.132491
vt 0.898701 0.132491
vt 0.797402 0.198737
vt 0.898701 0.198737
vt 1.000000 0.672103
vt 0.898701 0.672103
vt 0.982586 0.893000
vt 0.926967 0.893000
vt 0.926967 0.791088
vt 0.982586 0.791088
vt 0.926967 0.893000
vt 0.898701 0.893000
vt 0.898701 0.791088
vt 0.926967 0.791088
vt 0.898701 0.434134
vt 0.898701 0.356633
vt 1.000000 0.356633
vt 1.000000 0.434134
vt 0.696103 0.699352
vt 0.696103 0.198737
vt 0.797402 0.198737
vt 0.797402 0.699352
vt 0.696103 0.898088
vt 0.696103 0.820588
vt 0.797402 0.820588
vt 0.797402 0.898088
vt 1.000000 0.078787
vt 1.000000 0.157574
vt 0.898701 0.157574
vt 0.898701 0.078787
vt 0.696103 0.765597
vt 0.797402 0.765597
vt 0.696103 0.699352
vt 0.797402 0.699352
vt 0.898701 0.315149
vt 1.000000 0.315149
vt 0.954320 0.994911
vt 0.898701 0.994911
vt 0.898701 0.893000
vt 0.954320 0.893000
vt 0.982586 0.994911
vt 0.954320 0.994911
vt 0.954320 0.893000
vt 0.982586 0.893000
vn 0.0000 0.0000 1.0000
vn 0.0000 0.0000 -1.0000
vn -0.7071 0.7071 0.0000
vn 0.8062 -0.5916 0.0000
vn 0.6528 -0.7575 0.0000
vn 0.1751 0.9845 0.0000
vn 0.2552 -0.9669 0.0000
vn 0.0313 -0.9995 0.0000
vn 0.9891 0.1469 0.0000
vn 0.7071 0.7071 0.0000
vn 0.7071 -0.7071 0.0000
vn -0.7575 0.6528 0.0000
vn -0.5916 0.8062 0.0000
vn 0.9845 0.1751 0.0000
vn -0.9669 0.2552 0.0000
vn -0.9995 0.0313 0.0000
vn 0.1469 0.9891 0.0000
vn 0.7575 -0.6528 0.0000
vn 0.5916 -0.8062 0.0000
vn -0.9845 -0.1751 0.0000
vn 0.9669 -0.2552 0.0000
vn 0.9995 -0.0313 0.0000
vn -0.1469 -0.9891 0.0000
vn -0.7071 -0.7071 0.0000
vn -0.8062 0.5916 0.0000
vn -0.6528 0.7575 0.0000
vn -0.1751 -0.9845 0.0000
vn -0.2552 0.9669 0.0000
vn -0.0313 0.9995 0.0000
vn -0.9891 -0.1469 0.0000
usemtl None
s 1
f 74/1/1 76/2/1 77/3/1 73/4/1
f 95/5/1 119/6/1 29/7/1 11/8/1
f 79/9/1 81/10/1 76/2/1 74/1/1
f 11/8/1 82/11/1 81/10/1 79/9/1
f 73/4/1 77/3/1 86/12/1 84/13/1
f 89/14/1 88/15/1 92/16/1 91/17/1
f 79/9/1 89/14/1 91/17/1 94/18/1
f 11/8/1 79/9/1 94/18/1 95/5/1
f 88/15/1 97/19/1 99/20/1 92/16/1
f 102/21/1 101/22/1 107/23/1 106/24/1
f 109/25/1 102/21/1 106/24/1 111/26/1
f 29/7/1 109/25/1 111/26/1 104/27/1
f 101/22/1 112/28/1 114/29/1 107/23/1
f 117/30/1 121/31/1 122/32/1 116/33/1
f 109/25/1 124/34/1 121/31/1 117/30/1
f 29/7/1 119/6/1 124/34/1 109/25/1
f 116/33/1 122/32/1 127/35/1 125/36/1
f 11/8/1 29/7/1 104/27/1 82/11/1
f 130/37/2 129/38/2 133/39/2 132/40/2
f 151/41/2 47/42/2 65/43/2 175/44/2
f 135/45/2 130/37/2 132/40/2 137/46/2
f 47/42/2 135/45/2 137/46/2 138/47/2
f 129/38/2 140/48/2 142/49/2 133/39/2
f 145/50/2 147/51/2 148/52/2 144/53/2
f 135/45/2 150/54/2 147/51/2 145/50/2
f 47/42/2 151/41/2 150/54/2 135/45/2
f 144/53/2 148/52/2 155/55/2 153/56/2
f 158/57/2 162/58/2 163/59/2 157/60/2
f 165/61/2 167/62/2 162/58/2 158/57/2
f 65/43/2 160/63/2 167/62/2 165/61/2
f 157/60/2 163/59/2 170/64/2 168/65/2
f 173/66/2 172/67/2 178/68/2 177/69/2
f 165/61/2 173/66/2 177/69/2 180/70/2
f 65/43/2 165/61/2 180/70/2 175/44/2
f 172/67/2 181/71/2 183/72/2 178/68/2
f 47/42/2 138/47/2 160/63/2 65/43/2
f 75/73/3 1/74/3 37/75/3 131/76/3
f 78/77/4 4/78/5 40/79/5 134/80/4
f 80/81/6 5/82/6 41/83/6 136/84/6
f 4/78/5 6/85/7 42/86/7 40/79/5
f 6/85/7 83/87/8 139/88/8 42/86/7
f 1/74/3 85/89/3 141/90/3 37/75/3
f 87/91/9 3/92/9 39/93/9 143/94/9
f 8/95/10 7/96/10 43/97/10 44/98/10
f 9/99/11 90/100/11 146/101/11 45/102/11
f 13/103/12 93/104/13 149/105/13 49/106/12
f 14/107/14 15/108/14 51/109/14 50/110/14
f 16/111/15 13/103/12 49/106/12 52/112/15
f 96/113/16 16/111/15 52/112/15 152/114/16
f 98/115/11 9/99/11 45/102/11 154/116/11
f 12/117/17 100/118/17 156/119/17 48/120/17
f 17/121/10 18/122/10 54/123/10 53/124/10
f 19/125/3 103/126/3 159/127/3 55/128/3
f 2/129/11 105/130/11 161/131/11 38/132/11
f 22/133/18 108/134/19 164/135/19 58/136/18
f 23/137/20 110/138/20 166/139/20 59/140/20
f 24/141/21 22/133/18 58/136/18 60/142/21
f 20/143/22 24/141/21 60/142/21 56/144/22
f 113/145/3 19/125/3 55/128/3 169/146/3
f 21/147/23 115/148/23 171/149/23 57/150/23
f 25/151/24 26/152/24 62/153/24 61/154/24
f 118/155/11 27/156/11 63/157/11 174/158/11
f 120/159/3 10/160/3 46/161/3 176/162/3
f 123/163/25 31/164/26 67/165/26 179/166/25
f 33/167/27 32/168/27 68/169/27 69/170/27
f 31/164/26 34/171/28 70/172/28 67/165/26
f 34/171/28 28/173/29 64/174/29 70/172/28
f 27/156/11 126/175/11 182/176/11 63/157/11
f 128/177/30 30/178/30 66/179/30 184/180/30
f 36/181/24 35/182/24 71/183/24 72/184/24
