# Blender v2.79 (sub 0) OBJ File: ''
# www.blender.org
mtllib PowerUP_Bait.mtl
o PowerUP_Bait_Cube.003
v 0.221553 1.622112 0.100000
v 0.221553 1.000000 0.100000
v 0.258849 1.916557 0.100000
v 0.459603 2.744264 0.100000
v 0.670484 2.500999 0.100000
v 0.815293 2.328492 0.100000
v 0.309216 2.900622 0.100000
v 0.984634 2.953704 0.100000
v 0.064942 2.283683 0.100000
v 0.140052 2.400845 0.100000
v 0.265803 2.560236 0.100000
v 0.362516 2.660862 0.100000
v 0.587779 2.443034 0.100000
v 0.484995 2.357600 0.100000
v 0.387207 2.229959 0.100000
v 0.311835 2.107870 0.100000
v 0.000000 1.622112 0.100000
v 0.000000 2.157020 0.100000
v 0.000000 1.000000 0.100000
v -0.221553 1.622112 0.100000
v -0.221553 1.000000 0.100000
v -0.258849 1.916557 0.100000
v -0.459603 2.744264 0.100000
v -0.670484 2.500999 0.100000
v -0.815293 2.328492 0.100000
v -0.309216 2.900622 0.100000
v -0.984634 2.953704 0.100000
v -0.126646 2.368639 0.100000
v -0.301094 2.593747 0.100000
v -0.520630 2.376280 0.100000
v -0.365727 2.181795 0.100000
v 0.221553 1.622112 -0.100000
v 0.221553 1.000000 -0.100000
v 0.258849 1.916557 -0.099994
v 0.459603 2.744264 -0.100000
v 0.670484 2.500999 -0.100000
v 0.815293 2.328492 -0.099994
v 0.309216 2.900622 -0.100000
v 0.984634 2.953704 -0.100000
v 0.064942 2.283683 -0.100000
v 0.140052 2.400845 -0.100000
v 0.265803 2.560236 -0.100000
v 0.362516 2.660862 -0.099994
v 0.587779 2.443034 -0.100000
v 0.484995 2.357600 -0.100000
v 0.387207 2.229959 -0.100000
v 0.311835 2.107870 -0.100000
v 0.000000 1.622112 -0.100000
v 0.000000 2.157020 -0.100000
v 0.000000 1.000000 -0.100000
v -0.221553 1.622112 -0.100000
v -0.221553 1.000000 -0.100000
v -0.258849 1.916557 -0.100000
v -0.459603 2.744264 -0.100000
v -0.670484 2.500999 -0.100000
v -0.815293 2.328492 -0.099994
v -0.309216 2.900622 -0.100000
v -0.984634 2.953704 -0.100000
v -0.126646 2.368639 -0.100000
v -0.301094 2.593747 -0.100000
v -0.520630 2.376280 -0.100000
v -0.365727 2.181795 -0.099994
v 0.221553 1.622112 0.100000
v 0.258849 1.916557 0.100000
v 0.221553 1.000000 0.100000
v 0.221553 1.000000 0.100000
v 0.000000 1.000000 0.100000
v 0.459603 2.744264 0.100000
v 0.459603 2.744264 0.100000
v 0.309216 2.900622 0.100000
v 0.309216 2.900622 0.100000
v 0.815293 2.328492 0.100000
v 0.815293 2.328492 0.100000
v 0.984634 2.953704 0.100000
v 0.984634 2.953704 0.100000
v 0.670484 2.500999 0.100000
v 0.670484 2.500999 0.100000
v 0.064942 2.283683 0.100000
v 0.064942 2.283683 0.100000
v 0.311835 2.107870 0.100000
v 0.311835 2.107870 0.100000
v 0.387207 2.229959 0.100000
v 0.387207 2.229959 0.100000
v 0.140052 2.400845 0.100000
v 0.140052 2.400845 0.100000
v 0.587779 2.443034 0.100000
v 0.587779 2.443034 0.100000
v 0.362516 2.660862 0.100000
v 0.362516 2.660862 0.100000
v 0.265803 2.560236 0.100000
v 0.265803 2.560236 0.100000
v 0.484995 2.357600 0.100000
v 0.484995 2.357600 0.100000
v 0.000000 2.157020 0.100000
v 0.000000 2.157020 0.100000
v -0.221553 1.622112 0.100000
v -0.258849 1.916557 0.100000
v -0.221553 1.000000 0.100000
v -0.221553 1.000000 0.100000
v -0.459603 2.744264 0.100000
v -0.459603 2.744264 0.100000
v -0.309216 2.900622 0.100000
v -0.309216 2.900622 0.100000
v -0.815293 2.328492 0.100000
v -0.815293 2.328492 0.100000
v -0.984634 2.953704 0.100000
v -0.984634 2.953704 0.100000
v -0.670484 2.500999 0.100000
v -0.670484 2.500999 0.100000
v -0.126646 2.368639 0.100000
v -0.365727 2.181795 0.100000
v -0.301094 2.593747 0.100000
v -0.520630 2.376280 0.100000
v 0.221553 1.622112 -0.100000
v 0.258849 1.916557 -0.099994
v 0.221553 1.000000 -0.100000
v 0.221553 1.000000 -0.100000
v 0.000000 1.000000 -0.100000
v 0.459603 2.744264 -0.100000
v 0.459603 2.744264 -0.100000
v 0.309216 2.900622 -0.100000
v 0.309216 2.900622 -0.100000
v 0.815293 2.328492 -0.099994
v 0.815293 2.328492 -0.099994
v 0.984634 2.953704 -0.100000
v 0.984634 2.953704 -0.100000
v 0.670484 2.500999 -0.100000
v 0.670484 2.500999 -0.100000
v 0.064942 2.283683 -0.100000
v 0.064942 2.283683 -0.100000
v 0.311835 2.107870 -0.100000
v 0.311835 2.107870 -0.100000
v 0.387207 2.229959 -0.100000
v 0.387207 2.229959 -0.100000
v 0.140052 2.400845 -0.100000
v 0.140052 2.400845 -0.100000
v 0.587779 2.443034 -0.100000
v 0.587779 2.443034 -0.100000
v 0.362516 2.660862 -0.099994
v 0.362516 2.660862 -0.099994
v 0.265803 2.560236 -0.100000
v 0.265803 2.560236 -0.100000
v 0.484995 2.357600 -0.100000
v 0.484995 2.357600 -0.100000
v 0.000000 2.157020 -0.100000
v 0.000000 2.157020 -0.100000
v -0.221553 1.622112 -0.100000
v -0.258849 1.916557 -0.100000
v -0.221553 1.000000 -0.100000
v -0.221553 1.000000 -0.100000
v -0.459603 2.744264 -0.100000
v -0.459603 2.744264 -0.100000
v -0.309216 2.900622 -0.100000
v -0.309216 2.900622 -0.100000
v -0.815293 2.328492 -0.099994
v -0.815293 2.328492 -0.099994
v -0.984634 2.953704 -0.100000
v -0.984634 2.953704 -0.100000
v -0.670484 2.500999 -0.100000
v -0.670484 2.500999 -0.100000
v -0.126646 2.368639 -0.100000
v -0.365727 2.181795 -0.099994
v -0.301094 2.593747 -0.100000
v -0.520630 2.376280 -0.100000
vt 0.616976 0.808364
vt 0.542504 0.841802
vt 0.449045 0.631717
vt 0.523517 0.598279
vt 0.392275 0.537914
vt 0.443159 0.417643
vt 0.733467 0.314471
vt 0.834486 0.258484
vt 0.858298 0.287176
vt 0.759942 0.353636
vt 0.926364 0.479182
vt 0.691448 0.394916
vt 0.926364 0.239591
vt 0.345724 0.481305
vt 0.402301 0.384671
vt 0.148385 0.952725
vt 0.155352 0.841802
vt 0.214548 0.842649
vt 0.223134 0.952725
vt 0.597989 0.564841
vt 0.691448 0.774926
vt 0.566292 0.459780
vt 0.453938 0.327066
vt 0.478758 0.224720
vt 0.585222 0.265024
vt 0.562371 0.354079
vt 0.654445 0.000000
vt 0.616857 0.200290
vt 0.509427 0.149968
vt 0.435387 0.119864
vt 0.691448 0.236689
vt 0.271252 0.033438
vt 0.177793 0.243523
vt 0.103321 0.210085
vt 0.196780 0.000000
vt 0.097435 0.424159
vt 0.046551 0.303888
vt 0.733467 0.164711
vt 0.759942 0.125546
vt 0.858298 0.192005
vt 0.834486 0.220698
vt 0.926364 0.000000
vt 0.691448 0.084265
vt 0.926364 0.239591
vt 0.056578 0.457131
vt 0.000000 0.360497
vt 0.148385 0.952725
vt 0.073636 0.952725
vt 0.082222 0.842649
vt 0.141417 0.841802
vt 0.345724 0.066876
vt 0.252265 0.276961
vt 0.220568 0.382023
vt 0.108214 0.514736
vt 0.216647 0.487723
vt 0.239498 0.576778
vt 0.133035 0.617082
vt 0.308721 0.841802
vt 0.163703 0.691835
vt 0.271133 0.641512
vt 0.089663 0.721939
vt 0.345724 0.605113
vt 0.765083 0.818464
vt 0.765083 0.709194
vt 0.838719 0.709194
vt 0.838717 0.818464
vt 0.765083 0.479182
vt 0.838719 0.479182
vt 1.000000 0.000000
vt 1.000000 0.081950
vt 0.926364 0.081950
vt 0.926364 0.000000
vt 0.826059 0.963751
vt 0.765083 0.963751
vt 0.765083 0.889773
vt 0.826059 0.889773
vt 0.912355 0.946957
vt 0.912355 0.713959
vt 0.985988 0.713959
vt 0.985991 0.946957
vt 0.838719 0.729011
vt 0.838719 0.479182
vt 0.912355 0.479182
vt 0.912355 0.729011
vt 0.584455 0.915780
vt 0.517676 0.915780
vt 0.517676 0.841802
vt 0.584455 0.841804
vt 0.296769 0.933125
vt 0.296769 0.841802
vt 0.370405 0.841802
vt 0.370405 0.933125
vt 0.296769 0.841802
vt 0.296769 0.933222
vt 0.223134 0.933222
vt 0.223134 0.841802
vt 0.444041 0.841802
vt 0.444041 0.927516
vt 0.370407 0.927516
vt 0.370405 0.841802
vt 0.444041 0.922879
vt 0.444041 0.841802
vt 0.517676 0.841802
vt 0.517676 0.922879
vt 0.981982 0.311855
vt 0.926364 0.311855
vt 0.926364 0.237877
vt 0.981982 0.237877
vt 0.926364 0.385832
vt 0.974397 0.385832
vt 0.974397 0.459810
vt 0.926364 0.459810
vt 0.584455 0.915780
vt 0.629473 0.915780
vt 0.629473 0.989757
vt 0.584455 0.989757
vt 0.765083 0.889773
vt 0.838719 0.889773
vt 0.685253 0.915780
vt 0.649507 0.915780
vt 0.649507 0.841802
vt 0.685253 0.841804
vt 0.659923 0.989757
vt 0.629473 0.989757
vt 0.629473 0.915780
vt 0.659923 0.915780
vt 0.765083 0.708827
vt 0.765083 0.818395
vt 0.691448 0.818395
vt 0.691448 0.708827
vt 0.765083 0.479182
vt 0.691448 0.479182
vt 1.000000 0.163900
vt 0.926364 0.163900
vt 0.517676 0.915780
vt 0.576846 0.915780
vt 0.576846 0.989757
vt 0.517676 0.989757
vt 0.985991 0.479182
vt 0.985991 0.713959
vt 0.912355 0.713959
vt 0.912357 0.479182
vt 0.838719 0.978839
vt 0.838719 0.729011
vt 0.912355 0.729011
vt 0.912355 0.978839
vt 0.649507 0.915780
vt 0.584455 0.915780
vt 0.584455 0.841805
vt 0.649507 0.841802
vt 0.000000 0.918667
vt 0.000000 0.841802
vt 0.073636 0.841802
vt 0.073636 0.918667
vt 0.765083 0.918822
vt 0.691450 0.918822
vt 0.000000 1.000000
vt 0.073636 1.000000
vt 0.765083 0.994261
vt 0.691448 0.994261
vt 0.926364 0.311855
vt 0.981537 0.311855
vt 0.981537 0.385832
vt 0.926364 0.385832
vt 0.926364 0.163900
vt 0.984724 0.163900
vt 0.984724 0.237877
vt 0.926364 0.237877
vn 0.0000 0.0000 1.0000
vn 0.0000 0.0000 -1.0000
vn 0.9804 -0.1968 0.0000
vn 0.9980 -0.0629 0.0000
vn 1.0000 0.0000 0.0000
vn 0.0000 -1.0000 0.0000
vn -0.7207 -0.6932 0.0000
vn 0.9652 -0.2614 0.0000
vn -0.0783 0.9969 0.0000
vn -0.7659 -0.6429 0.0000
vn 0.5800 0.8146 0.0000
vn -0.5687 -0.8225 0.0000
vn -0.6951 -0.7189 0.0000
vn 0.6788 0.7343 0.0000
vn -0.7851 0.6194 0.0000
vn 0.7938 -0.6081 0.0000
vn -0.8898 0.4562 0.0000
vn 0.9637 -0.2669 0.0000
vn -0.6516 0.7585 0.0000
vn 0.5739 -0.8189 0.0000
vn -0.9980 -0.0629 0.0000
vn -0.9678 -0.2518 0.0000
vn -1.0000 0.0000 0.0000
vn 0.7207 -0.6932 0.0000
vn -0.9652 -0.2614 0.0000
vn 0.0783 0.9969 0.0000
vn 0.7659 -0.6429 0.0000
vn 0.8257 0.5640 0.0000
vn 0.8581 0.5135 0.0000
vn -0.8639 -0.5036 0.0000
vn 0.7416 0.6708 0.0000
vn -0.7147 -0.6995 0.0000
vn -0.6397 -0.7686 0.0000
vn 0.6886 0.7252 0.0000
usemtl None
s 1
f 67/1/1 65/2/1 63/3/1 17/4/1
f 17/4/1 63/3/1 64/5/1 94/6/1
f 88/7/1 86/8/1 76/9/1 68/10/1
f 74/11/1 68/10/1 76/9/1
f 70/12/1 68/10/1 74/11/1
f 74/11/1 76/9/1 72/13/1
f 94/6/1 64/5/1 80/14/1 78/15/1
f 84/16/1 82/17/1 92/18/1 90/19/1
f 67/1/1 17/4/1 96/20/1 98/21/1
f 17/4/1 94/6/1 97/22/1 96/20/1
f 110/23/1 112/24/1 113/25/1 111/26/1
f 106/27/1 108/28/1 100/29/1
f 102/30/1 106/27/1 100/29/1
f 106/27/1 104/31/1 108/28/1
f 94/6/1 110/23/1 111/26/1 97/22/1
f 108/28/1 113/25/1 112/24/1 100/29/1
f 118/32/2 48/33/2 114/34/2 116/35/2
f 48/33/2 145/36/2 115/37/2 114/34/2
f 139/38/2 119/39/2 127/40/2 137/41/2
f 125/42/2 127/40/2 119/39/2
f 121/43/2 125/42/2 119/39/2
f 125/42/2 123/44/2 127/40/2
f 145/36/2 129/45/2 131/46/2 115/37/2
f 135/47/2 141/48/2 143/49/2 133/50/2
f 118/32/2 149/51/2 147/52/2 48/33/2
f 48/33/2 147/52/2 148/53/2 145/36/2
f 161/54/2 162/55/2 164/56/2 163/57/2
f 157/58/2 151/59/2 159/60/2
f 153/61/2 151/59/2 157/58/2
f 157/58/2 159/60/2 155/62/2
f 145/36/2 148/53/2 162/55/2 161/54/2
f 159/60/2 151/59/2 163/57/2 164/56/2
f 3/63/3 1/64/4 32/65/4 34/66/3
f 1/64/4 66/67/5 117/68/5 32/65/4
f 2/69/6 19/70/6 50/71/6 33/72/6
f 69/73/7 71/74/7 122/75/7 120/76/7
f 75/77/8 73/78/8 124/79/8 126/80/8
f 7/81/9 8/82/9 39/83/9 38/84/9
f 6/85/10 77/86/10 128/87/10 37/88/10
f 79/89/11 81/90/11 132/91/11 130/92/11
f 83/93/12 85/94/12 136/95/12 134/96/12
f 87/97/13 89/98/13 140/99/13 138/100/13
f 91/101/14 93/102/14 144/103/14 142/104/14
f 10/105/15 11/106/15 42/107/15 41/108/15
f 14/109/16 15/110/16 46/111/16 45/112/16
f 95/113/17 9/114/17 40/115/17 146/116/17
f 16/117/18 3/63/3 34/66/3 47/118/18
f 12/119/19 4/120/19 35/121/19 43/122/19
f 5/123/20 13/124/20 44/125/20 36/126/20
f 20/127/21 22/128/22 53/129/22 51/130/21
f 99/131/23 20/127/21 51/130/21 150/132/23
f 19/70/6 21/133/6 52/134/6 50/71/6
f 103/135/24 101/136/24 152/137/24 154/138/24
f 105/139/25 107/140/25 158/141/25 156/142/25
f 27/143/26 26/144/26 57/145/26 58/146/26
f 109/147/27 25/148/27 56/149/27 160/150/27
f 28/151/28 18/152/29 49/153/29 59/154/28
f 22/128/22 31/155/30 62/156/30 53/129/22
f 29/157/31 28/151/28 59/154/28 60/158/31
f 31/155/30 30/159/32 61/160/32 62/156/30
f 30/161/32 24/162/33 55/163/33 61/164/32
f 23/165/34 29/166/31 60/167/31 54/168/34
