# Blender v2.79 (sub 0) OBJ File: 'BuildingDecoration01Export.blend'
# www.blender.org
mtllib CameraTop.mtl
o CameraTop_Building1Wall_Cube.010
v -0.133372 -0.014109 0.325959
v -0.133372 0.252635 0.325959
v -0.133372 -0.014109 -0.325959
v -0.133372 0.252635 -0.325959
v 0.133372 -0.014109 0.325959
v 0.133372 0.252635 0.325959
v 0.133372 -0.014109 -0.325959
v 0.133372 0.252635 -0.325959
v 0.000420 0.221442 0.320989
v -0.073843 0.190682 0.320989
v -0.104603 0.116419 0.320989
v -0.073843 0.042157 0.320989
v 0.000420 0.011396 0.320989
v 0.074682 0.042157 0.320989
v 0.105443 0.116419 0.320989
v 0.074682 0.190682 0.320989
v -0.073843 0.190682 0.460376
v 0.000420 0.221442 0.460376
v -0.104603 0.116419 0.460376
v -0.073843 0.042157 0.460376
v 0.000420 0.011396 0.460376
v 0.074682 0.042157 0.460376
v 0.105443 0.116419 0.460376
v 0.074682 0.190682 0.460376
vt 0.408338 0.431658
vt 0.408338 0.399172
vt 0.487733 0.399172
vt 0.487733 0.431658
vt 0.520219 0.399172
vt 0.487733 0.366686
vt 0.520219 0.366686
vt 0.487733 0.334200
vt 0.408338 0.366686
vt 0.408338 0.334200
vt 0.375852 0.366686
vt 0.375852 0.399172
vt 0.487733 0.301714
vt 0.408338 0.301714
vt 0.540000 0.425058
vt 0.533078 0.418136
vt 0.533078 0.408346
vt 0.540000 0.401424
vt 0.549790 0.401424
vt 0.556712 0.408346
vt 0.556712 0.418136
vt 0.549790 0.425058
vt 0.556277 0.329618
vt 0.556277 0.339407
vt 0.539302 0.339407
vt 0.539302 0.329618
vt 0.556277 0.310039
vt 0.556277 0.319828
vt 0.539302 0.319828
vt 0.539302 0.310039
vt 0.556277 0.368775
vt 0.556277 0.378565
vt 0.539302 0.378565
vt 0.539302 0.368775
vt 0.556277 0.349196
vt 0.556277 0.358986
vt 0.539302 0.358986
vt 0.539302 0.349196
vt 0.556277 0.300249
vt 0.539302 0.300249
vn -1.0000 0.0000 0.0000
vn 0.0000 0.0000 -1.0000
vn 1.0000 0.0000 0.0000
vn 0.0000 0.0000 1.0000
vn 0.0000 -1.0000 0.0000
vn 0.0000 1.0000 0.0000
vn 0.7071 0.7071 0.0000
vn 0.7071 -0.7071 -0.0000
vn -0.7071 -0.7071 -0.0000
vn -0.7071 0.7071 0.0000
usemtl UV
s off
f 1/1/1 2/2/1 4/3/1 3/4/1
f 3/5/2 4/3/2 8/6/2 7/7/2
f 7/8/3 8/6/3 6/9/3 5/10/3
f 5/11/4 6/9/4 2/2/4 1/12/4
f 3/13/5 7/8/5 5/10/5 1/14/5
f 8/6/6 4/3/6 2/2/6 6/9/6
s 1
f 17/15/4 19/16/4 20/17/4 21/18/4 22/19/4 23/20/4 24/21/4 18/22/4
f 16/23/7 9/24/6 18/25/6 24/26/7
f 14/27/8 15/28/3 23/29/3 22/30/8
f 12/31/9 13/32/5 21/33/5 20/34/9
f 10/35/10 11/36/1 19/37/1 17/38/10
f 15/28/3 16/23/7 24/26/7 23/29/3
f 13/39/5 14/27/8 22/30/8 21/40/5
f 11/36/1 12/31/9 20/34/9 19/37/1
f 9/24/6 10/35/10 17/38/10 18/25/6
