# Blender v2.79 (sub 0) OBJ File: 'BuildingDecoration01Export.blend'
# www.blender.org
mtllib VentilatorCase.mtl
o VentilatorCase_Cube
v 0.000000 0.533782 -0.660340
v 0.252701 0.533782 -0.610075
v 0.000000 0.382538 -0.814722
v 0.000000 0.533782 -0.814722
v 0.311781 0.382538 -0.752705
v 0.311781 0.533782 -0.752705
v 0.576095 0.382538 -0.576095
v 0.576095 0.533782 -0.576095
v 0.752705 0.382538 -0.311781
v 0.752705 0.533782 -0.311781
v 0.814722 0.382538 0.000000
v 0.814722 0.533782 0.000000
v 0.752705 0.382538 0.311781
v 0.752705 0.533782 0.311781
v 0.576095 0.382538 0.576095
v 0.576095 0.533782 0.576095
v 0.311781 0.382538 0.752705
v 0.311781 0.533782 0.752705
v 0.000000 0.382538 0.814722
v 0.000000 0.533782 0.814722
v -0.311780 0.382538 0.752705
v -0.311780 0.533782 0.752705
v -0.576095 0.382538 0.576095
v -0.576095 0.533782 0.576095
v -0.752705 0.382538 0.311781
v -0.752705 0.533782 0.311781
v -0.814722 0.382538 -0.000000
v -0.814722 0.533782 -0.000000
v -0.752705 0.382538 -0.311781
v -0.752705 0.533782 -0.311781
v -0.576095 0.382538 -0.576095
v -0.576095 0.533782 -0.576095
v -0.311780 0.382538 -0.752705
v -0.311780 0.533782 -0.752705
v 0.466931 0.533782 -0.466931
v 0.610075 0.533782 -0.252701
v 0.660340 0.533782 0.000000
v 0.610075 0.533782 0.252701
v 0.466931 0.533782 0.466931
v 0.252701 0.533782 0.610075
v 0.000000 0.533782 0.660340
v -0.252701 0.533782 0.610075
v -0.466931 0.533782 0.466931
v -0.610075 0.533782 0.252701
v -0.660340 0.533782 -0.000000
v -0.610074 0.533782 -0.252701
v -0.466931 0.533782 -0.466931
v -0.252701 0.533782 -0.610075
v 0.000000 0.213586 -0.660340
v -0.252701 0.213586 -0.610075
v -0.466931 0.213586 -0.466931
v -0.610074 0.213586 -0.252701
v -0.660340 0.213586 -0.000000
v -0.610075 0.213586 0.252701
v -0.466931 0.213586 0.466931
v -0.252701 0.213586 0.610075
v 0.000000 0.213586 0.660340
v 0.252701 0.213586 0.610075
v 0.466931 0.213586 0.466931
v 0.610075 0.213586 0.252701
v 0.660340 0.213586 0.000000
v 0.610075 0.213586 -0.252701
v 0.466931 0.213586 -0.466931
v 0.252701 0.213586 -0.610075
v -1.000000 0.000000 0.558864
v -1.000000 0.000000 -0.558864
v 1.000000 -0.000000 -0.558864
v 1.000000 0.000000 0.558864
v -0.558864 0.000000 -1.000000
v 0.558864 0.000000 1.000000
v -0.558864 0.000000 1.000000
v -0.531124 0.401359 -0.528652
v 0.550903 0.401359 -0.543486
v -0.538542 0.401359 0.531124
v 0.555848 0.401359 0.553376
v 0.000000 0.000000 -1.000000
v -0.000000 0.000000 1.000000
v 0.000000 0.401359 -0.737513
v -0.000000 0.401359 0.762237
v -1.000000 0.000000 -0.000000
v 1.000000 0.000000 0.000000
v 0.741042 0.401359 0.000000
v -0.763294 0.401359 0.000000
v 0.558864 0.000000 -1.000000
v -0.854713 0.401359 0.550130
v -1.000000 0.271658 0.558864
v 0.558864 0.271658 -1.000000
v 0.556317 0.401359 -0.853946
v -0.550268 0.401359 -0.853947
v -0.558864 0.271658 -1.000000
v 0.557867 0.401359 0.852378
v 0.558863 0.271658 1.000000
v -0.558864 0.271658 1.000000
v -0.552466 0.401359 0.852378
v 0.000000 0.401359 -0.853947
v 0.000000 0.271658 -1.000000
v -0.000000 0.271658 1.000000
v -0.000000 0.401359 0.852378
v 1.000000 0.271658 0.000000
v 0.853195 0.401359 0.000000
v -0.854713 0.401359 -0.000000
v -1.000000 0.271658 -0.000000
v 0.854284 0.401359 -0.553874
v 1.000000 0.271658 -0.558864
v 0.853195 0.401359 0.557050
v 1.000000 0.271658 0.558864
v -1.000000 0.271658 -0.558864
v -0.854713 0.401359 -0.549502
v 0.000000 0.533782 -0.660340
v -0.252701 0.533782 -0.610075
v -0.466931 0.533782 -0.466931
v 0.311781 0.533782 -0.752705
v 0.000000 0.533782 -0.814722
v -0.610074 0.533782 -0.252701
v 0.576095 0.533782 -0.576095
v -0.660340 0.533782 -0.000000
v 0.752705 0.533782 -0.311781
v -0.610075 0.533782 0.252701
v 0.814722 0.533782 0.000000
v -0.466931 0.533782 0.466931
v 0.752705 0.533782 0.311781
v -0.252701 0.533782 0.610075
v 0.576095 0.533782 0.576095
v 0.000000 0.533782 0.660340
v 0.311781 0.533782 0.752705
v 0.252701 0.533782 0.610075
v 0.000000 0.533782 0.814722
v 0.466931 0.533782 0.466931
v -0.311780 0.533782 0.752705
v 0.610075 0.533782 0.252701
v -0.576095 0.533782 0.576095
v 0.660340 0.533782 0.000000
v -0.752705 0.533782 0.311781
v 0.610075 0.533782 -0.252701
v -0.814722 0.533782 -0.000000
v 0.466931 0.533782 -0.466931
v -0.752705 0.533782 -0.311781
v 0.252701 0.533782 -0.610075
v -0.576095 0.533782 -0.576095
v -0.311780 0.533782 -0.752705
v 0.000000 0.213586 -0.660340
v -0.252701 0.213586 -0.610075
v -0.466931 0.213586 -0.466931
v -0.610074 0.213586 -0.252701
v -0.660340 0.213586 -0.000000
v -0.610075 0.213586 0.252701
v -0.466931 0.213586 0.466931
v -0.252701 0.213586 0.610075
v 0.000000 0.213586 0.660340
v 0.252701 0.213586 0.610075
v 0.466931 0.213586 0.466931
v 0.610075 0.213586 0.252701
v 0.660340 0.213586 0.000000
v 0.610075 0.213586 -0.252701
v 0.466931 0.213586 -0.466931
v 0.252701 0.213586 -0.610075
vt 0.171912 0.084696
vt 0.114583 0.109298
vt 0.113101 0.075100
vt 0.171912 0.075101
vt 0.256550 0.297368
vt 0.236077 0.276944
vt 0.282980 0.229929
vt 0.303453 0.250353
vt 0.171904 0.277536
vt 0.171902 0.306455
vt 0.112411 0.306451
vt 0.112413 0.277533
vt 0.231126 0.256748
vt 0.171906 0.256743
vt 0.171906 0.244349
vt 0.230553 0.223698
vt 0.262849 0.224808
vt 0.250801 0.165841
vt 0.262741 0.165842
vt 0.031277 0.106343
vt 0.060195 0.106344
vt 0.060193 0.165835
vt 0.031275 0.165834
vt 0.312534 0.225323
vt 0.283615 0.225332
vt 0.283596 0.165837
vt 0.312516 0.165831
vt 0.303467 0.081240
vt 0.283019 0.101689
vt 0.236059 0.054731
vt 0.256506 0.034282
vt 0.113329 0.256739
vt 0.115369 0.222112
vt 0.231084 0.106930
vt 0.262737 0.106538
vt 0.171912 0.025264
vt 0.171912 0.054182
vt 0.112420 0.054182
vt 0.112421 0.025264
vt 0.231404 0.025264
vt 0.231404 0.054182
vt 0.231298 0.075101
vt 0.040469 0.250311
vt 0.060918 0.229864
vt 0.107874 0.276825
vt 0.087425 0.297272
vt 0.080922 0.224330
vt 0.080925 0.165835
vt 0.090656 0.165835
vt 0.060191 0.225325
vt 0.031273 0.225324
vt 0.283590 0.106343
vt 0.312508 0.106339
vt 0.080927 0.107274
vt 0.231396 0.277541
vt 0.231394 0.306459
vt 0.060911 0.101793
vt 0.107870 0.054835
vt 0.087423 0.034387
vt 0.040463 0.081345
vt 0.565385 0.023615
vt 0.589886 0.023615
vt 0.589886 0.054063
vt 0.565385 0.054063
vt 0.416034 0.280854
vt 0.388107 0.269286
vt 0.396263 0.257080
vt 0.418898 0.266456
vt 0.977528 0.092475
vt 0.977528 0.106857
vt 0.947300 0.106857
vt 0.947300 0.092475
vt 0.638886 0.023615
vt 0.663387 0.023615
vt 0.663387 0.054063
vt 0.638886 0.054063
vt 0.355164 0.219984
vt 0.355164 0.189756
vt 0.369563 0.192620
vt 0.369563 0.217120
vt 0.917072 0.106857
vt 0.917072 0.092475
vt 0.810388 0.023615
vt 0.834889 0.023615
vt 0.834889 0.054063
vt 0.810388 0.054063
vt 0.388107 0.140454
vt 0.416034 0.128886
vt 0.418898 0.143285
vt 0.396263 0.152660
vt 0.886844 0.106857
vt 0.886844 0.092475
vt 0.736887 0.023615
vt 0.761388 0.023615
vt 0.761388 0.054063
vt 0.736887 0.054063
vt 0.474190 0.140454
vt 0.495564 0.161829
vt 0.483358 0.169985
vt 0.466034 0.152661
vt 0.856615 0.106857
vt 0.856615 0.092475
vt 0.687887 0.023615
vt 0.687887 0.054063
vt 0.507132 0.219984
vt 0.495564 0.247912
vt 0.483358 0.239756
vt 0.492734 0.217120
vt 0.826387 0.106857
vt 0.826387 0.092475
vt 0.614386 0.023615
vt 0.614386 0.054063
vt 0.366732 0.247912
vt 0.378938 0.239756
vt 0.796159 0.106857
vt 0.796159 0.092475
vt 0.859389 0.023615
vt 0.859389 0.054063
vt 0.366732 0.161829
vt 0.378938 0.169985
vt 0.765931 0.106857
vt 0.765931 0.092475
vt 0.785888 0.023615
vt 0.785888 0.054063
vt 0.446263 0.128886
vt 0.443398 0.143285
vt 0.735702 0.106857
vt 0.735702 0.092475
vt 0.712387 0.023615
vt 0.712387 0.054063
vt 0.507132 0.189756
vt 0.492734 0.192620
vt 0.705474 0.106857
vt 0.705474 0.092475
vt 0.474190 0.269286
vt 0.446262 0.280854
vt 0.443398 0.266456
vt 0.466034 0.257080
vt 0.675246 0.106857
vt 0.675246 0.092475
vt 0.540885 0.023615
vt 0.540885 0.054063
vt 0.645017 0.106857
vt 0.645017 0.092475
vt 0.883889 0.023615
vt 0.883889 0.054063
vt 0.614789 0.106857
vt 0.614789 0.092475
vt 0.584561 0.106857
vt 0.584561 0.092475
vt 0.554333 0.106857
vt 0.554333 0.092475
vt 0.524104 0.106857
vt 0.524104 0.092475
vt 0.908390 0.023615
vt 0.908390 0.054063
vt 0.656676 0.237759
vt 0.639351 0.255083
vt 0.616716 0.264459
vt 0.592216 0.264459
vt 0.569580 0.255083
vt 0.552256 0.237759
vt 0.542880 0.215124
vt 0.542880 0.190623
vt 0.552256 0.167988
vt 0.569580 0.150664
vt 0.592216 0.141288
vt 0.616716 0.141288
vt 0.639351 0.150664
vt 0.656676 0.167988
vt 0.666052 0.190623
vt 0.666052 0.215124
vt 0.493876 0.106857
vt 0.493876 0.092475
vt 0.516385 0.023615
vt 0.516385 0.054063
vn 0.0000 1.0000 0.0000
vn 0.7071 0.0000 -0.7071
vn 0.0000 0.0000 -1.0000
vn -1.0000 -0.0000 -0.0000
vn 1.0000 -0.0000 0.0000
vn 0.7071 -0.0000 0.7071
vn -0.0000 -0.0000 1.0000
vn -0.7071 0.0000 -0.7071
vn -0.5415 0.6431 0.5415
vn -0.5406 0.6446 -0.5406
vn 0.5487 0.6322 -0.5471
vn 0.6621 0.7494 0.0000
vn 0.5494 0.6295 0.5494
vn 0.6635 0.7482 0.0006
vn 0.0000 0.7477 -0.6640
vn -0.0000 0.7512 0.6600
vn -0.6660 0.7460 -0.0000
vn -0.7071 -0.0000 0.7071
vn 0.9239 0.0000 0.3827
vn 0.3827 0.0000 -0.9239
vn 0.9239 0.0000 -0.3827
vn -0.9239 0.0000 0.3827
vn -0.3827 0.0000 -0.9239
vn 0.3827 0.0000 0.9239
vn -0.9239 0.0000 -0.3827
vn -0.3827 0.0000 0.9239
usemtl Material
s off
f 79/1/1 74/2/1 94/3/1 98/4/1
f 84/5/2 87/6/2 104/7/2 67/8/2
f 96/9/3 76/10/3 69/11/3 90/12/3
f 88/13/1 95/14/1 78/15/1 73/16/1
f 103/17/1 73/16/1 82/18/1 100/19/1
f 65/20/4 86/21/4 102/22/4 80/23/4
f 67/24/5 104/25/5 99/26/5 81/27/5
f 68/28/6 106/29/6 92/30/6 70/31/6
f 95/14/1 89/32/1 72/33/1 78/15/1
f 100/19/1 82/18/1 75/34/1 105/35/1
f 77/36/7 97/37/7 93/38/7 71/39/7
f 70/40/7 92/41/7 97/37/7 77/36/7
f 105/35/1 75/34/1 91/42/1
f 103/17/1 88/13/1 73/16/1
f 66/43/8 107/44/8 90/45/8 69/46/8
f 72/33/1 108/47/1 101/48/1 83/49/1
f 80/23/4 102/22/4 107/50/4 66/51/4
f 81/27/5 99/26/5 106/52/5 68/53/5
f 74/2/1 85/54/1 94/3/1
f 87/55/3 84/56/3 76/10/3 96/9/3
f 75/34/1 79/1/1 98/4/1 91/42/1
f 83/49/1 101/48/1 85/54/1 74/2/1
f 89/32/1 108/47/1 72/33/1
f 94/3/9 85/54/9 86/57/9 93/58/9
f 108/47/10 89/32/10 90/45/10 107/44/10
f 88/13/11 103/17/11 104/7/11 87/6/11
f 100/19/12 105/35/12 106/52/12 99/26/12
f 105/35/13 91/42/13 92/30/13 106/29/13
f 103/17/14 100/19/14 99/26/14 104/25/14
f 96/9/15 90/12/15 89/32/15 95/14/15
f 98/4/16 94/3/16 93/38/16 97/37/16
f 87/55/15 96/9/15 95/14/15 88/13/15
f 91/42/16 98/4/16 97/37/16 92/41/16
f 85/54/17 101/48/17 102/22/17 86/21/17
f 101/48/17 108/47/17 107/50/17 102/22/17
f 71/59/18 93/58/18 86/57/18 65/60/18
s 1
f 47/61/6 114/62/19 144/63/19 143/64/6
f 140/65/1 139/66/1 111/67/1 110/68/1
f 3/69/3 113/70/3 112/71/20 5/72/20
f 44/73/21 120/74/2 147/75/2 146/76/21
f 135/77/1 133/78/1 118/79/1 116/80/1
f 5/72/20 112/71/20 115/81/2 7/82/2
f 132/83/4 36/84/22 154/85/22 153/86/4
f 129/87/1 20/88/1 124/89/1 122/90/1
f 7/82/2 115/81/2 10/91/21 9/92/21
f 126/93/23 39/94/8 151/95/8 150/96/23
f 123/97/1 14/98/1 130/99/1 128/100/1
f 9/92/21 10/91/21 119/101/5 11/102/5
f 120/74/2 42/103/20 148/104/20 147/75/2
f 117/105/1 8/106/1 136/107/1 134/108/1
f 11/102/5 119/101/5 121/109/19 13/110/19
f 114/62/19 45/111/5 145/112/5 144/63/19
f 137/113/1 135/77/1 116/80/1 46/114/1
f 13/110/19 121/109/19 16/115/6 15/116/6
f 36/84/22 35/117/18 155/118/18 154/85/22
f 131/119/1 129/87/1 122/90/1 43/120/1
f 15/116/6 16/115/6 125/121/24 17/122/24
f 39/94/8 38/123/25 152/124/25 151/95/8
f 18/125/1 123/97/1 128/100/1 40/126/1
f 17/122/24 125/121/24 127/127/7 19/128/7
f 42/103/20 41/129/3 149/130/3 148/104/20
f 12/131/1 117/105/1 134/108/1 37/132/1
f 19/128/7 127/127/7 22/133/26 21/134/26
f 45/111/5 44/73/21 146/76/21 145/112/5
f 6/135/1 4/136/1 109/137/1 2/138/1
f 21/134/26 22/133/26 24/139/18 23/140/18
f 48/141/24 47/61/6 143/64/6 50/142/24
f 4/136/1 140/65/1 110/68/1 109/137/1
f 23/140/18 24/139/18 26/143/22 25/144/22
f 35/117/18 138/145/26 156/146/26 155/118/18
f 139/66/1 137/113/1 46/114/1 111/67/1
f 25/144/22 26/143/22 28/147/4 27/148/4
f 38/123/25 132/83/4 153/86/4 152/124/25
f 133/78/1 131/119/1 43/120/1 118/79/1
f 27/148/4 28/147/4 30/149/25 29/150/25
f 41/129/3 126/93/23 150/96/23 149/130/3
f 20/88/1 18/125/1 40/126/1 124/89/1
f 29/150/25 30/149/25 32/151/8 31/152/8
f 8/106/1 6/135/1 2/138/1 136/107/1
f 14/98/1 12/131/1 37/132/1 130/99/1
f 31/152/8 32/151/8 34/153/23 33/154/23
f 138/145/26 1/155/7 49/156/7 156/146/26
f 64/157/1 141/158/1 142/159/1 51/160/1 52/161/1 53/162/1 54/163/1 55/164/1 56/165/1 57/166/1 58/167/1 59/168/1 60/169/1 61/170/1 62/171/1 63/172/1
f 33/154/23 34/153/23 113/173/3 3/174/3
f 1/175/7 48/141/24 50/142/24 49/176/7
