# Blender v2.79 (sub 0) OBJ File: 'PipesExport.blend'
# www.blender.org
mtllib Pipe4m.mtl
o Pipe4m_Cylinder.046
v -0.175521 0.417342 -1.926170
v -0.175521 0.417342 1.926169
v -0.324321 0.319420 -1.926170
v -0.324321 0.319420 1.926170
v -0.423746 0.172869 -1.926170
v -0.423746 0.172869 1.926170
v -0.458659 -0.000000 -1.926170
v -0.458659 0.000000 1.926170
v -0.423746 -0.172869 -1.926170
v -0.423746 -0.172869 1.926170
v -0.324321 -0.319420 -1.926170
v -0.324321 -0.319420 1.926170
v -0.175521 -0.417342 -1.926170
v -0.175521 -0.417342 1.926170
v 0.000000 -0.451728 -1.926170
v 0.000000 -0.451728 1.926170
v 0.175522 -0.417342 -1.926169
v 0.175522 -0.417342 1.926170
v 0.324321 -0.319420 -1.926170
v 0.324321 -0.319420 1.926170
v 0.423746 -0.172869 -1.926170
v 0.423746 -0.172869 1.926170
v 0.458660 -0.000000 -1.926170
v 0.458660 -0.000000 1.926170
v 0.423746 0.172869 -1.926170
v 0.423746 0.172869 1.926170
v 0.324321 0.319420 -1.926170
v 0.324321 0.319420 1.926170
v 0.175521 0.417342 -1.926170
v 0.175521 0.417342 1.926169
v 0.000000 0.451728 1.926170
v 0.000000 0.451728 -1.926170
v -0.191341 0.461940 -1.940382
v -0.191341 0.461940 1.940381
v -0.353553 0.353553 -1.940382
v -0.353553 0.353554 1.940382
v -0.461940 0.191342 -1.940382
v -0.461940 0.191342 1.940382
v -0.500000 -0.000000 -1.940382
v -0.500000 0.000000 1.940382
v -0.461940 -0.191342 -1.940382
v -0.461940 -0.191342 1.940382
v -0.353553 -0.353554 -1.940382
v -0.353553 -0.353554 1.940382
v -0.191342 -0.461940 -1.940382
v -0.191342 -0.461940 1.940382
v 0.000000 -0.500000 -1.940382
v 0.000000 -0.500000 1.940382
v 0.191342 -0.461940 -1.940381
v 0.191342 -0.461940 1.940382
v 0.353553 -0.353553 -1.940382
v 0.353553 -0.353553 1.940382
v 0.461940 -0.191342 -1.940382
v 0.461940 -0.191342 1.940382
v 0.500000 -0.000000 -1.940382
v 0.500000 -0.000000 1.940382
v 0.461940 0.191342 -1.940382
v 0.461940 0.191342 1.940382
v 0.353553 0.353553 -1.940382
v 0.353553 0.353553 1.940382
v 0.191342 0.461940 -1.940382
v 0.191342 0.461940 1.940381
v 0.000000 0.500000 1.940382
v 0.000000 0.500000 -1.940382
v -0.191341 0.461940 2.000000
v -0.191341 0.461940 -2.000000
v -0.353553 0.353554 2.000000
v -0.353553 0.353553 -2.000000
v -0.461940 0.191342 2.000000
v -0.461940 0.191342 -2.000000
v -0.500000 0.000000 2.000000
v -0.500000 -0.000000 -2.000000
v -0.461940 -0.191342 2.000000
v -0.461940 -0.191342 -2.000000
v -0.353553 -0.353553 2.000000
v -0.353553 -0.353554 -2.000000
v -0.191342 -0.461940 2.000000
v -0.191342 -0.461940 -2.000000
v 0.000000 -0.500000 2.000000
v 0.000000 -0.500000 -2.000000
v 0.191342 -0.461940 2.000000
v 0.191342 -0.461940 -2.000000
v 0.353553 -0.353553 2.000000
v 0.353553 -0.353553 -2.000000
v 0.461940 -0.191342 2.000000
v 0.461940 -0.191342 -2.000000
v 0.500000 0.000000 2.000000
v 0.500000 -0.000000 -2.000000
v 0.461940 0.191342 2.000000
v 0.461940 0.191342 -2.000000
v 0.353553 0.353553 2.000000
v 0.353553 0.353553 -2.000000
v 0.191342 0.461940 2.000000
v 0.191342 0.461940 -2.000000
v 0.000000 0.500000 2.000000
v 0.000000 0.500000 -2.000000
v 0.000000 0.451728 1.926170
v 0.175521 0.417342 1.926169
v 0.000000 0.451728 -1.926170
v 0.175521 0.417342 -1.926170
v 0.324321 0.319420 1.926170
v 0.324321 0.319420 -1.926170
v 0.423746 0.172869 1.926170
v 0.423746 0.172869 -1.926170
v 0.458660 -0.000000 1.926170
v 0.458660 -0.000000 -1.926170
v 0.423746 -0.172869 1.926170
v 0.423746 -0.172869 -1.926170
v 0.324321 -0.319420 1.926170
v 0.324321 -0.319420 -1.926170
v 0.175522 -0.417342 1.926170
v 0.175522 -0.417342 -1.926169
v 0.000000 -0.451728 1.926170
v 0.000000 -0.451728 -1.926170
v -0.175521 -0.417342 1.926170
v -0.175521 -0.417342 -1.926170
v -0.324321 -0.319420 1.926170
v -0.324321 -0.319420 -1.926170
v -0.423746 -0.172869 1.926170
v -0.423746 -0.172869 -1.926170
v -0.458659 0.000000 1.926170
v -0.458659 -0.000000 -1.926170
v -0.423746 0.172869 1.926170
v -0.423746 0.172869 -1.926170
v -0.324321 0.319420 1.926170
v -0.324321 0.319420 -1.926170
v -0.175521 0.417342 1.926169
v -0.175521 0.417342 -1.926170
v 0.000000 0.500000 1.940382
v 0.191342 0.461940 1.940381
v 0.000000 0.500000 -1.940382
v 0.191342 0.461940 -1.940382
v 0.353553 0.353553 1.940382
v 0.353553 0.353553 -1.940382
v 0.461940 0.191342 1.940382
v 0.461940 0.191342 -1.940382
v 0.500000 -0.000000 1.940382
v 0.500000 -0.000000 -1.940382
v 0.461940 -0.191342 1.940382
v 0.461940 -0.191342 -1.940382
v 0.353553 -0.353553 1.940382
v 0.353553 -0.353553 -1.940382
v 0.191342 -0.461940 1.940382
v 0.191342 -0.461940 -1.940381
v 0.000000 -0.500000 1.940382
v 0.000000 -0.500000 -1.940382
v -0.191342 -0.461940 1.940382
v -0.191342 -0.461940 -1.940382
v -0.353553 -0.353554 1.940382
v -0.353553 -0.353554 -1.940382
v -0.461940 -0.191342 1.940382
v -0.461940 -0.191342 -1.940382
v -0.500000 0.000000 1.940382
v -0.500000 -0.000000 -1.940382
v -0.461940 0.191342 1.940382
v -0.461940 0.191342 -1.940382
v -0.353553 0.353554 1.940382
v -0.353553 0.353553 -1.940382
v -0.191341 0.461940 1.940381
v -0.191341 0.461940 -1.940382
v 0.000000 0.500000 2.000000
v -0.191341 0.461940 2.000000
v -0.191341 0.461940 -2.000000
v 0.000000 0.500000 -2.000000
v -0.353553 0.353554 2.000000
v -0.353553 0.353553 -2.000000
v -0.461940 0.191342 2.000000
v -0.461940 0.191342 -2.000000
v -0.500000 0.000000 2.000000
v -0.500000 -0.000000 -2.000000
v -0.461940 -0.191342 2.000000
v -0.461940 -0.191342 -2.000000
v -0.353553 -0.353553 2.000000
v -0.353553 -0.353554 -2.000000
v -0.191342 -0.461940 2.000000
v -0.191342 -0.461940 -2.000000
v 0.000000 -0.500000 2.000000
v 0.000000 -0.500000 -2.000000
v 0.191342 -0.461940 2.000000
v 0.191342 -0.461940 -2.000000
v 0.353553 -0.353553 2.000000
v 0.353553 -0.353553 -2.000000
v 0.461940 -0.191342 2.000000
v 0.461940 -0.191342 -2.000000
v 0.500000 0.000000 2.000000
v 0.500000 -0.000000 -2.000000
v 0.461940 0.191342 2.000000
v 0.461940 0.191342 -2.000000
v 0.353553 0.353553 2.000000
v 0.353553 0.353553 -2.000000
v 0.191342 0.461940 2.000000
v 0.191342 0.461940 -2.000000
vt 0.471146 0.245349
vt 0.489415 0.252576
vt 0.486510 0.257009
vt 0.469962 0.250283
vt 0.510834 0.284393
vt 0.510931 0.303688
vt 0.506467 0.303091
vt 0.506220 0.285699
vt 0.434897 0.335704
vt 0.420992 0.321837
vt 0.425043 0.318785
vt 0.437801 0.331273
vt 0.420980 0.321843
vt 0.413487 0.303890
vt 0.418101 0.302584
vt 0.425029 0.318790
vt 0.490372 0.335002
vt 0.472632 0.342622
vt 0.471987 0.337869
vt 0.488044 0.331143
vt 0.451678 0.245633
vt 0.452322 0.250386
vt 0.503675 0.321325
vt 0.500097 0.318974
vt 0.413382 0.284594
vt 0.417846 0.285189
vt 0.503677 0.321327
vt 0.500099 0.318977
vt 0.433941 0.253257
vt 0.436270 0.257116
vt 0.490368 0.334998
vt 0.488041 0.331138
vt 0.420628 0.266952
vt 0.424208 0.269301
vt 0.510930 0.303689
vt 0.506466 0.303092
vt 0.420640 0.266939
vt 0.424221 0.269288
vt 0.472627 0.342616
vt 0.471983 0.337863
vt 0.433928 0.253271
vt 0.436258 0.257130
vt 0.180096 0.027206
vt 0.180098 0.429982
vt 0.161398 0.429982
vt 0.161396 0.027206
vt 0.142774 0.429982
vt 0.142772 0.027206
vt 0.124258 0.429982
vt 0.124256 0.027206
vt 0.105819 0.429982
vt 0.105818 0.027207
vt 0.087380 0.429982
vt 0.087379 0.027207
vt 0.068864 0.429982
vt 0.068864 0.027207
vt 0.050240 0.429982
vt 0.050240 0.027207
vt 0.031540 0.429982
vt 0.031540 0.027207
vt 0.328656 0.027206
vt 0.328657 0.429981
vt 0.309956 0.429981
vt 0.309956 0.027206
vt 0.291332 0.429981
vt 0.291331 0.027206
vt 0.272816 0.429981
vt 0.272815 0.027206
vt 0.254378 0.429981
vt 0.254376 0.027206
vt 0.235938 0.429981
vt 0.235938 0.027206
vt 0.217423 0.429981
vt 0.217422 0.027206
vt 0.198799 0.429981
vt 0.198796 0.027206
vt 0.471138 0.245360
vt 0.489416 0.252577
vt 0.486513 0.257011
vt 0.469955 0.250296
vt 0.431123 0.341208
vt 0.434897 0.335704
vt 0.453169 0.342921
vt 0.451842 0.349427
vt 0.453169 0.342921
vt 0.454351 0.337987
vt 0.472632 0.342622
vt 0.473883 0.349080
vt 0.434890 0.335700
vt 0.437793 0.331267
vt 0.490372 0.335002
vt 0.493947 0.340439
vt 0.413500 0.303880
vt 0.418114 0.302574
vt 0.503677 0.321327
vt 0.509022 0.324983
vt 0.503331 0.266437
vt 0.499281 0.269491
vt 0.510930 0.303689
vt 0.517297 0.305056
vt 0.503327 0.266438
vt 0.499277 0.269492
vt 0.510831 0.284393
vt 0.517304 0.283216
vt 0.451667 0.245646
vt 0.452311 0.250400
vt 0.503327 0.266438
vt 0.508912 0.262840
vt 0.489415 0.252576
vt 0.493188 0.247073
vt 0.453164 0.342913
vt 0.454346 0.337979
vt 0.471146 0.245349
vt 0.472477 0.238843
vt 0.413395 0.284582
vt 0.417860 0.285177
vt 0.451678 0.245633
vt 0.450429 0.239174
vt 0.433941 0.253257
vt 0.430363 0.247821
vt 0.510831 0.284393
vt 0.506218 0.285701
vt 0.420640 0.266939
vt 0.415294 0.263285
vt 0.413395 0.284582
vt 0.407028 0.283217
vt 0.413500 0.303880
vt 0.407028 0.305056
vt 0.420992 0.321837
vt 0.415406 0.325432
vt 0.574900 0.346936
vt 0.556787 0.339434
vt 0.542924 0.325570
vt 0.535421 0.307457
vt 0.535421 0.287851
vt 0.542924 0.269738
vt 0.556787 0.255875
vt 0.574900 0.248372
vt 0.594506 0.248372
vt 0.612619 0.255875
vt 0.626482 0.269738
vt 0.633985 0.287851
vt 0.633985 0.307457
vt 0.626482 0.325570
vt 0.612619 0.339434
vt 0.594506 0.346936
vt 0.471138 0.245360
vt 0.472467 0.238851
vt 0.493188 0.247071
vt 0.489416 0.252577
vt 0.451667 0.245646
vt 0.450417 0.239187
vt 0.594506 0.346936
vt 0.574900 0.346936
vt 0.556787 0.339434
vt 0.542924 0.325570
vt 0.535421 0.307457
vt 0.535421 0.287852
vt 0.542924 0.269738
vt 0.556787 0.255875
vt 0.574900 0.248372
vt 0.594506 0.248372
vt 0.612619 0.255875
vt 0.626482 0.269738
vt 0.633985 0.287851
vt 0.633985 0.307457
vt 0.626482 0.325570
vt 0.612619 0.339434
vt 0.433928 0.253271
vt 0.430351 0.247835
vt 0.420628 0.266952
vt 0.415282 0.263298
vt 0.413382 0.284594
vt 0.407016 0.283229
vt 0.413487 0.303890
vt 0.407016 0.305067
vt 0.420980 0.321843
vt 0.415396 0.325439
vt 0.434890 0.335700
vt 0.431119 0.341204
vt 0.453164 0.342913
vt 0.451837 0.349420
vt 0.472627 0.342616
vt 0.473878 0.349073
vt 0.490368 0.334998
vt 0.493942 0.340435
vt 0.503675 0.321325
vt 0.509019 0.324982
vt 0.510931 0.303688
vt 0.517297 0.305056
vt 0.510834 0.284393
vt 0.517307 0.283216
vt 0.503331 0.266437
vt 0.508916 0.262838
vn -0.1090 -0.2676 0.9573
vn 0.0000 -0.2839 0.9588
vn -0.1124 -0.2665 0.9572
vn 0.2117 0.2154 -0.9533
vn 0.2918 0.1230 -0.9485
vn 0.2938 0.1192 -0.9484
vn 0.2161 0.2121 -0.9530
vn 0.0000 0.2839 0.9588
vn -0.1090 0.2676 0.9573
vn -0.1124 0.2665 0.9572
vn -0.1090 -0.2676 -0.9573
vn -0.2117 -0.2154 -0.9533
vn -0.2161 -0.2121 -0.9530
vn -0.1124 -0.2665 -0.9572
vn 0.2918 0.1230 0.9485
vn 0.2117 0.2154 0.9533
vn 0.2161 0.2121 0.9530
vn 0.2938 0.1192 0.9484
vn -0.2117 -0.2154 0.9533
vn -0.2161 -0.2121 0.9530
vn 0.3232 0.0000 -0.9463
vn -0.2918 -0.1230 -0.9485
vn -0.2938 -0.1192 -0.9484
vn 0.3232 0.0000 0.9463
vn -0.2918 -0.1230 0.9485
vn -0.2938 -0.1192 0.9484
vn 0.2918 -0.1230 -0.9485
vn 0.2938 -0.1192 -0.9484
vn -0.3232 0.0000 -0.9463
vn 0.2918 -0.1230 0.9485
vn 0.2938 -0.1192 0.9484
vn -0.3232 0.0000 0.9463
vn 0.2117 -0.2154 -0.9533
vn 0.2161 -0.2121 -0.9530
vn -0.2918 0.1230 -0.9485
vn -0.2938 0.1192 -0.9484
vn 0.0000 1.0000 0.0000
vn 0.3781 0.9257 0.0000
vn 0.7021 0.7121 0.0000
vn 0.9219 0.3873 0.0000
vn 1.0000 0.0000 0.0000
vn 0.9219 -0.3873 0.0000
vn 0.7021 -0.7121 0.0000
vn 0.3781 -0.9257 0.0000
vn 0.0000 -1.0000 0.0000
vn -0.3781 -0.9257 0.0000
vn -0.7021 -0.7121 0.0000
vn -0.9219 -0.3873 0.0000
vn -1.0000 0.0000 0.0000
vn -0.9219 0.3873 0.0000
vn -0.7021 0.7121 0.0000
vn -0.3781 0.9257 0.0000
vn -0.1090 0.2676 -0.9573
vn 0.0000 0.2839 -0.9588
vn -0.1124 0.2665 -0.9572
vn 0.3827 0.9239 0.0000
vn 0.1090 0.2676 0.9573
vn 0.1124 0.2665 0.9572
vn 0.7071 0.7071 0.0000
vn 0.0000 -0.2839 -0.9588
vn 0.9239 0.3827 0.0000
vn -0.2117 0.2154 0.9533
vn -0.2161 0.2121 0.9530
vn 0.1090 0.2676 -0.9573
vn 0.1124 0.2665 -0.9572
vn 0.9239 -0.3827 0.0000
vn 0.1090 -0.2676 0.9573
vn 0.1124 -0.2665 0.9572
vn 0.7071 -0.7071 0.0000
vn -0.2117 0.2154 -0.9533
vn -0.2161 0.2121 -0.9530
vn 0.3827 -0.9239 0.0000
vn 0.1090 -0.2676 -0.9573
vn 0.1124 -0.2665 -0.9572
vn -0.3827 -0.9239 0.0000
vn -0.2918 0.1230 0.9485
vn -0.2938 0.1192 0.9484
vn -0.7071 -0.7071 0.0000
vn -0.9239 -0.3827 0.0000
vn 0.2117 -0.2154 0.9533
vn 0.2161 -0.2121 0.9530
vn -0.9239 0.3827 0.0000
vn -0.7071 0.7071 0.0000
vn -0.3827 0.9239 0.0000
vn 0.0000 0.0000 -1.0000
vn 0.0000 0.0000 1.0000
usemtl UV
s 1
f 148/1/1 146/2/2 15/3/2 116/4/3
f 133/5/4 135/6/5 103/7/6 28/8/7
f 64/9/8 160/10/9 1/11/10 32/12/8
f 147/13/11 149/14/12 117/15/13 14/16/14
f 136/17/15 134/18/16 27/19/17 104/20/18
f 150/21/19 148/1/1 116/4/3 118/22/20
f 135/6/5 137/23/21 105/24/21 103/7/6
f 149/14/12 151/25/22 119/26/23 117/15/13
f 138/27/24 136/17/15 104/20/18 106/28/24
f 152/29/25 150/21/19 118/22/20 120/30/26
f 137/23/21 139/31/27 107/32/28 105/24/21
f 151/25/22 153/33/29 121/34/29 119/26/23
f 140/35/30 138/27/24 106/28/24 108/36/31
f 154/37/32 152/29/25 120/30/26 122/38/32
f 139/31/27 141/39/33 109/40/34 107/32/28
f 153/33/29 155/41/35 123/42/36 121/34/29
f 99/43/37 97/44/37 98/45/38 100/46/38
f 100/46/38 98/45/38 101/47/39 102/48/39
f 102/48/39 101/47/39 26/49/40 25/50/40
f 25/50/40 26/49/40 24/51/41 23/52/41
f 23/52/41 24/51/41 22/53/42 21/54/42
f 21/54/42 22/53/42 20/55/43 19/56/43
f 19/56/43 20/55/43 111/57/44 112/58/44
f 112/58/44 111/57/44 113/59/45 114/60/45
f 114/61/45 113/62/45 115/63/46 13/64/46
f 13/64/46 115/63/46 12/65/47 11/66/47
f 11/66/47 12/65/47 10/67/48 9/68/48
f 9/68/48 10/67/48 8/69/49 7/70/49
f 7/70/49 8/69/49 6/71/50 124/72/50
f 124/72/50 6/71/50 125/73/51 126/74/51
f 126/74/51 125/73/51 127/75/52 128/76/52
f 128/76/52 127/75/52 97/44/37 99/43/37
f 159/77/53 129/78/54 31/79/54 2/80/55
f 164/81/37 131/82/37 132/83/56 192/84/56
f 134/18/16 61/85/57 29/86/58 27/19/17
f 192/84/56 132/83/56 59/87/59 190/88/59
f 145/89/60 147/13/11 14/16/14 16/90/60
f 190/88/59 59/87/59 57/91/61 188/92/61
f 160/10/9 158/93/62 3/94/63 1/11/10
f 188/92/61 57/91/61 55/95/41 186/96/41
f 130/97/64 133/5/4 28/8/7 30/98/65
f 186/96/41 55/95/41 53/99/66 184/100/66
f 146/2/2 49/101/67 17/102/68 15/3/2
f 184/100/66 53/99/66 51/103/69 182/104/69
f 157/105/70 159/77/53 2/80/55 4/106/71
f 182/104/69 51/103/69 144/107/72 180/108/72
f 61/85/57 64/9/8 32/12/8 29/86/58
f 180/108/72 144/107/72 47/109/45 178/110/45
f 143/111/73 145/89/60 16/90/60 18/112/74
f 178/110/45 47/109/45 45/113/75 176/114/75
f 158/93/62 37/115/76 5/116/77 3/94/63
f 176/114/75 45/113/75 43/117/78 174/118/78
f 129/78/54 130/97/64 30/98/65 31/79/54
f 174/118/78 43/117/78 41/119/79 172/120/79
f 49/101/67 142/121/80 110/122/81 17/102/68
f 172/120/79 41/119/79 39/123/49 170/124/49
f 155/41/35 157/105/70 4/106/71 123/42/36
f 170/124/49 39/123/49 156/125/82 168/126/82
f 141/39/33 143/111/73 18/112/74 109/40/34
f 168/126/82 156/125/82 35/127/83 166/128/83
f 37/115/76 154/37/32 122/38/32 5/116/77
f 166/128/83 35/127/83 33/129/84 163/130/84
f 142/121/80 140/35/30 108/36/31 110/122/81
f 163/130/84 33/129/84 131/82/37 164/81/37
f 96/131/85 94/132/85 92/133/85 90/134/85 88/135/85 86/136/85 84/137/85 82/138/85 80/139/85 78/140/85 76/141/85 74/142/85 72/143/85 70/144/85 68/145/85 66/146/85
f 34/147/84 162/148/84 161/149/37 63/150/37
f 36/151/83 165/152/83 162/148/84 34/147/84
f 93/153/86 95/154/86 65/155/86 67/156/86 69/157/86 71/158/86 73/159/86 75/160/86 77/161/86 79/162/86 81/163/86 83/164/86 85/165/86 87/166/86 89/167/86 91/168/86
f 38/169/82 167/170/82 165/152/83 36/151/83
f 40/171/49 169/172/49 167/170/82 38/169/82
f 42/173/79 171/174/79 169/172/49 40/171/49
f 44/175/78 173/176/78 171/174/79 42/173/79
f 46/177/75 175/178/75 173/176/78 44/175/78
f 48/179/45 177/180/45 175/178/75 46/177/75
f 50/181/72 179/182/72 177/180/45 48/179/45
f 52/183/69 181/184/69 179/182/72 50/181/72
f 54/185/66 183/186/66 181/184/69 52/183/69
f 56/187/41 185/188/41 183/186/66 54/185/66
f 58/189/61 187/190/61 185/188/41 56/187/41
f 60/191/59 189/192/59 187/190/61 58/189/61
f 62/193/56 191/194/56 189/192/59 60/191/59
f 63/150/37 161/149/37 191/194/56 62/193/56
