# Blender v2.79 (sub 0) OBJ File: ''
# www.blender.org
mtllib PowerUP_Speed.mtl
o PowerUP_Speed_Cube.006
v -0.095214 1.000000 0.100000
v 0.450517 1.000000 0.100000
v -0.413730 1.000000 0.100000
v -0.959461 1.000000 0.100000
v -0.095214 1.000000 -0.100000
v 0.450517 1.000000 -0.100000
v -0.413730 1.000000 -0.100000
v -0.959461 1.000000 -0.100000
v -0.095214 1.000000 0.100000
v -0.095214 1.000000 0.100000
v -0.413730 1.000000 0.100000
v -0.413730 1.000000 0.100000
v -0.959461 1.000000 0.100000
v -0.959461 1.000000 0.100000
v 0.450517 1.000000 0.100000
v 0.450517 1.000000 0.100000
v -0.095214 1.000000 -0.100000
v -0.095214 1.000000 -0.100000
v -0.413730 1.000000 -0.100000
v -0.413730 1.000000 -0.100000
v -0.959461 1.000000 -0.100000
v -0.959461 1.000000 -0.100000
v 0.450517 1.000000 -0.100000
v 0.450517 1.000000 -0.100000
v -0.095214 3.000000 0.100000
v 0.442778 2.000000 0.100000
v 0.988509 2.000000 0.100000
v 0.450517 3.000000 0.100000
v -0.413730 3.000000 0.100000
v 0.124262 2.000000 0.100000
v -0.421469 2.000000 0.100000
v -0.959461 3.000000 0.100000
v -0.095214 3.000000 -0.100000
v 0.442778 2.000000 -0.100000
v 0.988509 2.000000 -0.100000
v 0.450517 3.000000 -0.100000
v -0.413730 3.000000 -0.100000
v 0.124262 2.000000 -0.100000
v -0.421469 2.000000 -0.100000
v -0.959461 3.000000 -0.100000
v -0.095214 3.000000 0.100000
v -0.095214 3.000000 0.100000
v 0.442778 2.000000 0.100000
v 0.442778 2.000000 0.100000
v -0.413730 3.000000 0.100000
v -0.413730 3.000000 0.100000
v -0.959461 3.000000 0.100000
v -0.959461 3.000000 0.100000
v 0.450517 3.000000 0.100000
v 0.450517 3.000000 0.100000
v 0.988509 2.000000 0.100000
v 0.988509 2.000000 0.100000
v 0.124262 2.000000 0.100000
v 0.124262 2.000000 0.100000
v -0.421469 2.000000 0.100000
v -0.421469 2.000000 0.100000
v -0.095214 3.000000 -0.100000
v -0.095214 3.000000 -0.100000
v 0.442778 2.000000 -0.100000
v 0.442778 2.000000 -0.100000
v -0.413730 3.000000 -0.100000
v -0.413730 3.000000 -0.100000
v -0.959461 3.000000 -0.100000
v -0.959461 3.000000 -0.100000
v 0.450517 3.000000 -0.100000
v 0.450517 3.000000 -0.100000
v 0.988509 2.000000 -0.100000
v 0.988509 2.000000 -0.100000
v 0.124262 2.000000 -0.100000
v 0.124262 2.000000 -0.100000
v -0.421469 2.000000 -0.100000
v -0.421469 2.000000 -0.100000
vt 0.529604 0.000000
vt 0.706139 0.185466
vt 0.706139 1.000000
vt 0.529604 0.814534
vt 0.176535 1.000000
vt 0.000000 0.814534
vt 0.000000 0.000000
vt 0.176535 0.185466
vt 0.176535 1.000000
vt 0.176535 0.185466
vt 0.353070 0.000000
vt 0.353070 0.814534
vt 0.353070 1.000000
vt 0.353070 0.185466
vt 0.529604 0.000000
vt 0.529604 0.814534
vt 0.853070 1.000000
vt 0.853070 0.185466
vt 0.926535 0.185466
vt 0.926535 1.000000
vt 0.779604 0.814534
vt 0.779604 1.000000
vt 0.706139 1.000000
vt 0.706139 0.814534
vt 1.000000 0.000000
vt 1.000000 0.814534
vt 0.926535 0.814534
vt 0.926535 0.000000
vt 1.000000 0.814534
vt 1.000000 1.000000
vt 0.926535 1.000000
vt 0.926535 0.814534
vt 0.779604 0.000000
vt 0.779604 0.814534
vt 0.706139 0.814534
vt 0.706139 0.000000
vt 0.853070 0.000000
vt 0.853070 0.814534
vt 0.779604 0.814534
vt 0.779604 0.000000
vt 0.529604 0.000000
vt 0.706139 0.185466
vt 0.176535 1.000000
vt 0.000000 0.814534
vt 0.176535 1.000000
vt 0.353070 0.814534
vt 0.353070 1.000000
vt 0.529604 0.814534
vt 0.853070 1.000000
vt 0.926535 1.000000
vt 0.779604 0.814534
vt 0.706139 0.814534
vt 0.706139 1.000000
vt 0.779604 1.000000
vt 0.926535 0.814534
vt 1.000000 0.814534
vt 1.000000 0.814534
vt 0.926535 0.814534
vt 0.926535 1.000000
vt 1.000000 1.000000
vt 0.706139 0.814534
vt 0.779604 0.814534
vt 0.853070 0.814534
vt 0.779604 0.814534
vt 0.779604 1.000000
vt 0.853070 1.000000
vt 0.853070 0.000000
vt 0.779604 0.000000
vt 0.853070 0.185466
vt 0.926535 0.185466
vt 0.926535 0.000000
vt 0.853070 0.000000
vn 0.0000 -0.0000 1.0000
vn -0.0000 0.0000 -1.0000
vn -0.8806 0.4738 0.0000
vn 0.0000 -1.0000 0.0000
vn 0.8806 -0.4738 0.0000
vn -0.8806 -0.4738 0.0000
vn 0.0000 1.0000 0.0000
vn 0.8806 0.4738 0.0000
usemtl None
s off
f 13/1/1 11/2/1 53/3/1 55/4/1
f 9/5/1 15/6/1 51/7/1 43/8/1
f 21/9/2 71/10/2 69/11/2 19/12/2
f 17/13/2 59/14/2 67/15/2 23/16/2
f 10/17/3 44/18/3 60/19/3 18/20/3
f 12/21/4 14/22/4 22/23/4 20/24/4
f 52/25/5 16/26/5 24/27/5 68/28/5
f 2/29/4 1/30/4 5/31/4 6/32/4
f 54/33/5 3/34/5 7/35/5 70/36/5
f 4/37/3 31/38/3 39/39/3 8/40/3
f 47/41/1 55/4/1 53/3/1 45/42/1
f 41/43/1 43/8/1 51/7/1 49/44/1
f 63/45/2 61/46/2 69/11/2 71/10/2
f 57/47/2 65/48/2 67/15/2 59/14/2
f 42/49/6 58/50/6 60/19/6 44/18/6
f 46/51/7 62/52/7 64/53/7 48/54/7
f 52/25/8 68/28/8 66/55/8 50/56/8
f 28/57/7 36/58/7 33/59/7 25/60/7
f 54/33/8 70/36/8 37/61/8 29/62/8
f 56/63/4 72/64/4 38/65/4 30/66/4
f 32/67/6 40/68/6 39/39/6 31/38/6
f 26/69/4 34/70/4 35/71/4 27/72/4
