# Blender v2.79 (sub 0) OBJ File: ''
# www.blender.org
mtllib PowerUP_FireRate.mtl
o PowerUP_FireRate_Cube.005
v 0.223869 2.706050 0.100000
v 0.390000 2.086768 0.100000
v 0.810535 2.086768 0.100000
v 0.810535 1.000000 0.100000
v 0.390000 1.000000 0.100000
v 0.276214 1.000000 0.100000
v 0.276214 2.367512 0.100000
v 0.132264 2.896478 0.100000
v 0.424512 2.315043 0.100000
v 0.776023 2.315043 0.100000
v 0.502109 2.463193 0.100000
v 0.698426 2.463193 0.100000
v 0.600267 2.545739 0.100000
v 0.223869 2.706050 -0.100000
v 0.390000 2.086768 -0.100000
v 0.810535 2.086768 -0.100000
v 0.810535 1.000000 -0.100000
v 0.390000 1.000000 -0.100000
v 0.276214 1.000000 -0.100000
v 0.276214 2.367512 -0.100000
v 0.132264 2.896478 -0.100000
v 0.424512 2.315043 -0.100000
v 0.776023 2.315043 -0.100000
v 0.502109 2.463193 -0.100000
v 0.698426 2.463193 -0.100000
v 0.600267 2.545739 -0.099994
v -0.223869 2.706050 0.100000
v -0.390000 2.086768 0.100000
v -0.810535 2.086768 0.100000
v -0.810535 1.000000 0.100000
v 0.000000 1.000000 0.100000
v -0.390000 1.000000 0.100000
v -0.276214 1.000000 0.100000
v -0.276214 2.367512 0.100000
v 0.000000 2.367512 0.100000
v 0.000000 2.706050 0.100000
v -0.132264 2.896478 0.100000
v 0.000000 2.896478 0.100000
v 0.000000 3.010735 0.100000
v 0.000000 3.010735 0.100000
v -0.424512 2.315043 0.100000
v -0.776023 2.315043 0.100000
v -0.502109 2.463193 0.100000
v -0.698426 2.463193 0.100000
v -0.600267 2.545739 0.100000
v -0.223869 2.706050 -0.100000
v -0.390000 2.086768 -0.100000
v -0.810535 2.086768 -0.100000
v -0.810535 1.000000 -0.100000
v 0.000000 1.000000 -0.100000
v -0.390000 1.000000 -0.100000
v -0.276214 1.000000 -0.100000
v -0.276214 2.367512 -0.100000
v 0.000000 2.367512 -0.100000
v 0.000000 2.706050 -0.100000
v -0.132264 2.896478 -0.100000
v 0.000000 2.896478 -0.100000
v 0.000000 3.010735 -0.100000
v 0.000000 3.010735 -0.100000
v -0.424512 2.315043 -0.100000
v -0.776023 2.315043 -0.100000
v -0.502109 2.463193 -0.100000
v -0.698426 2.463193 -0.100000
v -0.600267 2.545739 -0.099994
v 0.390000 2.086768 0.100000
v 0.390000 1.000000 0.100000
v 0.390000 1.000000 0.100000
v 0.276214 2.367512 0.100000
v 0.223869 2.706050 0.100000
v 0.276214 1.000000 0.100000
v 0.276214 1.000000 0.100000
v 0.810535 1.000000 0.100000
v 0.810535 1.000000 0.100000
v 0.810535 2.086768 0.100000
v 0.000000 2.367512 0.100000
v 0.000000 2.367512 0.100000
v 0.000000 1.000000 0.100000
v 0.000000 1.000000 0.100000
v 0.000000 1.000000 0.100000
v 0.000000 1.000000 0.100000
v 0.000000 2.706050 0.100000
v 0.000000 2.706050 0.100000
v 0.132264 2.896478 0.100000
v 0.000000 2.896478 0.100000
v 0.000000 2.896478 0.100000
v 0.000000 3.010735 0.100000
v 0.000000 3.010735 0.100000
v 0.000000 3.010735 0.100000
v 0.000000 3.010735 0.100000
v 0.000000 3.010735 0.100000
v 0.000000 3.010735 0.100000
v 0.000000 3.010735 0.100000
v 0.776023 2.315043 0.100000
v 0.424512 2.315043 0.100000
v 0.698426 2.463193 0.100000
v 0.502109 2.463193 0.100000
v 0.600267 2.545739 0.100000
v 0.600267 2.545739 0.100000
v 0.390000 2.086768 -0.100000
v 0.390000 1.000000 -0.100000
v 0.390000 1.000000 -0.100000
v 0.276214 2.367512 -0.100000
v 0.223869 2.706050 -0.100000
v 0.276214 1.000000 -0.100000
v 0.276214 1.000000 -0.100000
v 0.810535 1.000000 -0.100000
v 0.810535 1.000000 -0.100000
v 0.810535 2.086768 -0.100000
v 0.000000 2.367512 -0.100000
v 0.000000 2.367512 -0.100000
v 0.000000 1.000000 -0.100000
v 0.000000 1.000000 -0.100000
v 0.000000 1.000000 -0.100000
v 0.000000 1.000000 -0.100000
v 0.000000 2.706050 -0.100000
v 0.000000 2.706050 -0.100000
v 0.132264 2.896478 -0.100000
v 0.000000 2.896478 -0.100000
v 0.000000 2.896478 -0.100000
v 0.000000 3.010735 -0.100000
v 0.000000 3.010735 -0.100000
v 0.000000 3.010735 -0.100000
v 0.000000 3.010735 -0.100000
v 0.000000 3.010735 -0.100000
v 0.000000 3.010735 -0.100000
v 0.000000 3.010735 -0.100000
v 0.776023 2.315043 -0.100000
v 0.424512 2.315043 -0.100000
v 0.698426 2.463193 -0.100000
v 0.502109 2.463193 -0.100000
v 0.600267 2.545739 -0.099994
v 0.600267 2.545739 -0.099994
v -0.390000 2.086768 0.100000
v -0.390000 1.000000 0.100000
v -0.390000 1.000000 0.100000
v -0.276214 2.367512 0.100000
v -0.223869 2.706050 0.100000
v -0.276214 1.000000 0.100000
v -0.276214 1.000000 0.100000
v -0.810535 1.000000 0.100000
v -0.810535 1.000000 0.100000
v -0.810535 2.086768 0.100000
v -0.132264 2.896478 0.100000
v -0.776023 2.315043 0.100000
v -0.424512 2.315043 0.100000
v -0.698426 2.463193 0.100000
v -0.502109 2.463193 0.100000
v -0.600267 2.545739 0.100000
v -0.600267 2.545739 0.100000
v -0.390000 2.086768 -0.100000
v -0.390000 1.000000 -0.100000
v -0.390000 1.000000 -0.100000
v -0.276214 2.367512 -0.100000
v -0.223869 2.706050 -0.100000
v -0.276214 1.000000 -0.100000
v -0.276214 1.000000 -0.100000
v -0.810535 1.000000 -0.100000
v -0.810535 1.000000 -0.100000
v -0.810535 2.086768 -0.100000
v -0.132264 2.896478 -0.100000
v -0.776023 2.315043 -0.100000
v -0.424512 2.315043 -0.100000
v -0.698426 2.463193 -0.100000
v -0.502109 2.463193 -0.100000
v -0.600267 2.545739 -0.099994
v -0.600267 2.545739 -0.099994
vt 0.509362 0.675371
vt 0.635286 0.675371
vt 0.611422 0.842565
vt 0.509362 0.842565
vt 0.509362 0.000000
vt 0.635286 0.000000
vt 0.191719 0.763392
vt 0.000000 0.763392
vt 0.000000 0.226671
vt 0.191719 0.226671
vt 0.569660 0.936611
vt 0.509362 0.936611
vt 0.509362 0.993039
vt 0.509362 0.993039
vt 0.015734 0.113933
vt 0.175985 0.113933
vt 0.051110 0.040767
vt 0.140609 0.040767
vt 0.095859 0.000000
vt 0.383438 0.317668
vt 0.383438 0.150474
vt 0.485498 0.150474
vt 0.509362 0.317668
vt 0.383437 0.993039
vt 0.509362 0.993039
vt 0.383437 0.000000
vt 0.383437 0.536721
vt 0.191719 0.536721
vt 0.191719 0.000000
vt 0.383438 0.056428
vt 0.443736 0.056428
vt 0.383438 0.000000
vt 0.383438 0.000000
vt 0.367704 0.649459
vt 0.207452 0.649459
vt 0.332328 0.722625
vt 0.242828 0.722625
vt 0.287578 0.763392
vt 0.817643 0.769601
vt 0.817643 0.235004
vt 0.908821 0.235004
vt 0.908821 0.769601
vt 0.635286 0.830153
vt 0.635286 0.661199
vt 0.726464 0.661199
vt 0.726464 0.830153
vt 0.635286 0.000000
vt 0.726464 0.000000
vt 0.908821 0.525458
vt 0.908822 0.000000
vt 1.000000 0.000000
vt 1.000000 0.525458
vt 0.182357 0.763392
vt 0.182357 0.899806
vt 0.091179 0.899806
vt 0.091179 0.763392
vt 0.091179 0.763392
vt 0.091179 0.971081
vt 0.000000 0.971081
vt 0.000000 0.763392
vt 0.635286 0.931445
vt 0.726464 0.931445
vt 0.635286 1.000000
vt 0.726464 1.000000
vt 0.908822 0.639304
vt 1.000000 0.639304
vt 0.817643 0.121197
vt 0.908821 0.121197
vt 0.908821 0.718745
vt 1.000000 0.718745
vt 0.817643 0.044914
vt 0.908821 0.044914
vt 0.817643 0.000000
vt 0.908819 0.000000
vt 0.908822 0.768535
vt 0.999997 0.768535
vt 0.509362 0.675371
vt 0.509362 0.842565
vt 0.611422 0.842565
vt 0.635286 0.675371
vt 0.509362 0.000000
vt 0.635286 0.000000
vt 0.191719 0.763392
vt 0.191719 0.226671
vt 0.000000 0.226671
vt 0.000000 0.763392
vt 0.509362 0.936611
vt 0.569660 0.936611
vt 0.509362 0.993039
vt 0.509362 0.993039
vt 0.175985 0.113933
vt 0.015734 0.113933
vt 0.140609 0.040767
vt 0.051110 0.040767
vt 0.095859 0.000000
vt 0.383438 0.317668
vt 0.509362 0.317668
vt 0.485498 0.150474
vt 0.383438 0.150474
vt 0.383437 0.993039
vt 0.509362 0.993039
vt 0.383437 0.000000
vt 0.191719 0.000000
vt 0.191719 0.536721
vt 0.383437 0.536721
vt 0.443736 0.056428
vt 0.383438 0.056428
vt 0.383438 0.000000
vt 0.383438 0.000000
vt 0.207452 0.649459
vt 0.367704 0.649459
vt 0.242828 0.722625
vt 0.332328 0.722625
vt 0.287578 0.763392
vt 0.817643 0.769601
vt 0.908821 0.769601
vt 0.908821 0.235004
vt 0.817643 0.235004
vt 0.635286 0.830153
vt 0.726464 0.830153
vt 0.726464 0.661199
vt 0.635286 0.661199
vt 0.726464 0.000000
vt 0.635286 0.000000
vt 0.908821 0.525458
vt 1.000000 0.525458
vt 1.000000 0.000000
vt 0.908822 0.000000
vt 0.817643 0.000000
vt 0.726464 0.000000
vt 0.726464 0.672698
vt 0.817643 0.672698
vt 0.182357 0.763392
vt 0.091179 0.763392
vt 0.091179 0.899806
vt 0.182357 0.899806
vt 0.091179 0.763392
vt 0.000000 0.763392
vt 0.000000 0.971081
vt 0.091179 0.971081
vt 0.726464 0.839230
vt 0.817643 0.839230
vt 0.635286 0.931445
vt 0.726464 0.931445
vt 0.726464 0.932904
vt 0.817643 0.932904
vt 0.000000 0.000000
vt 0.000000 0.000000
vt 0.000000 0.000000
vt 0.000000 0.000000
vt 0.635286 1.000000
vt 0.726464 1.000000
vt 0.726464 0.989109
vt 0.817643 0.989109
vt 0.908822 0.639304
vt 1.000000 0.639304
vt 0.908821 0.121197
vt 0.817643 0.121197
vt 0.908821 0.718745
vt 1.000000 0.718745
vt 0.908821 0.044914
vt 0.817643 0.044914
vt 0.908819 0.000000
vt 0.817643 0.000000
vt 0.908822 0.768535
vt 0.999997 0.768535
vn 0.0000 0.0000 1.0000
vn 0.0000 0.0000 -1.0000
vn 0.0000 0.0001 -1.0000
vn -1.0000 0.0000 0.0000
vn -0.9972 0.0750 0.0000
vn 0.9550 0.2964 0.0000
vn 0.9970 0.0766 0.0000
vn 1.0000 0.0000 0.0000
vn 0.9972 0.0750 0.0000
vn 0.0000 -1.0000 0.0000
vn 0.7940 0.6078 0.0000
vn 0.6537 0.7567 0.0000
vn 0.9504 0.3110 0.0000
vn -0.9504 0.3110 0.0000
vn 0.7794 0.6265 0.0000
vn -0.7794 0.6265 0.0000
vn -0.6436 0.7653 0.0000
vn 0.6436 0.7653 0.0000
vn -0.9550 0.2964 0.0000
vn -0.9970 0.0766 0.0000
vn -0.7940 0.6078 0.0000
vn -0.6537 0.7567 0.0000
usemtl None
s 1
f 75/1/1 68/2/1 69/3/1 81/4/1
f 78/5/1 70/6/1 68/2/1 75/1/1
f 66/7/1 72/8/1 74/9/1 65/10/1
f 81/4/1 69/3/1 83/11/1 84/12/1
f 84/12/1 83/11/1 90/13/1 40/14/1
f 65/10/1 74/9/1 93/15/1 94/16/1
f 94/16/1 93/15/1 95/17/1 96/18/1
f 96/18/1 95/17/1 97/19/1
f 109/20/2 115/21/2 103/22/2 102/23/2
f 112/24/2 109/20/2 102/23/2 104/25/2
f 100/26/2 99/27/2 108/28/2 106/29/2
f 115/21/2 118/30/2 117/31/2 103/22/2
f 118/30/2 59/32/2 124/33/2 117/31/2
f 99/27/2 128/34/2 127/35/2 108/28/2
f 128/34/2 130/36/2 129/37/2 127/35/2
f 130/36/2 131/38/3 129/37/2
f 67/39/4 2/40/5 15/41/5 101/42/4
f 1/43/6 7/44/7 20/45/7 14/46/6
f 7/44/7 71/47/8 105/48/8 20/45/7
f 3/49/9 73/50/8 107/51/8 16/52/9
f 6/53/10 80/54/10 50/55/10 19/56/10
f 4/57/10 5/58/10 18/59/10 17/60/10
f 8/61/11 1/43/6 14/46/6 21/62/11
f 92/63/12 8/61/11 21/62/11 58/64/12
f 10/65/13 3/49/9 16/52/9 23/66/13
f 2/40/5 9/67/14 22/68/14 15/41/5
f 12/69/15 10/65/13 23/66/13 25/70/15
f 9/67/14 11/71/16 24/72/16 22/68/14
f 11/71/16 98/73/17 132/74/17 24/72/16
f 13/75/18 12/69/15 25/70/15 26/76/18
f 76/77/1 82/78/1 137/79/1 136/80/1
f 77/81/1 76/77/1 136/80/1 138/82/1
f 134/83/1 133/84/1 142/85/1 140/86/1
f 82/78/1 85/87/1 143/88/1 137/79/1
f 85/87/1 86/89/1 89/90/1 143/88/1
f 133/84/1 145/91/1 144/92/1 142/85/1
f 145/91/1 147/93/1 146/94/1 144/92/1
f 147/93/1 148/95/1 146/94/1
f 110/96/2 153/97/2 154/98/2 116/99/2
f 111/100/2 155/101/2 153/97/2 110/96/2
f 151/102/2 157/103/2 159/104/2 150/105/2
f 116/99/2 154/98/2 160/106/2 119/107/2
f 119/107/2 160/106/2 123/108/2 120/109/2
f 150/105/2 159/104/2 161/110/2 162/111/2
f 162/111/2 161/110/2 163/112/2 164/113/2
f 164/113/2 163/112/2 165/114/3
f 135/115/8 152/116/8 47/117/9 28/118/9
f 27/119/19 46/120/19 53/121/20 34/122/20
f 34/122/20 53/121/20 156/123/4 139/124/4
f 29/125/5 48/126/5 158/127/4 141/128/4
f 79/129/8 113/130/8 54/131/8 35/132/8
f 33/133/10 52/134/10 114/135/10 31/136/10
f 30/137/10 49/138/10 51/139/10 32/140/10
f 35/132/8 54/131/8 55/141/8 36/142/8
f 37/143/21 56/144/21 46/120/19 27/119/19
f 36/142/8 55/141/8 57/145/8 38/146/8
f 87/147/1 121/148/1 125/149/1 91/150/1
f 39/151/22 126/152/22 56/144/21 37/143/21
f 38/146/8 57/145/8 122/153/8 88/154/8
f 42/155/14 61/156/14 48/126/5 29/125/5
f 28/118/9 47/117/9 60/157/13 41/158/13
f 44/159/16 63/160/16 61/156/14 42/155/14
f 41/158/13 60/157/13 62/161/15 43/162/15
f 43/162/15 62/161/15 166/163/18 149/164/18
f 45/165/17 64/166/17 63/160/16 44/159/16
